GentiumBookPlus-Bold.ufo
<glyph name="Space" format="1">
  <advance width="451"/>
  <unicode hex="0020"/>
  <outline>
    <contour>
      <point x="225" y="0" type="move" name="H"/>
    </contour>
    <contour>
      <point x="225" y="-100" type="move" name="L"/>
    </contour>
    <contour>
      <point x="275" y="0" type="move" name="O"/>
    </contour>
    <contour>
      <point x="451" y="900" type="move" name="R"/>
    </contour>
    <contour>
      <point x="225" y="1370" type="move" name="U"/>
    </contour>
  </outline>
</glyph>
<glyph name="Solidus" format="1">
  <advance width="980"/>
  <unicode hex="002F"/>
  <outline>
    <contour>
      <point x="950" y="1568" type="line"/>
      <point x="903" y="1600" type="line"/>
      <point x="865" y="1590"/>
      <point x="767" y="1564"/>
      <point x="731" y="1541" type="curve"/>
      <point x="30" y="-300" type="line"/>
      <point x="77" y="-335" type="line"/>
      <point x="110" y="-325"/>
      <point x="225" y="-292"/>
      <point x="252" y="-274" type="curve"/>
    </contour>
  </outline>
</glyph>
<glyph name="LtnCapA" format="1">
  <advance width="1309"/>
  <unicode hex="0041"/>
  <outline>
    <contour>
      <point x="789" y="425" type="line"/>
      <point x="887" y="151" type="line" smooth="yes"/>
      <point x="902" y="107"/>
      <point x="869" y="89"/>
      <point x="766" y="83" type="curve"/>
      <point x="766" y="0" type="line"/>
      <point x="1288" y="0" type="line"/>
      <point x="1288" y="83" type="line"/>
      <point x="1202" y="93"/>
      <point x="1180" y="114"/>
      <point x="1167" y="151" type="curve" smooth="yes"/>
      <point x="747" y="1317" type="line"/>
      <point x="667" y="1296"/>
      <point x="563" y="1258"/>
      <point x="490" y="1197" type="curve"/>
      <point x="148" y="151" type="line" smooth="yes"/>
      <point x="135" y="111"/>
      <point x="90" y="99"/>
      <point x="0" y="83" type="curve"/>
      <point x="0" y="0" type="line"/>
      <point x="444" y="0" type="line"/>
      <point x="444" y="83" type="line"/>
      <point x="335" y="95"/>
      <point x="292" y="110"/>
      <point x="305" y="151" type="curve" smooth="yes"/>
      <point x="396" y="425" type="line"/>
    </contour>
    <contour>
      <point x="439" y="555" type="line"/>
      <point x="582" y="1003" type="line"/>
      <point x="743" y="555" type="line"/>
    </contour>
    <contour>
      <point x="644" y="0" type="move" name="H"/>
    </contour>
    <contour>
      <point x="644" y="-100" type="move" name="L"/>
    </contour>
    <contour>
      <point x="1032" y="0" type="move" name="O"/>
    </contour>
    <contour>
      <point x="644" y="1370" type="move" name="U"/>
    </contour>
  </outline>
</glyph>
<glyph name="LtnCapF" format="1">
  <advance width="1059"/>
  <unicode hex="0046"/>
  <outline>
    <contour>
      <point x="997" y="1225" type="curve"/>
      <point x="956" y="1260" type="line"/>
      <point x="432" y="1260" type="line"/>
      <point x="403" y="1130" type="line"/>
      <point x="789" y="1130" type="line" smooth="yes"/>
      <point x="840" y="1130"/>
      <point x="867" y="1053"/>
      <point x="871" y="930" type="curve"/>
      <point x="958" y="930" type="line"/>
      <point x="974" y="981"/>
      <point x="995" y="1157"/>
    </contour>
    <contour>
      <point x="858" y="697" type="curve"/>
      <point x="819" y="735" type="line"/>
      <point x="383" y="735" type="line"/>
      <point x="238" y="621" type="line"/>
      <point x="567" y="621" type="line" smooth="yes"/>
      <point x="678" y="621"/>
      <point x="725" y="605"/>
      <point x="764" y="566" type="curve"/>
      <point x="792" y="587"/>
      <point x="833" y="650"/>
    </contour>
    <contour>
      <point x="620" y="0" type="line"/>
      <point x="620" y="83" type="line"/>
      <point x="489" y="108"/>
      <point x="455" y="128"/>
      <point x="455" y="144" type="curve" smooth="yes"/>
      <point x="455" y="1137" type="line" smooth="yes"/>
      <point x="455" y="1155"/>
      <point x="510" y="1158"/>
      <point x="600" y="1177" type="curve"/>
      <point x="600" y="1260" type="line"/>
      <point x="40" y="1260" type="line"/>
      <point x="40" y="1177" type="line"/>
      <point x="136" y="1158"/>
      <point x="175" y="1131"/>
      <point x="175" y="1115" type="curve" smooth="yes"/>
      <point x="175" y="144" type="line" smooth="yes"/>
      <point x="175" y="126"/>
      <point x="130" y="101"/>
      <point x="40" y="83" type="curve"/>
      <point x="40" y="0" type="line"/>
    </contour>
    <contour>
      <point x="518" y="-100" type="move" name="L"/>
    </contour>
    <contour>
      <point x="518" y="1370" type="move" name="U"/>
    </contour>
  </outline>
</glyph>
<glyph name="LtnCapO" format="1">
  <advance width="1289"/>
  <unicode hex="004F"/>
  <outline>
    <contour>
      <point x="1218" y="647" type="curve" smooth="yes"/>
      <point x="1218" y="973"/>
      <point x="1023" y="1290"/>
      <point x="663" y="1290" type="curve" smooth="yes"/>
      <point x="299" y="1290"/>
      <point x="50" y="975"/>
      <point x="50" y="612" type="curve" smooth="yes"/>
      <point x="50" y="276"/>
      <point x="263" y="-30"/>
      <point x="605" y="-30" type="curve" smooth="yes"/>
      <point x="937" y="-30"/>
      <point x="1218" y="285"/>
    </contour>
    <contour>
      <point x="933" y="629" type="curve" smooth="yes"/>
      <point x="933" y="276"/>
      <point x="815" y="110"/>
      <point x="654" y="110" type="curve" smooth="yes"/>
      <point x="479" y="110"/>
      <point x="335" y="342"/>
      <point x="335" y="641" type="curve" smooth="yes"/>
      <point x="335" y="967"/>
      <point x="427" y="1155"/>
      <point x="604" y="1155" type="curve" smooth="yes"/>
      <point x="801" y="1155"/>
      <point x="933" y="905"/>
    </contour>
    <contour>
      <point x="712" y="0" type="move" name="O"/>
    </contour>
    <contour>
      <point x="613" y="0" type="move" name="H"/>
    </contour>
    <contour>
      <point x="1256" y="1100" type="move" name="R"/>
    </contour>
    <contour>
      <point x="646" y="1370" type="move" name="U"/>
    </contour>
    <contour>
      <point x="646" y="-100" type="move" name="L"/>
    </contour>
  </outline>
</glyph>
<glyph name="GraveAccent" format="1">
  <advance width="653"/>
  <unicode hex="0060"/>
  <outline>
    <contour>
      <point x="456" y="1088" type="curve"/>
      <point x="246" y="1519" type="line"/>
      <point x="213" y="1517"/>
      <point x="26" y="1482"/>
      <point x="0" y="1475" type="curve"/>
      <point x="-32" y="1414" type="line"/>
      <point x="360" y="1037" type="line"/>
      <point x="383" y="1044"/>
      <point x="439" y="1072"/>
    </contour>
    <contour>
      <point x="327" y="1410" type="move" name="U"/>
    </contour>
  </outline>
</glyph>
<glyph name="LtnSmC" format="1">
  <advance width="945"/>
  <unicode hex="0063"/>
  <outline>
    <contour>
      <point x="910" y="190" type="curve"/>
      <point x="851" y="261" type="line"/>
      <point x="713" y="164"/>
      <point x="652" y="150"/>
      <point x="577" y="150" type="curve" smooth="yes"/>
      <point x="437" y="150"/>
      <point x="329" y="268"/>
      <point x="330" y="475" type="curve" smooth="yes"/>
      <point x="331" y="736"/>
      <point x="430" y="830"/>
      <point x="540" y="830" type="curve" smooth="yes"/>
      <point x="637" y="830"/>
      <point x="690" y="756"/>
      <point x="741" y="597" type="curve"/>
      <point x="818" y="587" type="line"/>
      <point x="843" y="624"/>
      <point x="911" y="848"/>
      <point x="905" y="881" type="curve"/>
      <point x="860" y="928"/>
      <point x="698" y="960"/>
      <point x="610" y="960" type="curve" smooth="yes"/>
      <point x="283" y="960"/>
      <point x="60" y="731"/>
      <point x="60" y="444" type="curve" smooth="yes"/>
      <point x="60" y="147"/>
      <point x="260" y="-30"/>
      <point x="485" y="-30" type="curve" smooth="yes"/>
      <point x="610" y="-30"/>
      <point x="736" y="-4"/>
    </contour>
    <contour>
      <point x="518" y="0" type="move" name="H"/>
    </contour>
    <contour>
      <point x="518" y="-100" type="move" name="L"/>
    </contour>
    <contour>
      <point x="945" y="900" type="move" name="R"/>
    </contour>
    <contour>
      <point x="518" y="1050" type="move" name="U"/>
    </contour>
  </outline>
</glyph>
<glyph name="Diaer" format="1">
  <advance width="801"/>
  <unicode hex="00A8"/>
  <outline>
    <contour>
      <point x="337" y="1270" type="curve" smooth="yes"/>
      <point x="337" y="1357"/>
      <point x="287" y="1400"/>
      <point x="207" y="1400" type="curve" smooth="yes"/>
      <point x="119" y="1400"/>
      <point x="37" y="1316"/>
      <point x="37" y="1210" type="curve" smooth="yes"/>
      <point x="37" y="1125"/>
      <point x="84" y="1080"/>
      <point x="167" y="1080" type="curve" smooth="yes"/>
      <point x="259" y="1080"/>
      <point x="337" y="1165"/>
    </contour>
    <contour>
      <point x="767" y="1270" type="curve" smooth="yes"/>
      <point x="767" y="1357"/>
      <point x="717" y="1400"/>
      <point x="637" y="1400" type="curve" smooth="yes"/>
      <point x="549" y="1400"/>
      <point x="467" y="1316"/>
      <point x="467" y="1210" type="curve" smooth="yes"/>
      <point x="467" y="1125"/>
      <point x="514" y="1080"/>
      <point x="597" y="1080" type="curve" smooth="yes"/>
      <point x="689" y="1080"/>
      <point x="767" y="1165"/>
    </contour>
    <contour>
      <point x="402" y="1410" type="move" name="U"/>
    </contour>
  </outline>
</glyph>
<glyph name="SupTwo" format="1">
  <advance width="723"/>
  <unicode hex="00B2"/>
  <outline>
    <contour>
      <point x="659" y="620" type="line"/>
      <point x="669" y="856" type="line"/>
      <point x="606" y="869" type="line"/>
      <point x="606" y="869"/>
      <point x="598" y="745"/>
      <point x="535" y="745" type="curve" smooth="yes"/>
      <point x="290" y="745" type="line"/>
      <point x="593" y="1027"/>
      <point x="659" y="1107"/>
      <point x="659" y="1215" type="curve" smooth="yes"/>
      <point x="659" y="1309"/>
      <point x="564" y="1361"/>
      <point x="409" y="1361" type="curve" smooth="yes"/>
      <point x="225" y="1361"/>
      <point x="73" y="1258"/>
      <point x="73" y="1175" type="curve"/>
      <point x="99" y="1127" type="line"/>
      <point x="142" y="1131"/>
      <point x="262" y="1153"/>
      <point x="294" y="1168" type="curve"/>
      <point x="278" y="1229"/>
      <point x="296" y="1277"/>
      <point x="362" y="1277" type="curve" smooth="yes"/>
      <point x="419" y="1277"/>
      <point x="441" y="1240"/>
      <point x="441" y="1174" type="curve" smooth="yes"/>
      <point x="441" y="1090"/>
      <point x="381" y="993"/>
      <point x="55" y="664" type="curve"/>
      <point x="75" y="620" type="line"/>
    </contour>
    <contour>
      <point x="373" y="550" type="move" name="L"/>
    </contour>
    <contour>
      <point x="373" y="1410" type="move" name="U"/>
    </contour>
  </outline>
</glyph>
<glyph name="SupThree" format="1">
  <advance width="723"/>
  <unicode hex="00B3"/>
  <outline>
    <contour>
      <point x="661" y="849" type="curve" smooth="yes"/>
      <point x="661" y="946"/>
      <point x="599" y="1029"/>
      <point x="482" y="1039" type="curve"/>
      <point x="570" y="1062"/>
      <point x="620" y="1135"/>
      <point x="620" y="1195" type="curve" smooth="yes"/>
      <point x="620" y="1276"/>
      <point x="554" y="1361"/>
      <point x="373" y="1361" type="curve" smooth="yes"/>
      <point x="192" y="1361"/>
      <point x="73" y="1244"/>
      <point x="73" y="1177" type="curve"/>
      <point x="99" y="1134" type="line"/>
      <point x="155" y="1139"/>
      <point x="232" y="1161"/>
      <point x="273" y="1182" type="curve"/>
      <point x="253" y="1237"/>
      <point x="293" y="1277"/>
      <point x="333" y="1277" type="curve" smooth="yes"/>
      <point x="382" y="1277"/>
      <point x="399" y="1239"/>
      <point x="399" y="1184" type="curve" smooth="yes"/>
      <point x="399" y="1135"/>
      <point x="396" y="1067"/>
      <point x="240" y="1032" type="curve"/>
      <point x="253" y="962" type="line"/>
      <point x="282" y="966"/>
      <point x="289" y="966"/>
      <point x="315" y="966" type="curve" smooth="yes"/>
      <point x="370" y="966"/>
      <point x="439" y="943"/>
      <point x="439" y="839" type="curve" smooth="yes"/>
      <point x="439" y="756"/>
      <point x="385" y="707"/>
      <point x="310" y="707" type="curve" smooth="yes"/>
      <point x="240" y="707"/>
      <point x="170" y="734"/>
      <point x="85" y="788" type="curve"/>
      <point x="55" y="703" type="line"/>
      <point x="139" y="634"/>
      <point x="260" y="602"/>
      <point x="333" y="602" type="curve" smooth="yes"/>
      <point x="525" y="602"/>
      <point x="661" y="714"/>
    </contour>
    <contour>
      <point x="385" y="550" type="move" name="L"/>
    </contour>
    <contour>
      <point x="385" y="1410" type="move" name="U"/>
    </contour>
  </outline>
</glyph>
<glyph name="Cedilla" format="1">
  <advance width="469"/>
  <unicode hex="00B8"/>
  <outline>
    <contour>
      <point x="469" y="-229" type="curve" smooth="yes"/>
      <point x="469" y="-154"/>
      <point x="412" y="-104"/>
      <point x="299" y="-84" type="curve"/>
      <point x="351" y="50" type="line"/>
      <point x="213" y="52" type="line"/>
      <point x="142" y="-171"/>
      <point x="117" y="-199"/>
      <point x="117" y="-199" type="curve"/>
      <point x="168" y="-203"/>
      <point x="201" y="-221"/>
      <point x="201" y="-266" type="curve" smooth="yes"/>
      <point x="201" y="-309"/>
      <point x="157" y="-350"/>
      <point x="49" y="-365" type="curve"/>
      <point x="91" y="-444" type="line"/>
      <point x="296" y="-425"/>
      <point x="469" y="-328"/>
    </contour>
    <contour>
      <point x="243" y="-600" type="move" name="L"/>
    </contour>
  </outline>
</glyph>
<glyph name="SupOne" format="1">
  <advance width="723"/>
  <unicode hex="00B9"/>
  <outline>
    <contour>
      <point x="105" y="620" type="line"/>
      <point x="658" y="620" type="line"/>
      <point x="658" y="686" type="line"/>
      <point x="517" y="701"/>
      <point x="493" y="724"/>
      <point x="493" y="740" type="curve" smooth="yes"/>
      <point x="493" y="1340" type="line"/>
      <point x="460" y="1367" type="line"/>
      <point x="391" y="1342"/>
      <point x="164" y="1278"/>
      <point x="83" y="1265" type="curve"/>
      <point x="105" y="1200" type="line"/>
      <point x="228" y="1223"/>
      <point x="260" y="1219"/>
      <point x="271" y="1209" type="curve" smooth="yes"/>
      <point x="283" y="1198"/>
      <point x="284" y="1182"/>
      <point x="284" y="1150" type="curve" smooth="yes"/>
      <point x="284" y="740" type="line" smooth="yes"/>
      <point x="284" y="723"/>
      <point x="251" y="701"/>
      <point x="105" y="686" type="curve"/>
    </contour>
    <contour>
      <point x="390" y="550" type="move" name="L"/>
    </contour>
    <contour>
      <point x="390" y="1410" type="move" name="U"/>
    </contour>
  </outline>
</glyph>
<glyph name="LtnCapCCedilla" format="1">
  <advance width="1158"/>
  <unicode hex="00C7"/>
  <outline>
    <component base="LtnCapC"/>
    <component base="CombCedilla" xOffset="1158"/>
    <contour>
      <point x="612" y="-600" type="move" name="L"/>
    </contour>
    <contour>
      <point x="645" y="1370" type="move" name="U"/>
    </contour>
  </outline>
</glyph>
<glyph name="LtnCapNTilde" format="1">
  <advance width="1369"/>
  <unicode hex="00D1"/>
  <outline>
    <component base="LtnCapN"/>
    <component base="CombTilde.LP" xOffset="1233" yOffset="320"/>
    <contour>
      <point x="1076" y="0" type="move" name="H"/>
    </contour>
    <contour>
      <point x="685" y="-100" type="move" name="L"/>
    </contour>
    <contour>
      <point x="685" y="1690" type="move" name="U"/>
    </contour>
  </outline>
</glyph>
<glyph name="LtnCapUGrave" format="1">
  <advance width="1379"/>
  <unicode hex="00D9"/>
  <outline>
    <component base="LtnCapU"/>
    <component base="CombGrave.LP" xOffset="1163" yOffset="320"/>
    <contour>
      <point x="697" y="0" type="move" name="H"/>
    </contour>
    <contour>
      <point x="697" y="-100" type="move" name="L"/>
    </contour>
    <contour>
      <point x="784" y="0" type="move" name="O"/>
    </contour>
    <contour>
      <point x="1380" y="1100" type="move" name="R"/>
    </contour>
    <contour>
      <point x="697" y="1690" type="move" name="U"/>
    </contour>
  </outline>
</glyph>
<glyph name="LtnCapUAcute" format="1">
  <advance width="1379"/>
  <unicode hex="00DA"/>
  <outline>
    <component base="LtnCapU"/>
    <component base="CombAcute.LP" xOffset="1273" yOffset="320"/>
    <contour>
      <point x="697" y="0" type="move" name="H"/>
    </contour>
    <contour>
      <point x="697" y="-100" type="move" name="L"/>
    </contour>
    <contour>
      <point x="784" y="0" type="move" name="O"/>
    </contour>
    <contour>
      <point x="1380" y="1100" type="move" name="R"/>
    </contour>
    <contour>
      <point x="697" y="1690" type="move" name="U"/>
    </contour>
  </outline>
</glyph>
<glyph name="LtnSmECircum" format="1">
  <advance width="1006"/>
  <unicode hex="00EA"/>
  <outline>
    <component base="LtnSmE"/>
    <component base="CombCircum" xOffset="1091"/>
    <contour>
      <point x="533" y="0" type="move" name="H"/>
    </contour>
    <contour>
      <point x="533" y="-100" type="move" name="L"/>
    </contour>
    <contour>
      <point x="558" y="0" type="move" name="O"/>
    </contour>
    <contour>
      <point x="1020" y="900" type="move" name="R"/>
    </contour>
    <contour>
      <point x="544" y="1500" type="move" name="U"/>
    </contour>
  </outline>
</glyph>
<glyph name="LtnSmIAcute" format="1">
  <advance width="635"/>
  <unicode hex="00ED"/>
  <outline>
    <component base="LtnSmDotlessI"/>
    <component base="CombAcute" xOffset="865"/>
    <contour>
      <point x="325" y="0" type="move" name="H"/>
    </contour>
    <contour>
      <point x="386" y="0" type="move" name="O"/>
    </contour>
    <contour>
      <point x="635" y="900" type="move" name="R"/>
    </contour>
    <contour>
      <point x="235" y="1440" type="move" name="U"/>
    </contour>
    <contour>
      <point x="325" y="-100" type="move" name="L"/>
    </contour>
  </outline>
</glyph>
<glyph name="LtnSmOGrave" format="1">
  <advance width="1090"/>
  <unicode hex="00F2"/>
  <outline>
    <component base="LtnSmO"/>
    <component base="CombGrave" xOffset="1033"/>
    <contour>
      <point x="567" y="0" type="move" name="H"/>
    </contour>
    <contour>
      <point x="611" y="0" type="move" name="O"/>
    </contour>
    <contour>
      <point x="1090" y="900" type="move" name="R"/>
    </contour>
    <contour>
      <point x="567" y="1410" type="move" name="U"/>
    </contour>
    <contour>
      <point x="567" y="-100" type="move" name="L"/>
    </contour>
  </outline>
</glyph>
<glyph name="LtnSmOCircum" format="1">
  <advance width="1090"/>
  <unicode hex="00F4"/>
  <outline>
    <component base="LtnSmO"/>
    <component base="CombCircum" xOffset="1114"/>
    <contour>
      <point x="567" y="0" type="move" name="H"/>
    </contour>
    <contour>
      <point x="567" y="-100" type="move" name="L"/>
    </contour>
    <contour>
      <point x="611" y="0" type="move" name="O"/>
    </contour>
    <contour>
      <point x="1090" y="900" type="move" name="R"/>
    </contour>
    <contour>
      <point x="567" y="1500" type="move" name="U"/>
    </contour>
  </outline>
</glyph>
<glyph name="LtnSmUAcute" format="1">
  <advance width="1175"/>
  <unicode hex="00FA"/>
  <outline>
    <component base="LtnSmU"/>
    <component base="CombAcute" xOffset="1128"/>
    <contour>
      <point x="532" y="0" type="move" name="H"/>
    </contour>
    <contour>
      <point x="588" y="-100" type="move" name="L"/>
    </contour>
    <contour>
      <point x="886" y="0" type="move" name="O"/>
    </contour>
    <contour>
      <point x="1275" y="900" type="move" name="R"/>
    </contour>
    <contour>
      <point x="498" y="1440" type="move" name="U"/>
    </contour>
  </outline>
</glyph>
<glyph name="LtnSmYAcute" format="1">
  <advance width="1050"/>
  <unicode hex="00FD"/>
  <outline>
    <component base="LtnSmY"/>
    <component base="CombAcute" xOffset="1088"/>
    <contour>
      <point x="830" y="-100" type="move" name="L"/>
    </contour>
    <contour>
      <point x="1050" y="900" type="move" name="R"/>
    </contour>
    <contour>
      <point x="458" y="1440" type="move" name="U"/>
    </contour>
  </outline>
</glyph>
<glyph name="LtnSmYDiaer" format="1">
  <advance width="1050"/>
  <unicode hex="00FF"/>
  <outline>
    <component base="LtnSmY"/>
    <component base="CombDiaer" xOffset="1096"/>
    <contour>
      <point x="830" y="-100" type="move" name="L"/>
    </contour>
    <contour>
      <point x="1050" y="900" type="move" name="R"/>
    </contour>
    <contour>
      <point x="548" y="1410" type="move" name="U"/>
    </contour>
  </outline>
</glyph>
<glyph name="LtnCapAMacron" format="1">
  <advance width="1309"/>
  <unicode hex="0100"/>
  <outline>
    <component base="LtnCapA"/>
    <component base="CombMacron.LP" xOffset="1202" yOffset="320"/>
    <contour>
      <point x="644" y="0" type="move" name="H"/>
    </contour>
    <contour>
      <point x="644" y="-100" type="move" name="L"/>
    </contour>
    <contour>
      <point x="1032" y="0" type="move" name="O"/>
    </contour>
    <contour>
      <point x="644" y="1690" type="move" name="U"/>
    </contour>
  </outline>
</glyph>
<glyph name="LtnSmAOgonek" format="1">
  <advance width="1050"/>
  <unicode hex="0105"/>
  <outline>
    <component base="LtnSmA"/>
    <component base="CombOgonek" xOffset="1297"/>
    <contour>
      <point x="409" y="0" type="move" name="H"/>
    </contour>
    <contour>
      <point x="1050" y="900" type="move" name="R"/>
    </contour>
    <contour>
      <point x="526" y="1050" type="move" name="U"/>
    </contour>
    <contour>
      <point x="750" y="-600" type="move" name="L"/>
    </contour>
  </outline>
</glyph>
<glyph name="LtnSmCAcute" format="1">
  <advance width="945"/>
  <unicode hex="0107"/>
  <outline>
    <component base="LtnSmC"/>
    <component base="CombAcute" xOffset="1058"/>
    <contour>
      <point x="518" y="0" type="move" name="H"/>
    </contour>
    <contour>
      <point x="518" y="-100" type="move" name="L"/>
    </contour>
    <contour>
      <point x="945" y="900" type="move" name="R"/>
    </contour>
    <contour>
      <point x="428" y="1440" type="move" name="U"/>
    </contour>
  </outline>
</glyph>
<glyph name="LtnCapCCircum" format="1">
  <advance width="1158"/>
  <unicode hex="0108"/>
  <outline>
    <component base="LtnCapC"/>
    <component base="CombCircum.LP" xOffset="1192" yOffset="320"/>
    <contour>
      <point x="612" y="0" type="move" name="H"/>
    </contour>
    <contour>
      <point x="645" y="-100" type="move" name="L"/>
    </contour>
    <contour>
      <point x="645" y="1770" type="move" name="U"/>
    </contour>
  </outline>
</glyph>
<glyph name="LtnSmCDotAbv" format="1">
  <advance width="945"/>
  <unicode hex="010B"/>
  <outline>
    <component base="LtnSmC"/>
    <component base="CombDotAbv" xOffset="1066"/>
    <contour>
      <point x="518" y="0" type="move" name="H"/>
    </contour>
    <contour>
      <point x="518" y="-100" type="move" name="L"/>
    </contour>
    <contour>
      <point x="945" y="900" type="move" name="R"/>
    </contour>
    <contour>
      <point x="518" y="1410" type="move" name="U"/>
    </contour>
  </outline>
</glyph>
<glyph name="LtnCapEMacron" format="1">
  <advance width="1096"/>
  <unicode hex="0112"/>
  <outline>
    <component base="LtnCapE"/>
    <component base="CombMacron.LP" xOffset="1105" yOffset="320"/>
    <contour>
      <point x="547" y="0" type="move" name="H"/>
    </contour>
    <contour>
      <point x="825" y="0" type="move" name="O"/>
    </contour>
    <contour>
      <point x="1096" y="1100" type="move" name="R"/>
    </contour>
    <contour>
      <point x="547" y="1690" type="move" name="U"/>
    </contour>
    <contour>
      <point x="547" y="-100" type="move" name="L"/>
    </contour>
  </outline>
</glyph>
<glyph name="LtnSmEBreve" format="1">
  <advance width="1006"/>
  <unicode hex="0115"/>
  <outline>
    <component base="LtnSmE"/>
    <component base="CombBreve" xOffset="1092"/>
    <contour>
      <point x="533" y="0" type="move" name="H"/>
    </contour>
    <contour>
      <point x="558" y="0" type="move" name="O"/>
    </contour>
    <contour>
      <point x="1020" y="900" type="move" name="R"/>
    </contour>
    <contour>
      <point x="544" y="1370" type="move" name="U"/>
    </contour>
    <contour>
      <point x="533" y="-100" type="move" name="L"/>
    </contour>
  </outline>
</glyph>
<glyph name="LtnCapEOgonek" format="1">
  <advance width="1096"/>
  <unicode hex="0118"/>
  <outline>
    <component base="LtnCapE"/>
    <component base="CombOgonek" xOffset="1322"/>
    <contour>
      <point x="547" y="0" type="move" name="H"/>
    </contour>
    <contour>
      <point x="775" y="-600" type="move" name="L"/>
    </contour>
    <contour>
      <point x="1096" y="1100" type="move" name="R"/>
    </contour>
    <contour>
      <point x="547" y="1370" type="move" name="U"/>
    </contour>
  </outline>
</glyph>
<glyph name="LtnCapECaron" format="1">
  <advance width="1096"/>
  <unicode hex="011A"/>
  <outline>
    <component base="LtnCapE"/>
    <component base="CombCaron.LP" xOffset="1094" yOffset="320"/>
    <contour>
      <point x="547" y="0" type="move" name="H"/>
    </contour>
    <contour>
      <point x="825" y="0" type="move" name="O"/>
    </contour>
    <contour>
      <point x="1096" y="1100" type="move" name="R"/>
    </contour>
    <contour>
      <point x="547" y="1690" type="move" name="U"/>
    </contour>
    <contour>
      <point x="547" y="-100" type="move" name="L"/>
    </contour>
  </outline>
</glyph>
<glyph name="LtnSmGBreve" format="1">
  <advance width="1079"/>
  <unicode hex="011F"/>
  <outline>
    <component base="LtnSmG"/>
    <component base="CombBreve" xOffset="1081"/>
    <contour>
      <point x="533" y="-470" type="move" name="H"/>
    </contour>
    <contour>
      <point x="533" y="-600" type="move" name="L"/>
    </contour>
    <contour>
      <point x="1079" y="900" type="move" name="R"/>
    </contour>
    <contour>
      <point x="533" y="1370" type="move" name="U"/>
    </contour>
  </outline>
</glyph>
<glyph name="LtnSmGDotAbv" format="1">
  <advance width="1079"/>
  <unicode hex="0121"/>
  <outline>
    <component base="LtnSmG"/>
    <component base="CombDotAbv" xOffset="1081"/>
    <contour>
      <point x="533" y="-470" type="move" name="H"/>
    </contour>
    <contour>
      <point x="533" y="-600" type="move" name="L"/>
    </contour>
    <contour>
      <point x="1079" y="900" type="move" name="R"/>
    </contour>
    <contour>
      <point x="533" y="1410" type="move" name="U"/>
    </contour>
  </outline>
</glyph>
<glyph name="LtnCapGCedilla" format="1">
  <advance width="1244"/>
  <unicode hex="0122"/>
  <outline>
    <component base="LtnCapG"/>
    <component base="CombCommaBlw" xOffset="1215"/>
    <contour>
      <point x="640" y="0" type="move" name="H"/>
    </contour>
    <contour>
      <point x="662" y="-600" type="move" name="L"/>
    </contour>
    <contour>
      <point x="662" y="1370" type="move" name="U"/>
    </contour>
  </outline>
</glyph>
<glyph name="LtnSmGCedilla" format="1">
  <advance width="1079"/>
  <unicode hex="0123"/>
  <outline>
    <component base="LtnSmG"/>
    <component base="CombTrndCommaAbv" xOffset="1057"/>
    <contour>
      <point x="533" y="-470" type="move" name="H"/>
    </contour>
    <contour>
      <point x="533" y="-600" type="move" name="L"/>
    </contour>
    <contour>
      <point x="1079" y="900" type="move" name="R"/>
    </contour>
    <contour>
      <point x="533" y="1370" type="move" name="U"/>
    </contour>
  </outline>
</glyph>
<glyph name="LtnSmIMacron" format="1">
  <advance width="635"/>
  <unicode hex="012B"/>
  <outline>
    <component base="LtnSmDotlessI"/>
    <component base="CombMacron.Short" xOffset="883"/>
    <contour>
      <point x="325" y="0" type="move" name="H"/>
    </contour>
    <contour>
      <point x="386" y="0" type="move" name="O"/>
    </contour>
    <contour>
      <point x="635" y="900" type="move" name="R"/>
    </contour>
    <contour>
      <point x="325" y="1410" type="move" name="U"/>
    </contour>
    <contour>
      <point x="325" y="-100" type="move" name="L"/>
    </contour>
  </outline>
</glyph>
<glyph name="LtnCapLigIj" format="1">
  <advance width="1235"/>
  <unicode hex="0132"/>
  <outline>
    <component base="LtnCapI"/>
    <component base="LtnCapJ" xOffset="610"/>
    <contour>
      <point x="295" y="0" type="move" name="H"/>
    </contour>
    <contour>
      <point x="940" y="-100" type="move" name="L"/>
    </contour>
    <contour>
      <point x="345" y="0" type="move" name="O"/>
    </contour>
    <contour>
      <point x="940" y="1370" type="move" name="U"/>
    </contour>
  </outline>
</glyph>
<glyph name="LtnCapJCircum" format="1">
  <advance width="705"/>
  <unicode hex="0134"/>
  <outline>
    <component base="LtnCapJ"/>
    <component base="CombCircum.LP" xOffset="909" yOffset="320"/>
    <contour>
      <point x="362" y="-600" type="move" name="L"/>
    </contour>
    <contour>
      <point x="362" y="1770" type="move" name="U"/>
    </contour>
  </outline>
</glyph>
<glyph name="LtnSmKra" format="1">
  <advance width="1037"/>
  <unicode hex="0138"/>
  <outline>
    <component base="CySmKa"/>
    <contour>
      <point x="539" y="-100" type="move" name="L"/>
    </contour>
    <contour>
      <point x="539" y="1050" type="move" name="U"/>
    </contour>
  </outline>
</glyph>
<glyph name="LtnCapLAcute" format="1">
  <advance width="1065"/>
  <unicode hex="0139"/>
  <outline>
    <component base="LtnCapL"/>
    <component base="CombAcute.LP" xOffset="1084" yOffset="320"/>
    <contour>
      <point x="542" y="0" type="move" name="H"/>
    </contour>
    <contour>
      <point x="542" y="-100" type="move" name="L"/>
    </contour>
    <contour>
      <point x="840" y="900" type="move" name="R"/>
    </contour>
    <contour>
      <point x="508" y="1690" type="move" name="U"/>
    </contour>
  </outline>
</glyph>
<glyph name="LtnSmLAcute" format="1">
  <advance width="635"/>
  <unicode hex="013A"/>
  <outline>
    <component base="LtnSmL"/>
    <component base="CombAcute.LP" xOffset="901" yOffset="640"/>
    <contour>
      <point x="325" y="0" type="move" name="H"/>
    </contour>
    <contour>
      <point x="325" y="-100" type="move" name="L"/>
    </contour>
    <contour>
      <point x="615" y="900" type="move" name="R"/>
    </contour>
    <contour>
      <point x="325" y="2010" type="move" name="U"/>
    </contour>
  </outline>
</glyph>
<glyph name="LtnCapLCaron" format="1">
  <advance width="975"/>
  <unicode hex="013D"/>
  <outline>
    <component base="LtnCapL"/>
    <component base="CombCommaAbvRt" xOffset="750"/>
    <contour>
      <point x="496" y="0" type="move" name="H"/>
    </contour>
    <contour>
      <point x="497" y="-100" type="move" name="L"/>
    </contour>
    <contour>
      <point x="412" y="1370" type="move" name="U"/>
    </contour>
  </outline>
</glyph>
<glyph name="LtnSmLCaron" format="1">
  <advance width="752"/>
  <unicode hex="013E"/>
  <outline>
    <component base="LtnSmL"/>
    <component base="CombCommaAbvRt" xOffset="535"/>
    <contour>
      <point x="285" y="0" type="move" name="H"/>
    </contour>
    <contour>
      <point x="285" y="-100" type="move" name="L"/>
    </contour>
    <contour>
      <point x="285" y="1690" type="move" name="U"/>
    </contour>
  </outline>
</glyph>
<glyph name="LtnSmNAcute" format="1">
  <advance width="1210"/>
  <unicode hex="0144"/>
  <outline>
    <component base="LtnSmN"/>
    <component base="CombAcute" xOffset="1157"/>
    <contour>
      <point x="925" y="0" type="move" name="H"/>
    </contour>
    <contour>
      <point x="617" y="-100" type="move" name="L"/>
    </contour>
    <contour>
      <point x="527" y="1440" type="move" name="U"/>
    </contour>
  </outline>
</glyph>
<glyph name="LtnCapNCaron" format="1">
  <advance width="1369"/>
  <unicode hex="0147"/>
  <outline>
    <component base="LtnCapN"/>
    <component base="CombCaron.LP" xOffset="1232" yOffset="320"/>
    <contour>
      <point x="1076" y="0" type="move" name="H"/>
    </contour>
    <contour>
      <point x="685" y="-100" type="move" name="L"/>
    </contour>
    <contour>
      <point x="685" y="1690" type="move" name="U"/>
    </contour>
  </outline>
</glyph>
<glyph name="LtnSmODblAcute" format="1">
  <advance width="1090"/>
  <unicode hex="0151"/>
  <outline>
    <component base="LtnSmO"/>
    <component base="CombDblAcute" xOffset="1100"/>
    <contour>
      <point x="567" y="0" type="move" name="H"/>
    </contour>
    <contour>
      <point x="611" y="0" type="move" name="O"/>
    </contour>
    <contour>
      <point x="1090" y="900" type="move" name="R"/>
    </contour>
    <contour>
      <point x="567" y="1588" type="move" name="U"/>
    </contour>
    <contour>
      <point x="567" y="-100" type="move" name="L"/>
    </contour>
  </outline>
</glyph>
<glyph name="LtnCapRCaron" format="1">
  <advance width="1269"/>
  <unicode hex="0158"/>
  <outline>
    <component base="LtnCapR"/>
    <component base="CombCaron.LP" xOffset="1119" yOffset="320"/>
    <contour>
      <point x="320" y="0" type="move" name="H"/>
    </contour>
    <contour>
      <point x="572" y="-100" type="move" name="L"/>
    </contour>
    <contour>
      <point x="572" y="1690" type="move" name="U"/>
    </contour>
  </outline>
</glyph>
<glyph name="LtnCapSAcute" format="1">
  <advance width="1075"/>
  <unicode hex="015A"/>
  <outline>
    <component base="LtnCapS"/>
    <component base="CombAcute.LP" xOffset="1122" yOffset="320"/>
    <contour>
      <point x="522" y="0" type="move" name="H"/>
    </contour>
    <contour>
      <point x="546" y="-100" type="move" name="L"/>
    </contour>
    <contour>
      <point x="546" y="1690" type="move" name="U"/>
    </contour>
  </outline>
</glyph>
<glyph name="LtnCapSCircum" format="1">
  <advance width="1075"/>
  <unicode hex="015C"/>
  <outline>
    <component base="LtnCapS"/>
    <component base="CombCircum.LP" xOffset="1093" yOffset="320"/>
    <contour>
      <point x="522" y="0" type="move" name="H"/>
    </contour>
    <contour>
      <point x="546" y="-100" type="move" name="L"/>
    </contour>
    <contour>
      <point x="546" y="1770" type="move" name="U"/>
    </contour>
  </outline>
</glyph>
<glyph name="LtnCapSCedilla" format="1">
  <advance width="1075"/>
  <unicode hex="015E"/>
  <outline>
    <component base="LtnCapS"/>
    <component base="CombCedilla" xOffset="1068"/>
    <contour>
      <point x="546" y="1370" type="move" name="U"/>
    </contour>
    <contour>
      <point x="522" y="-600" type="move" name="L"/>
    </contour>
  </outline>
</glyph>
<glyph name="LtnSmSCedilla" format="1">
  <advance width="880"/>
  <unicode hex="015F"/>
  <outline>
    <component base="LtnSmS"/>
    <component base="CombCedilla" xOffset="970"/>
    <contour>
      <point x="424" y="-600" type="move" name="L"/>
    </contour>
    <contour>
      <point x="439" y="1050" type="move" name="U"/>
    </contour>
  </outline>
</glyph>
<glyph name="LtnSmTCedilla" format="1">
  <advance width="775"/>
  <unicode hex="0163"/>
  <outline>
    <component base="LtnSmT"/>
    <component base="CombCedilla" xOffset="924"/>
    <contour>
      <point x="378" y="-600" type="move" name="L"/>
    </contour>
    <contour>
      <point x="570" y="900" type="move" name="R"/>
    </contour>
    <contour>
      <point x="378" y="1320" type="move" name="U"/>
    </contour>
  </outline>
</glyph>
<glyph name="LtnSmUMacron" format="1">
  <advance width="1175"/>
  <unicode hex="016B"/>
  <outline>
    <component base="LtnSmU"/>
    <component base="CombMacron" xOffset="1146"/>
    <contour>
      <point x="532" y="0" type="move" name="H"/>
    </contour>
    <contour>
      <point x="588" y="-100" type="move" name="L"/>
    </contour>
    <contour>
      <point x="886" y="0" type="move" name="O"/>
    </contour>
    <contour>
      <point x="1275" y="900" type="move" name="R"/>
    </contour>
    <contour>
      <point x="588" y="1410" type="move" name="U"/>
    </contour>
  </outline>
</glyph>
<glyph name="LtnSmUDblAcute" format="1">
  <advance width="1175"/>
  <unicode hex="0171"/>
  <outline>
    <component base="LtnSmU"/>
    <component base="CombDblAcute" xOffset="1121"/>
    <contour>
      <point x="532" y="0" type="move" name="H"/>
    </contour>
    <contour>
      <point x="588" y="-100" type="move" name="L"/>
    </contour>
    <contour>
      <point x="886" y="0" type="move" name="O"/>
    </contour>
    <contour>
      <point x="1275" y="900" type="move" name="R"/>
    </contour>
    <contour>
      <point x="588" y="1588" type="move" name="U"/>
    </contour>
  </outline>
</glyph>
<glyph name="LtnCapUOgonek" format="1">
  <advance width="1339"/>
  <unicode hex="0172"/>
  <outline>
    <component base="LtnCapU"/>
    <component base="CombOgonek" xOffset="1224"/>
    <contour>
      <point x="677" y="0" type="move" name="H"/>
    </contour>
    <contour>
      <point x="710" y="-600" type="move" name="L"/>
    </contour>
    <contour>
      <point x="1330" y="1250" type="move" name="R"/>
    </contour>
    <contour>
      <point x="677" y="1370" type="move" name="U"/>
    </contour>
  </outline>
</glyph>
<glyph name="LtnSmUOgonek" format="1">
  <advance width="1085"/>
  <unicode hex="0173"/>
  <outline>
    <component base="LtnSmU"/>
    <component base="CombOgonek" xOffset="1324"/>
    <contour>
      <point x="810" y="-600" type="move" name="L"/>
    </contour>
    <contour>
      <point x="545" y="1050" type="move" name="U"/>
    </contour>
  </outline>
</glyph>
<glyph name="LtnCapWCircum" format="1">
  <advance width="1741"/>
  <unicode hex="0174"/>
  <outline>
    <component base="LtnCapW"/>
    <component base="CombCircum.LP" xOffset="1428" yOffset="320"/>
    <contour>
      <point x="881" y="-100" type="move" name="L"/>
    </contour>
    <contour>
      <point x="881" y="1770" type="move" name="U"/>
    </contour>
  </outline>
</glyph>
<glyph name="LtnCapYCircum" format="1">
  <advance width="1267"/>
  <unicode hex="0176"/>
  <outline>
    <component base="LtnCapY"/>
    <component base="CombCircum.LP" xOffset="1181" yOffset="320"/>
    <contour>
      <point x="634" y="-100" type="move" name="L"/>
    </contour>
    <contour>
      <point x="634" y="1770" type="move" name="U"/>
    </contour>
  </outline>
</glyph>
<glyph name="LtnSmZDotAbv" format="1">
  <advance width="976"/>
  <unicode hex="017C"/>
  <outline>
    <component base="LtnSmZ"/>
    <component base="CombDotAbv" xOffset="1065"/>
    <contour>
      <point x="486" y="0" type="move" name="H"/>
    </contour>
    <contour>
      <point x="486" y="-100" type="move" name="L"/>
    </contour>
    <contour>
      <point x="517" y="1410" type="move" name="U"/>
    </contour>
  </outline>
</glyph>
<glyph name="LtnCapZCaron" format="1">
  <advance width="1131"/>
  <unicode hex="017D"/>
  <outline>
    <component base="LtnCapZ"/>
    <component base="CombCaron.LP" xOffset="1134" yOffset="320"/>
    <contour>
      <point x="565" y="-100" type="move" name="L"/>
    </contour>
    <contour>
      <point x="587" y="1690" type="move" name="U"/>
    </contour>
  </outline>
</glyph>
<glyph name="LtnSmZCaron" format="1">
  <advance width="976"/>
  <unicode hex="017E"/>
  <outline>
    <component base="LtnSmZ"/>
    <component base="CombCaron" xOffset="1064"/>
    <contour>
      <point x="486" y="0" type="move" name="H"/>
    </contour>
    <contour>
      <point x="517" y="1450" type="move" name="U"/>
    </contour>
    <contour>
      <point x="486" y="-100" type="move" name="L"/>
    </contour>
  </outline>
</glyph>
<glyph name="LtnCapFHook" format="1">
  <advance width="1059"/>
  <unicode hex="0191"/>
  <outline>
    <contour>
      <point x="455" y="225" type="curve"/>
      <point x="455" y="621" type="line"/>
      <point x="567" y="621" type="line" smooth="yes"/>
      <point x="678" y="621"/>
      <point x="725" y="605"/>
      <point x="764" y="566" type="curve"/>
      <point x="792" y="587"/>
      <point x="843" y="660"/>
      <point x="858" y="697" type="curve"/>
      <point x="819" y="735" type="line"/>
      <point x="455" y="735" type="line"/>
      <point x="455" y="1130" type="line"/>
      <point x="789" y="1130" type="line" smooth="yes"/>
      <point x="840" y="1130"/>
      <point x="867" y="1053"/>
      <point x="871" y="930" type="curve"/>
      <point x="958" y="930" type="line"/>
      <point x="974" y="981"/>
      <point x="995" y="1157"/>
      <point x="997" y="1225" type="curve"/>
      <point x="956" y="1260" type="line"/>
      <point x="40" y="1260" type="line"/>
      <point x="40" y="1177" type="line"/>
      <point x="136" y="1158"/>
      <point x="175" y="1131"/>
      <point x="175" y="1115" type="curve" smooth="yes"/>
      <point x="175" y="153" type="line" smooth="yes"/>
      <point x="175" y="-145"/>
      <point x="117" y="-197"/>
      <point x="39" y="-197" type="curve" smooth="yes"/>
      <point x="-32" y="-197"/>
      <point x="-105" y="-149"/>
      <point x="-159" y="-100" type="curve"/>
      <point x="-196" y="-114"/>
      <point x="-345" y="-248"/>
      <point x="-345" y="-280" type="curve" smooth="yes"/>
      <point x="-345" y="-313"/>
      <point x="-211" y="-380"/>
      <point x="-80" y="-380" type="curve" smooth="yes"/>
      <point x="22" y="-380"/>
      <point x="134" y="-325"/>
      <point x="206" y="-268" type="curve"/>
      <point x="307" y="-184"/>
      <point x="455" y="-69"/>
    </contour>
    <contour>
      <point x="409" y="1370" type="move" name="U"/>
    </contour>
    <contour>
      <point x="455" y="-600" type="move" name="L"/>
    </contour>
  </outline>
</glyph>
<glyph name="LtnCapOMiddleTilde" format="1">
  <advance width="1289"/>
  <unicode hex="019F"/>
  <outline>
    <contour>
      <point x="1218" y="647" type="curve" smooth="yes"/>
      <point x="1218" y="973"/>
      <point x="1023" y="1290"/>
      <point x="663" y="1290" type="curve" smooth="yes"/>
      <point x="299" y="1290"/>
      <point x="50" y="975"/>
      <point x="50" y="612" type="curve" smooth="yes"/>
      <point x="50" y="276"/>
      <point x="263" y="-30"/>
      <point x="605" y="-30" type="curve" smooth="yes"/>
      <point x="937" y="-30"/>
      <point x="1218" y="285"/>
    </contour>
    <contour>
      <point x="932" y="595" type="line"/>
      <point x="925" y="265"/>
      <point x="809" y="110"/>
      <point x="654" y="110" type="curve" smooth="yes"/>
      <point x="488" y="110"/>
      <point x="350" y="318"/>
      <point x="336" y="595" type="curve"/>
    </contour>
    <contour>
      <point x="927" y="725" type="curve"/>
      <point x="337" y="725" type="line"/>
      <point x="352" y="999"/>
      <point x="443" y="1155"/>
      <point x="604" y="1155" type="curve" smooth="yes"/>
      <point x="778" y="1155"/>
      <point x="901" y="960"/>
    </contour>
    <contour>
      <point x="631" y="-100" type="move" name="L"/>
    </contour>
    <contour>
      <point x="639" y="1370" type="move" name="U"/>
    </contour>
  </outline>
</glyph>
<glyph name="LtnCapOHorn" format="1">
  <advance width="1317"/>
  <unicode hex="01A0"/>
  <outline>
    <component base="LtnCapO"/>
    <component base="CombHorn" xOffset="1150" yOffset="350"/>
    <contour>
      <point x="615" y="-100" type="move" name="L"/>
    </contour>
    <contour>
      <point x="615" y="1370" type="move" name="U"/>
    </contour>
  </outline>
</glyph>
<glyph name="LtnSmOHorn" format="1">
  <advance width="1240"/>
  <unicode hex="01A1"/>
  <outline>
    <component base="LtnSmO" xOffset="-10"/>
    <component base="CombHorn" xOffset="1073"/>
    <contour>
      <point x="586" y="-100" type="move" name="L"/>
    </contour>
    <contour>
      <point x="586" y="1050" type="move" name="U"/>
    </contour>
  </outline>
</glyph>
<glyph name="LtnCapUHorn" format="1">
  <advance width="1530"/>
  <unicode hex="01AF"/>
  <outline>
    <component base="LtnCapU"/>
    <component base="CombHorn" xOffset="1363" yOffset="350"/>
    <contour>
      <point x="732" y="-100" type="move" name="L"/>
    </contour>
    <contour>
      <point x="732" y="1370" type="move" name="U"/>
    </contour>
  </outline>
</glyph>
<glyph name="LtnCapZStrk" format="1">
  <advance width="1131"/>
  <unicode hex="01B5"/>
  <outline>
    <contour>
      <point x="1061" y="373" type="curve"/>
      <point x="966" y="397" type="line"/>
      <point x="915" y="233"/>
      <point x="886" y="140"/>
      <point x="829" y="140" type="curve" smooth="yes"/>
      <point x="396" y="140" type="line"/>
      <point x="1051" y="1207" type="line"/>
      <point x="1016" y="1260" type="line"/>
      <point x="330" y="1260" type="line" smooth="yes"/>
      <point x="252" y="1260"/>
      <point x="213" y="1260"/>
      <point x="140" y="1276" type="curve"/>
      <point x="101" y="895" type="line"/>
      <point x="198" y="873" type="line"/>
      <point x="227" y="1012"/>
      <point x="298" y="1120"/>
      <point x="341" y="1120" type="curve" smooth="yes"/>
      <point x="710" y="1120" type="line"/>
      <point x="49" y="55" type="line"/>
      <point x="88" y="0" type="line"/>
      <point x="1049" y="0" type="line"/>
      <point x="1051" y="78"/>
      <point x="1057" y="287"/>
    </contour>
    <contour>
      <point x="981" y="685" type="line"/>
      <point x="959" y="710" type="line"/>
      <point x="181" y="710" type="line"/>
      <point x="170" y="689"/>
      <point x="147" y="623"/>
      <point x="141" y="602" type="curve"/>
      <point x="164" y="580" type="line"/>
      <point x="942" y="580" type="line"/>
    </contour>
    <contour>
      <point x="608" y="-100" type="move" name="L"/>
    </contour>
    <contour>
      <point x="610" y="1370" type="move" name="U"/>
    </contour>
  </outline>
</glyph>
<glyph name="LtnSmZStrk" format="1">
  <advance width="976"/>
  <unicode hex="01B6"/>
  <outline>
    <contour>
      <point x="899" y="358" type="curve"/>
      <point x="822" y="378" type="line"/>
      <point x="782" y="227"/>
      <point x="765" y="130"/>
      <point x="712" y="130" type="curve" smooth="yes"/>
      <point x="395" y="130" type="line"/>
      <point x="917" y="887" type="line"/>
      <point x="895" y="930" type="line"/>
      <point x="313" y="930" type="line" smooth="yes"/>
      <point x="227" y="930"/>
      <point x="195" y="930"/>
      <point x="137" y="946" type="curve"/>
      <point x="109" y="592" type="line"/>
      <point x="188" y="570" type="line"/>
      <point x="225" y="723"/>
      <point x="282" y="800"/>
      <point x="345" y="800" type="curve" smooth="yes"/>
      <point x="576" y="800" type="line"/>
      <point x="56" y="45" type="line"/>
      <point x="82" y="0" type="line"/>
      <point x="887" y="0" type="line"/>
      <point x="895" y="47"/>
      <point x="899" y="274"/>
    </contour>
    <contour>
      <point x="835" y="503" type="line"/>
      <point x="813" y="528" type="line"/>
      <point x="175" y="528" type="line"/>
      <point x="164" y="507"/>
      <point x="145" y="451"/>
      <point x="139" y="430" type="curve"/>
      <point x="162" y="408" type="line"/>
      <point x="800" y="408" type="line"/>
    </contour>
    <contour>
      <point x="503" y="-100" type="move" name="L"/>
    </contour>
    <contour>
      <point x="511" y="1050" type="move" name="U"/>
    </contour>
  </outline>
</glyph>
<glyph name="LtnDentalClick" format="1">
  <advance width="490"/>
  <unicode hex="01C0"/>
  <outline>
    <contour>
      <point x="335" y="-438" type="curve"/>
      <point x="335" y="1518" type="line"/>
      <point x="289" y="1550" type="line"/>
      <point x="250" y="1540"/>
      <point x="192" y="1513"/>
      <point x="155" y="1491" type="curve"/>
      <point x="155" y="-467" type="line"/>
      <point x="200" y="-500" type="line"/>
      <point x="233" y="-489"/>
      <point x="311" y="-459"/>
    </contour>
    <contour>
      <point x="245" y="-600" type="move" name="L"/>
    </contour>
    <contour>
      <point x="242" y="1690" type="move" name="U"/>
    </contour>
  </outline>
</glyph>
<glyph name="LtnAlveolarClick" format="1">
  <advance width="792"/>
  <unicode hex="01C2"/>
  <outline>
    <contour>
      <point x="484" y="-438" type="curve"/>
      <point x="484" y="1518" type="line"/>
      <point x="438" y="1550" type="line"/>
      <point x="399" y="1540"/>
      <point x="341" y="1513"/>
      <point x="304" y="1491" type="curve"/>
      <point x="304" y="-467" type="line"/>
      <point x="349" y="-500" type="line"/>
      <point x="382" y="-489"/>
      <point x="460" y="-459"/>
    </contour>
    <contour>
      <point x="772" y="455" type="curve"/>
      <point x="737" y="489" type="line"/>
      <point x="63" y="489" type="line"/>
      <point x="51" y="463"/>
      <point x="27" y="412"/>
      <point x="20" y="383" type="curve"/>
      <point x="55" y="349" type="line"/>
      <point x="729" y="349" type="line"/>
      <point x="739" y="371"/>
      <point x="764" y="426"/>
    </contour>
    <contour>
      <point x="772" y="725" type="curve"/>
      <point x="737" y="759" type="line"/>
      <point x="63" y="759" type="line"/>
      <point x="51" y="733"/>
      <point x="27" y="682"/>
      <point x="20" y="653" type="curve"/>
      <point x="55" y="619" type="line"/>
      <point x="729" y="619" type="line"/>
      <point x="739" y="641"/>
      <point x="764" y="696"/>
    </contour>
    <contour>
      <point x="395" y="-600" type="move" name="L"/>
    </contour>
    <contour>
      <point x="395" y="1690" type="move" name="U"/>
    </contour>
  </outline>
</glyph>
<glyph name="LtnCapDzCaron" format="1">
  <advance width="2465"/>
  <unicode hex="01C4"/>
  <outline>
    <component base="LtnCapD"/>
    <component base="LtnCapZ" xOffset="1334"/>
    <component base="CombCaron.LP" xOffset="2468" yOffset="320"/>
    <contour>
      <point x="1899" y="-100" type="move" name="L"/>
    </contour>
    <contour>
      <point x="1921" y="1690" type="move" name="U"/>
    </contour>
  </outline>
</glyph>
<glyph name="LtnCapLSmJ" format="1">
  <advance width="1505"/>
  <unicode hex="01C8"/>
  <outline>
    <component base="LtnCapL"/>
    <component base="LtnSmJ" xOffset="975"/>
    <contour>
      <point x="496" y="0" type="move" name="H"/>
    </contour>
    <contour>
      <point x="1255" y="-600" type="move" name="L"/>
    </contour>
    <contour>
      <point x="1256" y="1049" type="move" name="U"/>
    </contour>
  </outline>
</glyph>
<glyph name="LtnCapNSmJ" format="1">
  <advance width="1859"/>
  <unicode hex="01CB"/>
  <outline>
    <component base="LtnCapN"/>
    <component base="LtnSmJ" xOffset="1329"/>
    <contour>
      <point x="1609" y="-600" type="move" name="L"/>
    </contour>
    <contour>
      <point x="683" y="0" type="move" name="H"/>
    </contour>
    <contour>
      <point x="1610" y="1049" type="move" name="U"/>
    </contour>
  </outline>
</glyph>
<glyph name="LtnSmICaron" format="1">
  <advance width="635"/>
  <unicode hex="01D0"/>
  <outline>
    <component base="LtnSmDotlessI"/>
    <component base="CombCaron" xOffset="872"/>
    <contour>
      <point x="325" y="0" type="move" name="H"/>
    </contour>
    <contour>
      <point x="325" y="-100" type="move" name="L"/>
    </contour>
    <contour>
      <point x="386" y="0" type="move" name="O"/>
    </contour>
    <contour>
      <point x="635" y="900" type="move" name="R"/>
    </contour>
    <contour>
      <point x="325" y="1450" type="move" name="U"/>
    </contour>
  </outline>
</glyph>
<glyph name="LtnCapOCaron" format="1">
  <advance width="1289"/>
  <unicode hex="01D1"/>
  <outline>
    <component base="LtnCapO"/>
    <component base="CombCaron.LP" xOffset="1193" yOffset="320"/>
    <contour>
      <point x="613" y="0" type="move" name="H"/>
    </contour>
    <contour>
      <point x="646" y="-100" type="move" name="L"/>
    </contour>
    <contour>
      <point x="712" y="0" type="move" name="O"/>
    </contour>
    <contour>
      <point x="1256" y="1100" type="move" name="R"/>
    </contour>
    <contour>
      <point x="646" y="1690" type="move" name="U"/>
    </contour>
  </outline>
</glyph>
<glyph name="LtnCapUCaron" format="1">
  <advance width="1379"/>
  <unicode hex="01D3"/>
  <outline>
    <component base="LtnCapU"/>
    <component base="CombCaron.LP" xOffset="1244" yOffset="320"/>
    <contour>
      <point x="697" y="0" type="move" name="H"/>
    </contour>
    <contour>
      <point x="697" y="-100" type="move" name="L"/>
    </contour>
    <contour>
      <point x="784" y="0" type="move" name="O"/>
    </contour>
    <contour>
      <point x="1380" y="1100" type="move" name="R"/>
    </contour>
    <contour>
      <point x="697" y="1690" type="move" name="U"/>
    </contour>
  </outline>
</glyph>
<glyph name="LtnSmUCaron" format="1">
  <advance width="1175"/>
  <unicode hex="01D4"/>
  <outline>
    <component base="LtnSmU"/>
    <component base="CombCaron" xOffset="1135"/>
    <contour>
      <point x="532" y="0" type="move" name="H"/>
    </contour>
    <contour>
      <point x="588" y="-100" type="move" name="L"/>
    </contour>
    <contour>
      <point x="886" y="0" type="move" name="O"/>
    </contour>
    <contour>
      <point x="1275" y="900" type="move" name="R"/>
    </contour>
    <contour>
      <point x="588" y="1450" type="move" name="U"/>
    </contour>
  </outline>
</glyph>
<glyph name="LtnCapUDiaerMacron" format="1">
  <advance width="1379"/>
  <unicode hex="01D5"/>
  <outline>
    <component base="LtnCapU"/>
    <component base="CombDiaer.LP" xOffset="1245" yOffset="320"/>
    <component base="CombMacron.LP" xOffset="1255" yOffset="640"/>
    <contour>
      <point x="697" y="0" type="move" name="H"/>
    </contour>
    <contour>
      <point x="784" y="0" type="move" name="O"/>
    </contour>
    <contour>
      <point x="1380" y="1100" type="move" name="R"/>
    </contour>
    <contour>
      <point x="697" y="2010" type="move" name="U"/>
    </contour>
    <contour>
      <point x="697" y="-100" type="move" name="L"/>
    </contour>
  </outline>
</glyph>
<glyph name="LtnSmUDiaerMacron" format="1">
  <advance width="1175"/>
  <unicode hex="01D6"/>
  <outline>
    <component base="LtnSmU"/>
    <component base="CombDiaer" xOffset="1136"/>
    <component base="CombMacron" xOffset="1146" yOffset="360"/>
    <contour>
      <point x="532" y="0" type="move" name="H"/>
    </contour>
    <contour>
      <point x="588" y="-100" type="move" name="L"/>
    </contour>
    <contour>
      <point x="886" y="0" type="move" name="O"/>
    </contour>
    <contour>
      <point x="1275" y="900" type="move" name="R"/>
    </contour>
    <contour>
      <point x="588" y="1770" type="move" name="U"/>
    </contour>
  </outline>
</glyph>
<glyph name="LtnCapUDiaerAcute" format="1">
  <advance width="1379"/>
  <unicode hex="01D7"/>
  <outline>
    <component base="LtnCapU"/>
    <component base="CombDiaer.LP" xOffset="1245" yOffset="320"/>
    <component base="CombAcute.LP" xOffset="1273" yOffset="640"/>
    <contour>
      <point x="697" y="0" type="move" name="H"/>
    </contour>
    <contour>
      <point x="784" y="0" type="move" name="O"/>
    </contour>
    <contour>
      <point x="1380" y="1100" type="move" name="R"/>
    </contour>
    <contour>
      <point x="697" y="2010" type="move" name="U"/>
    </contour>
    <contour>
      <point x="697" y="-100" type="move" name="L"/>
    </contour>
  </outline>
</glyph>
<glyph name="LtnSmUDiaerAcute" format="1">
  <advance width="1175"/>
  <unicode hex="01D8"/>
  <outline>
    <component base="LtnSmU"/>
    <component base="CombDiaer" xOffset="1136"/>
    <component base="CombAcute" xOffset="1128" yOffset="360"/>
    <contour>
      <point x="532" y="0" type="move" name="H"/>
    </contour>
    <contour>
      <point x="588" y="-100" type="move" name="L"/>
    </contour>
    <contour>
      <point x="886" y="0" type="move" name="O"/>
    </contour>
    <contour>
      <point x="1275" y="900" type="move" name="R"/>
    </contour>
    <contour>
      <point x="498" y="1800" type="move" name="U"/>
    </contour>
  </outline>
</glyph>
<glyph name="LtnCapADiaerMacron" format="1">
  <advance width="1309"/>
  <unicode hex="01DE"/>
  <outline>
    <component base="LtnCapA"/>
    <component base="CombDiaer.LP" xOffset="1192" yOffset="320"/>
    <component base="CombMacron.LP" xOffset="1202" yOffset="640"/>
    <contour>
      <point x="644" y="0" type="move" name="H"/>
    </contour>
    <contour>
      <point x="644" y="-100" type="move" name="L"/>
    </contour>
    <contour>
      <point x="1032" y="0" type="move" name="O"/>
    </contour>
    <contour>
      <point x="644" y="2010" type="move" name="U"/>
    </contour>
  </outline>
</glyph>
<glyph name="LtnSmADiaerMacron" format="1">
  <advance width="940"/>
  <unicode hex="01DF"/>
  <outline>
    <component base="LtnSmA"/>
    <component base="CombDiaer" xOffset="995"/>
    <component base="CombMacron" xOffset="1005" yOffset="360"/>
    <contour>
      <point x="700" y="0" type="move" name="H"/>
    </contour>
    <contour>
      <point x="460" y="-100" type="move" name="L"/>
    </contour>
    <contour>
      <point x="715" y="0" type="move" name="O"/>
    </contour>
    <contour>
      <point x="940" y="900" type="move" name="R"/>
    </contour>
    <contour>
      <point x="480" y="1770" type="move" name="U"/>
    </contour>
  </outline>
</glyph>
<glyph name="LtnCapADotAbvMacron" format="1">
  <advance width="1219"/>
  <unicode hex="01E0"/>
  <outline>
    <component base="LtnCapA"/>
    <component base="DotAbv" xOffset="399" yOffset="320"/>
    <component base="CombMacron" xOffset="1124" yOffset="680"/>
    <contour>
      <point x="1000" y="0" type="move" name="H"/>
    </contour>
    <contour>
      <point x="960" y="0" type="move" name="O"/>
    </contour>
    <contour>
      <point x="599" y="2090" type="move" name="U"/>
    </contour>
    <contour>
      <point x="599" y="-100" type="move" name="L"/>
    </contour>
  </outline>
</glyph>
<glyph name="LtnCapAeMacron" format="1">
  <advance width="1675"/>
  <unicode hex="01E2"/>
  <outline>
    <component base="LtnCapAe"/>
    <component base="CombMacron.LP" xOffset="1540" yOffset="320"/>
    <contour>
      <point x="907" y="-100" type="move" name="L"/>
    </contour>
    <contour>
      <point x="982" y="1690" type="move" name="U"/>
    </contour>
  </outline>
</glyph>
<glyph name="LtnCapGCaron" format="1">
  <advance width="1244"/>
  <unicode hex="01E6"/>
  <outline>
    <component base="LtnCapG"/>
    <component base="CombCaron.LP" xOffset="1209" yOffset="320"/>
    <contour>
      <point x="640" y="0" type="move" name="H"/>
    </contour>
    <contour>
      <point x="662" y="-100" type="move" name="L"/>
    </contour>
    <contour>
      <point x="662" y="1690" type="move" name="U"/>
    </contour>
  </outline>
</glyph>
<glyph name="LtnSmGCaron" format="1">
  <advance width="1079"/>
  <unicode hex="01E7"/>
  <outline>
    <component base="LtnSmG"/>
    <component base="CombCaron" xOffset="1080"/>
    <contour>
      <point x="533" y="-470" type="move" name="H"/>
    </contour>
    <contour>
      <point x="1079" y="900" type="move" name="R"/>
    </contour>
    <contour>
      <point x="533" y="1450" type="move" name="U"/>
    </contour>
    <contour>
      <point x="533" y="-600" type="move" name="L"/>
    </contour>
  </outline>
</glyph>
<glyph name="LtnCapOOgonekMacron" format="1">
  <advance width="1289"/>
  <unicode hex="01EC"/>
  <outline>
    <component base="LtnCapO"/>
    <component base="CombMacron.LP" xOffset="1204" yOffset="320"/>
    <component base="CombOgonek" xOffset="1209"/>
    <contour>
      <point x="613" y="0" type="move" name="H"/>
    </contour>
    <contour>
      <point x="662" y="-600" type="move" name="L"/>
    </contour>
    <contour>
      <point x="1256" y="1100" type="move" name="R"/>
    </contour>
    <contour>
      <point x="646" y="1690" type="move" name="U"/>
    </contour>
  </outline>
</glyph>
<glyph name="LtnCapEzhCaron" format="1">
  <advance width="1120"/>
  <unicode hex="01EE"/>
  <outline>
    <component base="LtnCapEzh"/>
    <component base="CombCaron.LP" xOffset="1111" yOffset="320"/>
    <contour>
      <point x="564" y="-100" type="move" name="L"/>
    </contour>
    <contour>
      <point x="564" y="1690" type="move" name="U"/>
    </contour>
  </outline>
</glyph>
<glyph name="LtnCapDz" format="1">
  <advance width="2465"/>
  <unicode hex="01F1"/>
  <outline>
    <component base="LtnCapD"/>
    <component base="LtnCapZ" xOffset="1334"/>
    <contour>
      <point x="1921" y="1370" type="move" name="U"/>
    </contour>
    <contour>
      <point x="1899" y="-100" type="move" name="L"/>
    </contour>
  </outline>
</glyph>
<glyph name="LtnCapDSmZ" format="1">
  <advance width="2310"/>
  <unicode hex="01F2"/>
  <outline>
    <component base="LtnCapD"/>
    <component base="LtnSmZ" xOffset="1334"/>
    <contour>
      <point x="1820" y="0" type="move" name="H"/>
    </contour>
    <contour>
      <point x="1820" y="-100" type="move" name="L"/>
    </contour>
    <contour>
      <point x="1851" y="1050" type="move" name="U"/>
    </contour>
  </outline>
</glyph>
<glyph name="LtnSmGAcute" format="1">
  <advance width="1079"/>
  <unicode hex="01F5"/>
  <outline>
    <component base="LtnSmG"/>
    <component base="CombAcute" xOffset="1073"/>
    <contour>
      <point x="533" y="-470" type="move" name="H"/>
    </contour>
    <contour>
      <point x="533" y="-600" type="move" name="L"/>
    </contour>
    <contour>
      <point x="1079" y="900" type="move" name="R"/>
    </contour>
    <contour>
      <point x="443" y="1440" type="move" name="U"/>
    </contour>
  </outline>
</glyph>
<glyph name="LtnSmNGrave" format="1">
  <advance width="1210"/>
  <unicode hex="01F9"/>
  <outline>
    <component base="LtnSmN"/>
    <component base="CombGrave" xOffset="1083"/>
    <contour>
      <point x="925" y="0" type="move" name="H"/>
    </contour>
    <contour>
      <point x="617" y="1410" type="move" name="U"/>
    </contour>
    <contour>
      <point x="617" y="-100" type="move" name="L"/>
    </contour>
  </outline>
</glyph>
<glyph name="LtnCapAeAcute" format="1">
  <advance width="1675"/>
  <unicode hex="01FC"/>
  <outline>
    <component base="LtnCapAe"/>
    <component base="CombAcute.LP" xOffset="1558" yOffset="320"/>
    <contour>
      <point x="982" y="1690" type="move" name="U"/>
    </contour>
    <contour>
      <point x="907" y="-100" type="move" name="L"/>
    </contour>
  </outline>
</glyph>
<glyph name="LtnCapADblGrave" format="1">
  <advance width="1309"/>
  <unicode hex="0200"/>
  <outline>
    <component base="LtnCapA"/>
    <component base="CombDblGrave" xOffset="1217" yOffset="320"/>
    <contour>
      <point x="644" y="0" type="move" name="H"/>
    </contour>
    <contour>
      <point x="644" y="-100" type="move" name="L"/>
    </contour>
    <contour>
      <point x="1032" y="0" type="move" name="O"/>
    </contour>
    <contour>
      <point x="644" y="1853" type="move" name="U"/>
    </contour>
  </outline>
</glyph>
<glyph name="LtnCapAInvBreve" format="1">
  <advance width="1309"/>
  <unicode hex="0202"/>
  <outline>
    <component base="LtnCapA"/>
    <component base="CombInvBreve" xOffset="1192" yOffset="320"/>
    <contour>
      <point x="644" y="0" type="move" name="H"/>
    </contour>
    <contour>
      <point x="644" y="-100" type="move" name="L"/>
    </contour>
    <contour>
      <point x="1032" y="0" type="move" name="O"/>
    </contour>
    <contour>
      <point x="644" y="1690" type="move" name="U"/>
    </contour>
  </outline>
</glyph>
<glyph name="LtnSmAInvBreve" format="1">
  <advance width="1050"/>
  <unicode hex="0203"/>
  <outline>
    <component base="LtnSmA"/>
    <component base="CombInvBreve" xOffset="1074"/>
    <contour>
      <point x="409" y="0" type="move" name="H"/>
    </contour>
    <contour>
      <point x="502" y="-100" type="move" name="L"/>
    </contour>
    <contour>
      <point x="800" y="0" type="move" name="O"/>
    </contour>
    <contour>
      <point x="1050" y="900" type="move" name="R"/>
    </contour>
    <contour>
      <point x="526" y="1370" type="move" name="U"/>
    </contour>
  </outline>
</glyph>
<glyph name="LtnCapIDblGrave" format="1">
  <advance width="690"/>
  <unicode hex="0208"/>
  <outline>
    <component base="LtnCapI"/>
    <component base="CombDblGrave" xOffset="908" yOffset="320"/>
    <contour>
      <point x="335" y="0" type="move" name="H"/>
    </contour>
    <contour>
      <point x="335" y="-100" type="move" name="L"/>
    </contour>
    <contour>
      <point x="396" y="0" type="move" name="O"/>
    </contour>
    <contour>
      <point x="608" y="1100" type="move" name="R"/>
    </contour>
    <contour>
      <point x="335" y="1853" type="move" name="U"/>
    </contour>
  </outline>
</glyph>
<glyph name="LtnSmODblGrave" format="1">
  <advance width="1090"/>
  <unicode hex="020D"/>
  <outline>
    <component base="LtnSmO"/>
    <component base="CombDblGrave" xOffset="1140"/>
    <contour>
      <point x="567" y="0" type="move" name="H"/>
    </contour>
    <contour>
      <point x="611" y="0" type="move" name="O"/>
    </contour>
    <contour>
      <point x="1090" y="900" type="move" name="R"/>
    </contour>
    <contour>
      <point x="567" y="1533" type="move" name="U"/>
    </contour>
    <contour>
      <point x="567" y="-100" type="move" name="L"/>
    </contour>
  </outline>
</glyph>
<glyph name="LtnCapOInvBreve" format="1">
  <advance width="1289"/>
  <unicode hex="020E"/>
  <outline>
    <component base="LtnCapO"/>
    <component base="CombInvBreve" xOffset="1194" yOffset="320"/>
    <contour>
      <point x="613" y="0" type="move" name="H"/>
    </contour>
    <contour>
      <point x="646" y="-100" type="move" name="L"/>
    </contour>
    <contour>
      <point x="712" y="0" type="move" name="O"/>
    </contour>
    <contour>
      <point x="1256" y="1100" type="move" name="R"/>
    </contour>
    <contour>
      <point x="646" y="1690" type="move" name="U"/>
    </contour>
  </outline>
</glyph>
<glyph name="LtnCapRDblGrave" format="1">
  <advance width="1269"/>
  <unicode hex="0210"/>
  <outline>
    <component base="LtnCapR"/>
    <component base="CombDblGrave" xOffset="1145" yOffset="320"/>
    <contour>
      <point x="320" y="0" type="move" name="H"/>
    </contour>
    <contour>
      <point x="572" y="-100" type="move" name="L"/>
    </contour>
    <contour>
      <point x="572" y="1853" type="move" name="U"/>
    </contour>
  </outline>
</glyph>
<glyph name="LtnSmRDblGrave" format="1">
  <advance width="941"/>
  <unicode hex="0211"/>
  <outline>
    <component base="LtnSmR"/>
    <component base="CombDblGrave" xOffset="1093"/>
    <contour>
      <point x="303" y="0" type="move" name="H"/>
    </contour>
    <contour>
      <point x="520" y="1533" type="move" name="U"/>
    </contour>
    <contour>
      <point x="303" y="-100" type="move" name="L"/>
    </contour>
  </outline>
</glyph>
<glyph name="LtnSmRInvBreve" format="1">
  <advance width="941"/>
  <unicode hex="0213"/>
  <outline>
    <component base="LtnSmR"/>
    <component base="CombInvBreve" xOffset="1068"/>
    <contour>
      <point x="303" y="0" type="move" name="H"/>
    </contour>
    <contour>
      <point x="303" y="-100" type="move" name="L"/>
    </contour>
    <contour>
      <point x="520" y="1370" type="move" name="U"/>
    </contour>
  </outline>
</glyph>
<glyph name="LtnSmUDblGrave" format="1">
  <advance width="1175"/>
  <unicode hex="0215"/>
  <outline>
    <component base="LtnSmU"/>
    <component base="CombDblGrave" xOffset="1161"/>
    <contour>
      <point x="532" y="0" type="move" name="H"/>
    </contour>
    <contour>
      <point x="588" y="-100" type="move" name="L"/>
    </contour>
    <contour>
      <point x="886" y="0" type="move" name="O"/>
    </contour>
    <contour>
      <point x="1275" y="900" type="move" name="R"/>
    </contour>
    <contour>
      <point x="588" y="1533" type="move" name="U"/>
    </contour>
  </outline>
</glyph>
<glyph name="LtnSmSCommaBlw" format="1">
  <advance width="880"/>
  <unicode hex="0219"/>
  <outline>
    <component base="LtnSmS"/>
    <component base="CombCommaBlw" xOffset="992"/>
    <contour>
      <point x="424" y="0" type="move" name="H"/>
    </contour>
    <contour>
      <point x="439" y="-600" type="move" name="L"/>
    </contour>
    <contour>
      <point x="439" y="1050" type="move" name="U"/>
    </contour>
  </outline>
</glyph>
<glyph name="LtnCapZHook" format="1">
  <advance width="1131"/>
  <unicode hex="0224"/>
  <outline>
    <contour>
      <point x="88" y="0" type="line"/>
      <point x="676" y="0" type="line" smooth="yes"/>
      <point x="786" y="0"/>
      <point x="816" y="-40"/>
      <point x="816" y="-96" type="curve" smooth="yes"/>
      <point x="816" y="-136"/>
      <point x="791" y="-203"/>
      <point x="632" y="-294" type="curve"/>
      <point x="686" y="-355" type="line"/>
      <point x="981" y="-220"/>
      <point x="1078" y="-119"/>
      <point x="1081" y="-9" type="curve" smooth="yes"/>
      <point x="1083" y="79"/>
      <point x="1026" y="140"/>
      <point x="834" y="140" type="curve" smooth="yes"/>
      <point x="396" y="140" type="line"/>
      <point x="1051" y="1207" type="line"/>
      <point x="1016" y="1260" type="line"/>
      <point x="330" y="1260" type="line" smooth="yes"/>
      <point x="252" y="1260"/>
      <point x="213" y="1260"/>
      <point x="140" y="1276" type="curve"/>
      <point x="101" y="895" type="line"/>
      <point x="198" y="873" type="line"/>
      <point x="227" y="1012"/>
      <point x="298" y="1120"/>
      <point x="341" y="1120" type="curve" smooth="yes"/>
      <point x="710" y="1120" type="line"/>
      <point x="49" y="55" type="line"/>
    </contour>
    <contour>
      <point x="533" y="-600" type="move" name="L"/>
    </contour>
    <contour>
      <point x="556" y="1370" type="move" name="U"/>
    </contour>
  </outline>
</glyph>
<glyph name="LtnCapODotAbv" format="1">
  <advance width="1289"/>
  <unicode hex="022E"/>
  <outline>
    <component base="LtnCapO"/>
    <component base="CombDotAbv.LP" xOffset="1194" yOffset="320"/>
    <contour>
      <point x="613" y="0" type="move" name="H"/>
    </contour>
    <contour>
      <point x="712" y="0" type="move" name="O"/>
    </contour>
    <contour>
      <point x="1256" y="1100" type="move" name="R"/>
    </contour>
    <contour>
      <point x="646" y="1690" type="move" name="U"/>
    </contour>
    <contour>
      <point x="646" y="-100" type="move" name="L"/>
    </contour>
  </outline>
</glyph>
<glyph name="LtnSmODotAbvMacron" format="1">
  <advance width="1090"/>
  <unicode hex="0231"/>
  <outline>
    <component base="LtnSmO"/>
    <component base="CombDotAbv" xOffset="1115"/>
    <component base="CombMacron" xOffset="1125" yOffset="360"/>
    <contour>
      <point x="567" y="0" type="move" name="H"/>
    </contour>
    <contour>
      <point x="567" y="-100" type="move" name="L"/>
    </contour>
    <contour>
      <point x="611" y="0" type="move" name="O"/>
    </contour>
    <contour>
      <point x="1090" y="900" type="move" name="R"/>
    </contour>
    <contour>
      <point x="567" y="1770" type="move" name="U"/>
    </contour>
  </outline>
</glyph>
<glyph name="LtnSmLCurl" format="1">
  <advance width="835"/>
  <unicode hex="0234"/>
  <outline>
    <contour>
      <point x="460" y="1506" type="line"/>
      <point x="414" y="1550" type="line"/>
      <point x="326" y="1511"/>
      <point x="156" y="1479"/>
      <point x="60" y="1470" type="curve"/>
      <point x="60" y="1390" type="line"/>
      <point x="172" y="1377"/>
      <point x="190" y="1377"/>
      <point x="190" y="1256" type="curve" smooth="yes"/>
      <point x="190" y="330" type="line" smooth="yes"/>
      <point x="190" y="124"/>
      <point x="247" y="-30"/>
      <point x="484" y="-30" type="curve" smooth="yes"/>
      <point x="720" y="-30"/>
      <point x="865" y="111"/>
      <point x="865" y="264" type="curve" smooth="yes"/>
      <point x="865" y="378"/>
      <point x="802" y="496"/>
      <point x="627" y="496" type="curve" smooth="yes"/>
      <point x="473" y="496"/>
      <point x="144" y="316"/>
      <point x="-35" y="-133" type="curve"/>
      <point x="67" y="-180" type="line"/>
      <point x="185" y="104"/>
      <point x="378" y="324"/>
      <point x="565" y="324" type="curve" smooth="yes"/>
      <point x="649" y="324"/>
      <point x="680" y="261"/>
      <point x="680" y="213" type="curve" smooth="yes"/>
      <point x="680" y="142"/>
      <point x="638" y="90"/>
      <point x="574" y="90" type="curve" smooth="yes"/>
      <point x="494" y="90"/>
      <point x="460" y="155"/>
      <point x="460" y="424" type="curve" smooth="yes"/>
    </contour>
    <contour>
      <point x="401" y="1690" type="move" name="U"/>
    </contour>
    <contour>
      <point x="445" y="-100" type="move" name="L"/>
    </contour>
  </outline>
</glyph>
<glyph name="LtnSmDotlessJ" format="1">
  <advance width="610"/>
  <unicode hex="0237"/>
  <outline>
    <component base="LtnSmJ.Dotless"/>
    <contour>
      <point x="320" y="-600" type="move" name="L"/>
    </contour>
    <contour>
      <point x="320" y="1050" type="move" name="U"/>
    </contour>
  </outline>
</glyph>
<glyph name="LtnCapLBar" format="1">
  <advance width="1065"/>
  <unicode hex="023D"/>
  <outline>
    <contour>
      <point x="795" y="642" type="line"/>
      <point x="770" y="665" type="line"/>
      <point x="65" y="665" type="line"/>
      <point x="57" y="644"/>
      <point x="34" y="579"/>
      <point x="28" y="559" type="curve"/>
      <point x="50" y="535" type="line"/>
      <point x="755" y="535" type="line"/>
    </contour>
    <component base="LtnCapL"/>
    <contour>
      <point x="536" y="-100" type="move" name="L"/>
    </contour>
    <contour>
      <point x="505" y="1370" type="move" name="U"/>
    </contour>
  </outline>
</glyph>
<glyph name="LtnSmOpnO" format="1">
  <advance width="995"/>
  <unicode hex="0254"/>
  <outline>
    <contour>
      <point x="935" y="490" type="curve" smooth="yes"/>
      <point x="935" y="787"/>
      <point x="723" y="960"/>
      <point x="499" y="960" type="curve" smooth="yes"/>
      <point x="346" y="960"/>
      <point x="215" y="911"/>
      <point x="83" y="739" type="curve"/>
      <point x="89" y="728"/>
      <point x="126" y="677"/>
      <point x="143" y="669" type="curve"/>
      <point x="260" y="767"/>
      <point x="332" y="780"/>
      <point x="408" y="780" type="curve" smooth="yes"/>
      <point x="528" y="780"/>
      <point x="665" y="687"/>
      <point x="665" y="460" type="curve" smooth="yes"/>
      <point x="665" y="210"/>
      <point x="594" y="100"/>
      <point x="484" y="100" type="curve" smooth="yes"/>
      <point x="400" y="100"/>
      <point x="350" y="167"/>
      <point x="350" y="252" type="curve" smooth="yes"/>
      <point x="350" y="309"/>
      <point x="386" y="374"/>
      <point x="423" y="409" type="curve"/>
      <point x="392" y="486" type="line"/>
      <point x="341" y="476"/>
      <point x="160" y="425"/>
      <point x="110" y="409" type="curve"/>
      <point x="82" y="380"/>
      <point x="60" y="321"/>
      <point x="60" y="258" type="curve" smooth="yes"/>
      <point x="60" y="94"/>
      <point x="223" y="-30"/>
      <point x="453" y="-30" type="curve" smooth="yes"/>
      <point x="731" y="-30"/>
      <point x="935" y="204"/>
    </contour>
    <contour>
      <point x="457" y="0" type="move" name="H"/>
    </contour>
    <contour>
      <point x="497" y="-100" type="move" name="L"/>
    </contour>
    <contour>
      <point x="513" y="0" type="move" name="O"/>
    </contour>
    <contour>
      <point x="995" y="900" type="move" name="R"/>
    </contour>
    <contour>
      <point x="497" y="1050" type="move" name="U"/>
    </contour>
  </outline>
</glyph>
<glyph name="LtnSmTurnedRLngLeg" format="1">
  <advance width="934"/>
  <unicode hex="027A"/>
  <outline>
    <contour>
      <point x="775" y="1506" type="line"/>
      <point x="729" y="1550" type="line"/>
      <point x="617" y="1507"/>
      <point x="523" y="1489"/>
      <point x="377" y="1470" type="curve"/>
      <point x="377" y="1390" type="line"/>
      <point x="489" y="1377"/>
      <point x="507" y="1377"/>
      <point x="507" y="1256" type="curve" smooth="yes"/>
      <point x="507" y="334" type="line"/>
      <point x="423" y="177"/>
      <point x="358" y="170"/>
      <point x="309" y="170" type="curve" smooth="yes"/>
      <point x="239" y="170"/>
      <point x="204" y="276"/>
      <point x="198" y="384" type="curve"/>
      <point x="115" y="384" type="line"/>
      <point x="82" y="312"/>
      <point x="17" y="32"/>
      <point x="42" y="17" type="curve" smooth="yes"/>
      <point x="91" y="-11"/>
      <point x="152" y="-30"/>
      <point x="205" y="-30" type="curve" smooth="yes"/>
      <point x="320" y="-30"/>
      <point x="435" y="44"/>
      <point x="507" y="132" type="curve"/>
      <point x="520" y="15" type="line"/>
      <point x="565" y="-30" type="line"/>
      <point x="691" y="7"/>
      <point x="739" y="18"/>
      <point x="905" y="40" type="curve"/>
      <point x="905" y="120" type="line"/>
      <point x="831" y="124"/>
      <point x="816" y="129"/>
      <point x="798" y="147" type="curve" smooth="yes"/>
      <point x="786" y="159"/>
      <point x="775" y="187"/>
      <point x="775" y="275" type="curve" smooth="yes"/>
    </contour>
    <contour>
      <point x="448" y="-100" type="move" name="L"/>
    </contour>
    <contour>
      <point x="418" y="1690" type="move" name="U"/>
    </contour>
  </outline>
</glyph>
<glyph name="LtnSmTRetrHook" format="1">
  <advance width="775"/>
  <unicode hex="0288"/>
  <outline>
    <contour>
      <point x="420" y="795" type="line"/>
      <point x="502" y="795" type="line" smooth="yes"/>
      <point x="561" y="795"/>
      <point x="633" y="776"/>
      <point x="665" y="760" type="curve"/>
      <point x="692" y="782"/>
      <point x="741" y="844"/>
      <point x="766" y="891" type="curve"/>
      <point x="727" y="930" type="line"/>
      <point x="420" y="930" type="line"/>
      <point x="420" y="1255" type="line"/>
      <point x="379" y="1290" type="line"/>
      <point x="150" y="1126" type="line"/>
      <point x="150" y="930" type="line"/>
      <point x="78" y="930" type="line"/>
      <point x="0" y="833" type="line"/>
      <point x="31" y="795" type="line"/>
      <point x="150" y="795" type="line"/>
      <point x="150" y="-217" type="line" smooth="yes"/>
      <point x="150" y="-361"/>
      <point x="231" y="-500"/>
      <point x="453" y="-500" type="curve" smooth="yes"/>
      <point x="705" y="-500"/>
      <point x="859" y="-296"/>
      <point x="859" y="-187" type="curve"/>
      <point x="829" y="-126" type="line"/>
      <point x="766" y="-120"/>
      <point x="573" y="-196"/>
      <point x="582" y="-212" type="curve" smooth="yes"/>
      <point x="621" y="-285"/>
      <point x="581" y="-375"/>
      <point x="507" y="-375" type="curve" smooth="yes"/>
      <point x="441" y="-375"/>
      <point x="420" y="-309"/>
      <point x="420" y="-146" type="curve" smooth="yes"/>
    </contour>
    <contour>
      <point x="396" y="-600" type="move" name="L"/>
    </contour>
    <contour>
      <point x="570" y="900" type="move" name="R"/>
    </contour>
    <contour>
      <point x="378" y="1320" type="move" name="U"/>
    </contour>
  </outline>
</glyph>
<glyph name="LtnSmTurnedV" format="1">
  <advance width="1060"/>
  <unicode hex="028C"/>
  <outline>
    <contour>
      <point x="100" y="102"/>
      <point x="20" y="83" type="curve"/>
      <point x="20" y="0" type="line"/>
      <point x="343" y="0" type="line"/>
      <point x="343" y="83" type="line"/>
      <point x="255" y="98"/>
      <point x="252" y="111"/>
      <point x="269" y="151" type="curve" smooth="yes"/>
      <point x="463" y="608" type="line"/>
      <point x="666" y="151" type="line" smooth="yes"/>
      <point x="685" y="109"/>
      <point x="676" y="96"/>
      <point x="573" y="83" type="curve"/>
      <point x="573" y="0" type="line"/>
      <point x="1049" y="0" type="line"/>
      <point x="1049" y="83" type="line"/>
      <point x="983" y="98"/>
      <point x="964" y="115"/>
      <point x="948" y="151" type="curve" smooth="yes"/>
      <point x="588" y="960" type="line"/>
      <point x="513" y="942"/>
      <point x="427" y="900"/>
      <point x="403" y="841" type="curve" smooth="yes"/>
      <point x="120" y="151" type="line" smooth="yes"/>
      <point x="104" y="113"/>
    </contour>
    <contour>
      <point x="848" y="0" type="move" name="H"/>
    </contour>
    <contour>
      <point x="534" y="-100" type="move" name="L"/>
    </contour>
    <contour>
      <point x="763" y="0" type="move" name="O"/>
    </contour>
    <contour>
      <point x="824" y="900" type="move" name="R"/>
    </contour>
    <contour>
      <point x="534" y="1050" type="move" name="U"/>
    </contour>
  </outline>
</glyph>
<glyph name="LtnSmTurnedW" format="1">
  <advance width="1476"/>
  <unicode hex="028D"/>
  <outline>
    <contour>
      <point x="11" y="83" type="curve"/>
      <point x="11" y="0" type="line"/>
      <point x="336" y="0" type="line"/>
      <point x="336" y="83" type="line"/>
      <point x="244" y="98"/>
      <point x="249" y="115"/>
      <point x="259" y="145" type="curve" smooth="yes"/>
      <point x="393" y="563" type="line"/>
      <point x="642" y="0" type="line"/>
      <point x="658" y="0"/>
      <point x="715" y="0"/>
      <point x="715" y="0" type="curve"/>
      <point x="773" y="334" type="line"/>
      <point x="479" y="960" type="line"/>
      <point x="445" y="952"/>
      <point x="349" y="930"/>
      <point x="332" y="871" type="curve"/>
      <point x="111" y="145" type="line" smooth="yes"/>
      <point x="101" y="114"/>
      <point x="83" y="102"/>
    </contour>
    <contour>
      <point x="645" y="185" type="line"/>
      <point x="646" y="0" type="line"/>
      <point x="646" y="0"/>
      <point x="703" y="0"/>
      <point x="721" y="0" type="curve"/>
      <point x="958" y="563" type="line"/>
      <point x="1095" y="145" type="line"/>
      <point x="1104" y="120"/>
      <point x="1100" y="96"/>
      <point x="990" y="83" type="curve"/>
      <point x="990" y="0" type="line"/>
      <point x="1466" y="0" type="line"/>
      <point x="1466" y="83" type="line"/>
      <point x="1400" y="98"/>
      <point x="1365" y="121"/>
      <point x="1357" y="145" type="curve" smooth="yes"/>
      <point x="1085" y="960" type="line"/>
      <point x="1050" y="952"/>
      <point x="962" y="932"/>
      <point x="942" y="871" type="curve"/>
    </contour>
    <contour>
      <point x="724" y="-100" type="move" name="L"/>
    </contour>
    <contour>
      <point x="724" y="1050" type="move" name="U"/>
    </contour>
  </outline>
</glyph>
<glyph name="LtnSmZCurl" format="1">
  <advance width="1068"/>
  <unicode hex="0291"/>
  <outline>
    <contour>
      <point x="863" y="433" type="curve" smooth="yes"/>
      <point x="645" y="433"/>
      <point x="516" y="195"/>
      <point x="474" y="-203" type="curve"/>
      <point x="579" y="-214" type="line"/>
      <point x="609" y="50"/>
      <point x="682" y="272"/>
      <point x="806" y="272" type="curve" smooth="yes"/>
      <point x="865" y="272"/>
      <point x="889" y="240"/>
      <point x="889" y="210" type="curve" smooth="yes"/>
      <point x="889" y="150"/>
      <point x="835" y="130"/>
      <point x="707" y="130" type="curve" smooth="yes"/>
      <point x="395" y="130" type="line"/>
      <point x="917" y="887" type="line"/>
      <point x="895" y="930" type="line"/>
      <point x="313" y="930" type="line" smooth="yes"/>
      <point x="227" y="930"/>
      <point x="195" y="930"/>
      <point x="137" y="946" type="curve"/>
      <point x="109" y="592" type="line"/>
      <point x="188" y="570" type="line"/>
      <point x="215" y="693"/>
      <point x="272" y="800"/>
      <point x="345" y="800" type="curve" smooth="yes"/>
      <point x="576" y="800" type="line"/>
      <point x="56" y="45" type="line"/>
      <point x="82" y="0" type="line"/>
      <point x="730" y="0" type="line"/>
      <point x="935" y="0"/>
      <point x="1032" y="140"/>
      <point x="1032" y="256" type="curve" smooth="yes"/>
      <point x="1032" y="350"/>
      <point x="985" y="433"/>
    </contour>
    <contour>
      <point x="498" y="-100" type="move" name="L"/>
    </contour>
    <contour>
      <point x="553" y="1050" type="move" name="U"/>
    </contour>
  </outline>
</glyph>
<glyph name="ModSmJ" format="1">
  <advance width="371"/>
  <unicode hex="02B2"/>
  <outline>
    <contour>
      <point x="266" y="1373" type="curve" smooth="yes"/>
      <point x="266" y="1415"/>
      <point x="242" y="1440"/>
      <point x="197" y="1440" type="curve" smooth="yes"/>
      <point x="147" y="1440"/>
      <point x="106" y="1399"/>
      <point x="106" y="1348" type="curve" smooth="yes"/>
      <point x="106" y="1306"/>
      <point x="128" y="1280"/>
      <point x="175" y="1280" type="curve" smooth="yes"/>
      <point x="226" y="1280"/>
      <point x="266" y="1323"/>
    </contour>
    <contour>
      <point x="245" y="1196" type="line"/>
      <point x="219" y="1196" type="line"/>
      <point x="160" y="1175"/>
      <point x="108" y="1160"/>
      <point x="31" y="1148" type="curve"/>
      <point x="31" y="1114" type="line"/>
      <point x="118" y="1107"/>
      <point x="119" y="1098"/>
      <point x="119" y="1012" type="curve" smooth="yes"/>
      <point x="119" y="646" type="line" smooth="yes"/>
      <point x="119" y="462"/>
      <point x="71" y="411"/>
      <point x="17" y="411" type="curve" smooth="yes"/>
      <point x="-18" y="411"/>
      <point x="-49" y="416"/>
      <point x="-79" y="438" type="curve"/>
      <point x="-106" y="427"/>
      <point x="-168" y="375"/>
      <point x="-168" y="361" type="curve" smooth="yes"/>
      <point x="-168" y="348"/>
      <point x="-109" y="320"/>
      <point x="-52" y="320" type="curve" smooth="yes"/>
      <point x="-6" y="320"/>
      <point x="61" y="346"/>
      <point x="111" y="380" type="curve" smooth="yes"/>
      <point x="185" y="432"/>
      <point x="245" y="495"/>
      <point x="245" y="679" type="curve" smooth="yes"/>
    </contour>
    <contour>
      <point x="114" y="258" type="move" name="L"/>
    </contour>
    <contour>
      <point x="183" y="1286" type="move" name="U"/>
    </contour>
  </outline>
</glyph>
<glyph name="ModLftHalfRing" format="1">
  <advance width="574"/>
  <unicode hex="02BF"/>
  <outline>
    <component base="ModCntrdLftHalfRing" yOffset="700"/>
    <contour>
      <point x="295" y="-100" type="move" name="L"/>
    </contour>
    <contour>
      <point x="295" y="1620" type="move" name="U"/>
    </contour>
  </outline>
</glyph>
<glyph name="ModRtArrwhd" format="1">
  <advance width="759"/>
  <unicode hex="02C3"/>
  <outline>
    <contour>
      <point x="714" y="1196" type="curve"/>
      <point x="691" y="1225" type="line"/>
      <point x="145" y="1430" type="line"/>
      <point x="126" y="1414"/>
      <point x="76" y="1376"/>
      <point x="52" y="1357" type="curve"/>
      <point x="67" y="1319" type="line"/>
      <point x="675" y="1092" type="line"/>
      <point x="685" y="1113"/>
      <point x="710" y="1163"/>
    </contour>
    <contour>
      <point x="714" y="1196" type="curve"/>
      <point x="664" y="1220" type="line"/>
      <point x="76" y="1000" type="line"/>
      <point x="68" y="981"/>
      <point x="52" y="925"/>
      <point x="45" y="904" type="curve"/>
      <point x="79" y="869" type="line"/>
      <point x="675" y="1092" type="line"/>
      <point x="689" y="1111"/>
      <point x="709" y="1173"/>
    </contour>
  </outline>
</glyph>
<glyph name="ModDwnArrwhd" format="1">
  <advance width="657"/>
  <unicode hex="02C5"/>
  <outline>
    <contour>
      <point x="289" y="856" type="line"/>
      <point x="313" y="867"/>
      <point x="368" y="892"/>
      <point x="390" y="912" type="curve"/>
      <point x="632" y="1424" type="line"/>
      <point x="611" y="1446" type="line"/>
      <point x="594" y="1439"/>
      <point x="515" y="1408"/>
      <point x="497" y="1391" type="curve"/>
      <point x="342" y="1056" type="line"/>
      <point x="151" y="1429" type="line"/>
      <point x="122" y="1448" type="line"/>
      <point x="93" y="1437"/>
      <point x="45" y="1407"/>
      <point x="25" y="1391" type="curve"/>
    </contour>
  </outline>
</glyph>
<glyph name="ModTriangularColon" format="1">
  <advance width="572"/>
  <unicode hex="02D0"/>
  <outline>
    <contour>
      <point x="482" y="930" type="line"/>
      <point x="90" y="930" type="line"/>
      <point x="286" y="549" type="line"/>
    </contour>
    <contour>
      <point x="90" y="0" type="line"/>
      <point x="482" y="0" type="line"/>
      <point x="286" y="381" type="line"/>
    </contour>
    <contour>
      <point x="286" y="-100" type="move" name="L"/>
    </contour>
    <contour>
      <point x="286" y="1050" type="move" name="U"/>
    </contour>
  </outline>
</glyph>
<glyph name="ModPlusSgn" format="1">
  <advance width="639"/>
  <unicode hex="02D6"/>
  <outline>
    <contour>
      <point x="609" y="547" type="curve"/>
      <point x="584" y="571" type="line"/>
      <point x="67" y="571" type="line"/>
      <point x="55" y="545"/>
      <point x="37" y="505"/>
      <point x="30" y="476" type="curve"/>
      <point x="55" y="452" type="line"/>
      <point x="573" y="452" type="line"/>
      <point x="583" y="474"/>
      <point x="601" y="518"/>
    </contour>
    <contour>
      <point x="360" y="750" type="line"/>
      <point x="331" y="742"/>
      <point x="277" y="734"/>
      <point x="255" y="724" type="curve"/>
      <point x="255" y="299" type="line"/>
      <point x="279" y="274" type="line"/>
      <point x="308" y="281"/>
      <point x="358" y="289"/>
      <point x="384" y="301" type="curve"/>
      <point x="384" y="725" type="line"/>
    </contour>
  </outline>
</glyph>
<glyph name="ModMinusSgn" format="1">
  <advance width="740"/>
  <unicode hex="02D7"/>
  <outline>
    <component base="HyphenMinus"/>
    <contour>
      <point x="345" y="1050" type="move" name="U"/>
    </contour>
  </outline>
</glyph>
<glyph name="ModLowUpArrwhd" format="1">
  <advance width="515"/>
  <unicode hex="02F0"/>
  <outline>
    <contour>
      <point x="290" y="-144" type="line"/>
      <point x="273" y="-152"/>
      <point x="235" y="-169"/>
      <point x="219" y="-183" type="curve"/>
      <point x="50" y="-541" type="line"/>
      <point x="64" y="-557" type="line"/>
      <point x="76" y="-552"/>
      <point x="132" y="-530"/>
      <point x="144" y="-518" type="curve"/>
      <point x="253" y="-284" type="line"/>
      <point x="386" y="-545" type="line"/>
      <point x="407" y="-558" type="line"/>
      <point x="427" y="-551"/>
      <point x="461" y="-530"/>
      <point x="475" y="-518" type="curve"/>
    </contour>
  </outline>
</glyph>
<glyph name="ModLowRtArrwhd" format="1">
  <advance width="568"/>
  <unicode hex="02F2"/>
  <outline>
    <contour>
      <point x="523" y="-339" type="curve"/>
      <point x="507" y="-319" type="line"/>
      <point x="125" y="-175" type="line"/>
      <point x="111" y="-186"/>
      <point x="76" y="-213"/>
      <point x="60" y="-226" type="curve"/>
      <point x="70" y="-253" type="line"/>
      <point x="496" y="-412" type="line"/>
      <point x="503" y="-397"/>
      <point x="520" y="-362"/>
      <point x="523" y="-339" type="curve"/>
      <point x="488" y="-322" type="line"/>
      <point x="76" y="-476" type="line"/>
      <point x="71" y="-489"/>
      <point x="60" y="-529"/>
      <point x="55" y="-543" type="curve"/>
      <point x="78" y="-568" type="line"/>
      <point x="496" y="-412" type="line"/>
      <point x="505" y="-398"/>
      <point x="519" y="-355"/>
    </contour>
  </outline>
</glyph>
<glyph name="ModMiddleDblGraveAccent" format="1">
  <advance width="817"/>
  <unicode hex="02F5"/>
  <outline>
    <contour>
      <point x="670" y="488" type="line"/>
      <point x="692" y="493"/>
      <point x="741" y="519"/>
      <point x="767" y="535" type="curve"/>
      <point x="621" y="960" type="line"/>
      <point x="588" y="956"/>
      <point x="459" y="945"/>
      <point x="432" y="935" type="curve"/>
      <point x="400" y="874" type="line"/>
    </contour>
    <contour>
      <point x="340" y="488" type="line"/>
      <point x="362" y="493"/>
      <point x="411" y="519"/>
      <point x="437" y="535" type="curve"/>
      <point x="291" y="960" type="line"/>
      <point x="258" y="956"/>
      <point x="129" y="945"/>
      <point x="102" y="935" type="curve"/>
      <point x="70" y="874" type="line"/>
    </contour>
    <contour>
      <point x="392" y="1050" type="move" name="U"/>
    </contour>
  </outline>
</glyph>
<glyph name="ModMiddleDblAcuteAccent" format="1">
  <advance width="817"/>
  <unicode hex="02F6"/>
  <outline>
    <contour>
      <point x="747" y="874" type="line"/>
      <point x="715" y="935" type="line"/>
      <point x="688" y="945"/>
      <point x="559" y="956"/>
      <point x="526" y="960" type="curve"/>
      <point x="380" y="535" type="line"/>
      <point x="406" y="519"/>
      <point x="455" y="493"/>
      <point x="477" y="488" type="curve"/>
    </contour>
    <contour>
      <point x="417" y="874" type="line"/>
      <point x="385" y="935" type="line"/>
      <point x="358" y="945"/>
      <point x="229" y="956"/>
      <point x="196" y="960" type="curve"/>
      <point x="50" y="535" type="line"/>
      <point x="76" y="519"/>
      <point x="125" y="493"/>
      <point x="147" y="488" type="curve"/>
    </contour>
  </outline>
</glyph>
<glyph name="ModBeginHighTn" format="1">
  <advance width="631"/>
  <unicode hex="02F9"/>
  <outline>
    <contour>
      <point x="50" y="1240" type="line"/>
      <point x="50" y="586" type="line"/>
      <point x="137" y="586" type="line"/>
      <point x="137" y="1153" type="line"/>
      <point x="581" y="1153" type="line"/>
      <point x="581" y="1240" type="line"/>
    </contour>
  </outline>
</glyph>
<glyph name="CombCircum" format="1">
  <advance width="0"/>
  <unicode hex="0302"/>
  <outline>
    <contour>
      <point x="-201" y="1112" type="curve"/>
      <point x="-473" y="1501" type="line"/>
      <point x="-620" y="1501" type="line"/>
      <point x="-904" y="1112" type="line"/>
      <point x="-885" y="1087"/>
      <point x="-851" y="1047"/>
      <point x="-829" y="1037" type="curve"/>
      <point x="-548" y="1245" type="line"/>
      <point x="-264" y="1037" type="line"/>
      <point x="-241" y="1047"/>
      <point x="-217" y="1087"/>
    </contour>
    <contour>
      <point x="-547" y="1500" type="move" name="U"/>
    </contour>
    <contour>
      <point x="-547" y="1050" type="move" name="_U"/>
    </contour>
  </outline>
</glyph>
<glyph name="CombMacron" format="1">
  <advance width="0"/>
  <unicode hex="0304"/>
  <outline>
    <contour>
      <point x="-111" y="1286"/>
      <point x="-103" y="1315" type="curve"/>
      <point x="-138" y="1349" type="line"/>
      <point x="-952" y="1349" type="line"/>
      <point x="-964" y="1323"/>
      <point x="-1006" y="1238"/>
      <point x="-1013" y="1209" type="curve"/>
      <point x="-978" y="1175" type="line"/>
      <point x="-164" y="1175" type="line"/>
      <point x="-154" y="1197"/>
    </contour>
    <contour>
      <point x="-558" y="1410" type="move" name="U"/>
    </contour>
    <contour>
      <point x="-558" y="1050" type="move" name="_U"/>
    </contour>
  </outline>
</glyph>
<glyph name="CombOverline" format="1">
  <advance width="0"/>
  <unicode hex="0305"/>
  <outline>
    <contour>
      <point x="93" y="1293" type="curve"/>
      <point x="58" y="1327" type="line"/>
      <point x="-1053" y="1327" type="line"/>
      <point x="-1065" y="1301"/>
      <point x="-1107" y="1216"/>
      <point x="-1114" y="1187" type="curve"/>
      <point x="-1079" y="1153" type="line"/>
      <point x="32" y="1153" type="line"/>
      <point x="42" y="1175"/>
      <point x="85" y="1264"/>
    </contour>
    <contour>
      <point x="-515" y="1410" type="move" name="U"/>
    </contour>
    <contour>
      <point x="-515" y="1050" type="move" name="_U"/>
    </contour>
  </outline>
</glyph>
<glyph name="CombDotAbv" format="1">
  <advance width="0"/>
  <unicode hex="0307"/>
  <outline>
    <contour>
      <point x="-398" y="1270" type="curve" smooth="yes"/>
      <point x="-398" y="1357"/>
      <point x="-448" y="1400"/>
      <point x="-528" y="1400" type="curve" smooth="yes"/>
      <point x="-616" y="1400"/>
      <point x="-698" y="1316"/>
      <point x="-698" y="1210" type="curve" smooth="yes"/>
      <point x="-698" y="1125"/>
      <point x="-651" y="1080"/>
      <point x="-568" y="1080" type="curve" smooth="yes"/>
      <point x="-476" y="1080"/>
      <point x="-398" y="1165"/>
    </contour>
    <contour>
      <point x="-548" y="1410" type="move" name="U"/>
    </contour>
    <contour>
      <point x="-548" y="1050" type="move" name="_U"/>
    </contour>
  </outline>
</glyph>
<glyph name="CombDblAcute" format="1">
  <advance width="0"/>
  <unicode hex="030B"/>
  <outline>
    <contour>
      <point x="-94" y="1423" type="line"/>
      <point x="-126" y="1484" type="line"/>
      <point x="-153" y="1494"/>
      <point x="-282" y="1505"/>
      <point x="-315" y="1509" type="curve"/>
      <point x="-461" y="1084" type="line"/>
      <point x="-435" y="1068"/>
      <point x="-386" y="1042"/>
      <point x="-364" y="1037" type="curve"/>
    </contour>
    <contour>
      <point x="-424" y="1423" type="line"/>
      <point x="-456" y="1484" type="line"/>
      <point x="-483" y="1494"/>
      <point x="-612" y="1505"/>
      <point x="-645" y="1509" type="curve"/>
      <point x="-791" y="1084" type="line"/>
      <point x="-765" y="1068"/>
      <point x="-716" y="1042"/>
      <point x="-694" y="1037" type="curve"/>
    </contour>
    <contour>
      <point x="-533" y="1588" type="move" name="U"/>
    </contour>
    <contour>
      <point x="-533" y="1050" type="move" name="_U"/>
    </contour>
  </outline>
</glyph>
<glyph name="CombTrndCommaAbv" format="1">
  <advance width="0"/>
  <unicode hex="0312"/>
  <outline>
    <contour>
      <point x="-715" y="1239" type="curve" smooth="yes"/>
      <point x="-715" y="1171"/>
      <point x="-689" y="1091"/>
      <point x="-616" y="1060" type="curve"/>
      <point x="-544" y="1055"/>
      <point x="-393" y="1109"/>
      <point x="-333" y="1165" type="curve"/>
      <point x="-351" y="1237" type="line"/>
      <point x="-466" y="1238"/>
      <point x="-520" y="1286"/>
      <point x="-520" y="1347" type="curve" smooth="yes"/>
      <point x="-520" y="1408"/>
      <point x="-491" y="1450"/>
      <point x="-435" y="1501" type="curve"/>
      <point x="-494" y="1557" type="line"/>
      <point x="-623" y="1476"/>
      <point x="-715" y="1361"/>
    </contour>
    <contour>
      <point x="-524" y="1370" type="move" name="U"/>
    </contour>
    <contour>
      <point x="-524" y="1050" type="move" name="_U"/>
    </contour>
  </outline>
</glyph>
<glyph name="CombAcuteBlw" format="1">
  <advance width="0"/>
  <unicode hex="0317"/>
  <outline>
    <contour>
      <point x="-261" y="-293" type="line"/>
      <point x="-267" y="-226" type="line"/>
      <point x="-286" y="-203"/>
      <point x="-441" y="-107"/>
      <point x="-468" y="-89" type="curve"/>
      <point x="-843" y="-427" type="line"/>
      <point x="-827" y="-454"/>
      <point x="-791" y="-496"/>
      <point x="-769" y="-507" type="curve"/>
    </contour>
    <contour>
      <point x="-533" y="-600" type="move" name="L"/>
    </contour>
    <contour>
      <point x="-533" y="-100" type="move" name="_L"/>
    </contour>
  </outline>
</glyph>
<glyph name="CombLftTackBlw" format="1">
  <advance width="0"/>
  <unicode hex="0318"/>
  <outline>
    <contour>
      <point x="-389" y="-76" type="line"/>
      <point x="-418" y="-84"/>
      <point x="-462" y="-102"/>
      <point x="-484" y="-112" type="curve"/>
      <point x="-484" y="-500" type="line"/>
      <point x="-460" y="-525" type="line"/>
      <point x="-431" y="-518"/>
      <point x="-391" y="-500"/>
      <point x="-365" y="-488" type="curve"/>
      <point x="-365" y="-101" type="line"/>
    </contour>
    <contour>
      <point x="-744" y="-364" type="line"/>
      <point x="-410" y="-364" type="line"/>
      <point x="-398" y="-338"/>
      <point x="-390" y="-298"/>
      <point x="-383" y="-269" type="curve"/>
      <point x="-408" y="-245" type="line"/>
      <point x="-733" y="-245" type="line"/>
      <point x="-743" y="-267"/>
      <point x="-761" y="-311"/>
      <point x="-769" y="-340" type="curve"/>
    </contour>
    <contour>
      <point x="-548" y="-600" type="move" name="L"/>
    </contour>
    <contour>
      <point x="-548" y="-100" type="move" name="_L"/>
    </contour>
  </outline>
</glyph>
<glyph name="CombRtTackBlw" format="1">
  <advance width="0"/>
  <unicode hex="0319"/>
  <outline>
    <contour>
      <point x="-637" y="-76" type="line"/>
      <point x="-666" y="-84"/>
      <point x="-710" y="-102"/>
      <point x="-732" y="-112" type="curve"/>
      <point x="-732" y="-500" type="line"/>
      <point x="-708" y="-525" type="line"/>
      <point x="-679" y="-518"/>
      <point x="-639" y="-500"/>
      <point x="-613" y="-488" type="curve"/>
      <point x="-613" y="-101" type="line"/>
    </contour>
    <contour>
      <point x="-353" y="-245" type="line"/>
      <point x="-687" y="-245" type="line"/>
      <point x="-699" y="-271"/>
      <point x="-707" y="-311"/>
      <point x="-714" y="-340" type="curve"/>
      <point x="-689" y="-364" type="line"/>
      <point x="-364" y="-364" type="line"/>
      <point x="-354" y="-342"/>
      <point x="-336" y="-298"/>
      <point x="-328" y="-269" type="curve"/>
    </contour>
    <contour>
      <point x="-547" y="-600" type="move" name="L"/>
    </contour>
    <contour>
      <point x="-547" y="-100" type="move" name="_L"/>
    </contour>
  </outline>
</glyph>
<glyph name="CombUpTackBlw" format="1">
  <advance width="0"/>
  <unicode hex="031D"/>
  <outline>
    <contour>
      <point x="-307" y="-400" type="curve"/>
      <point x="-332" y="-376" type="line"/>
      <point x="-749" y="-376" type="line"/>
      <point x="-761" y="-402"/>
      <point x="-779" y="-442"/>
      <point x="-786" y="-471" type="curve"/>
      <point x="-761" y="-495" type="line"/>
      <point x="-343" y="-495" type="line"/>
      <point x="-333" y="-473"/>
      <point x="-315" y="-429"/>
    </contour>
    <contour>
      <point x="-489" y="-450" type="curve"/>
      <point x="-489" y="-126" type="line"/>
      <point x="-513" y="-101" type="line"/>
      <point x="-542" y="-109"/>
      <point x="-586" y="-117"/>
      <point x="-608" y="-127" type="curve"/>
      <point x="-608" y="-452" type="line"/>
      <point x="-584" y="-477" type="line"/>
      <point x="-555" y="-470"/>
      <point x="-515" y="-462"/>
    </contour>
    <contour>
      <point x="-548" y="-600" type="move" name="L"/>
    </contour>
    <contour>
      <point x="-548" y="-100" type="move" name="_L"/>
    </contour>
  </outline>
</glyph>
<glyph name="CombDwnTackBlw" format="1">
  <advance width="0"/>
  <unicode hex="031E"/>
  <outline>
    <contour>
      <point x="-785" y="-215" type="curve"/>
      <point x="-760" y="-239" type="line"/>
      <point x="-343" y="-239" type="line"/>
      <point x="-331" y="-213"/>
      <point x="-313" y="-173"/>
      <point x="-306" y="-144" type="curve"/>
      <point x="-331" y="-120" type="line"/>
      <point x="-749" y="-120" type="line"/>
      <point x="-759" y="-142"/>
      <point x="-777" y="-186"/>
    </contour>
    <contour>
      <point x="-579" y="-514" type="line"/>
      <point x="-550" y="-506"/>
      <point x="-506" y="-498"/>
      <point x="-484" y="-488" type="curve"/>
      <point x="-484" y="-163" type="line"/>
      <point x="-508" y="-138" type="line"/>
      <point x="-537" y="-145"/>
      <point x="-577" y="-153"/>
      <point x="-603" y="-165" type="curve"/>
      <point x="-603" y="-489" type="line"/>
    </contour>
    <contour>
      <point x="-548" y="-600" type="move" name="L"/>
    </contour>
    <contour>
      <point x="-548" y="-100" type="move" name="_L"/>
    </contour>
  </outline>
</glyph>
<glyph name="CombMinusSgnBlw" format="1">
  <advance width="0"/>
  <unicode hex="0320"/>
  <outline>
    <contour>
      <point x="-259" y="-247" type="curve"/>
      <point x="-294" y="-213" type="line"/>
      <point x="-776" y="-213" type="line"/>
      <point x="-789" y="-240"/>
      <point x="-830" y="-326"/>
      <point x="-837" y="-353" type="curve"/>
      <point x="-802" y="-387" type="line"/>
      <point x="-320" y="-387" type="line"/>
      <point x="-308" y="-361"/>
      <point x="-266" y="-273"/>
    </contour>
    <contour>
      <point x="-548" y="-600" type="move" name="L"/>
    </contour>
    <contour>
      <point x="-548" y="-100" type="move" name="_L"/>
    </contour>
  </outline>
</glyph>
<glyph name="CombCommaBlw" format="1">
  <advance width="0"/>
  <unicode hex="0326"/>
  <outline>
    <contour>
      <point x="-386" y="-372"/>
      <point x="-386" y="-270" type="curve" smooth="yes"/>
      <point x="-386" y="-172"/>
      <point x="-432" y="-117"/>
      <point x="-495" y="-86" type="curve"/>
      <point x="-549" y="-83"/>
      <point x="-701" y="-115"/>
      <point x="-758" y="-161" type="curve"/>
      <point x="-740" y="-233" type="line"/>
      <point x="-633" y="-234"/>
      <point x="-581" y="-282"/>
      <point x="-581" y="-343" type="curve" smooth="yes"/>
      <point x="-581" y="-404"/>
      <point x="-620" y="-456"/>
      <point x="-676" y="-507" type="curve"/>
      <point x="-617" y="-563" type="line"/>
      <point x="-478" y="-492"/>
    </contour>
    <contour>
      <point x="-553" y="-600" type="move" name="L"/>
    </contour>
    <contour>
      <point x="-553" y="-100" type="move" name="_L"/>
    </contour>
  </outline>
</glyph>
<glyph name="CombBridgeBlw" format="1">
  <advance width="0"/>
  <unicode hex="032A"/>
  <outline>
    <contour>
      <point x="-717" y="-443" type="curve"/>
      <point x="-717" y="-285" type="line"/>
      <point x="-388" y="-285" type="line"/>
      <point x="-388" y="-475" type="line"/>
      <point x="-364" y="-499" type="line"/>
      <point x="-337" y="-491"/>
      <point x="-287" y="-461"/>
      <point x="-269" y="-441" type="curve"/>
      <point x="-269" y="-190" type="line"/>
      <point x="-292" y="-166" type="line"/>
      <point x="-751" y="-166" type="line"/>
      <point x="-777" y="-180"/>
      <point x="-818" y="-212"/>
      <point x="-836" y="-230" type="curve"/>
      <point x="-836" y="-474" type="line"/>
      <point x="-811" y="-499" type="line"/>
      <point x="-786" y="-486"/>
      <point x="-734" y="-460"/>
    </contour>
    <contour>
      <point x="-555" y="-600" type="move" name="L"/>
    </contour>
    <contour>
      <point x="-555" y="-100" type="move" name="_L"/>
    </contour>
  </outline>
</glyph>
<glyph name="CombInvBreveBlw" format="1">
  <advance width="0"/>
  <unicode hex="032F"/>
  <outline>
    <contour>
      <point x="-913" y="-455" type="curve"/>
      <point x="-897" y="-479"/>
      <point x="-853" y="-520"/>
      <point x="-830" y="-530" type="curve"/>
      <point x="-762" y="-417"/>
      <point x="-640" y="-357"/>
      <point x="-546" y="-357" type="curve" smooth="yes"/>
      <point x="-457" y="-357"/>
      <point x="-332" y="-418"/>
      <point x="-266" y="-530" type="curve"/>
      <point x="-244" y="-520"/>
      <point x="-199" y="-479"/>
      <point x="-183" y="-455" type="curve"/>
      <point x="-263" y="-240"/>
      <point x="-399" y="-145"/>
      <point x="-550" y="-145" type="curve" smooth="yes"/>
      <point x="-690" y="-145"/>
      <point x="-833" y="-240"/>
    </contour>
    <contour>
      <point x="-548" y="-600" type="move" name="L"/>
    </contour>
    <contour>
      <point x="-548" y="-100" type="move" name="_L"/>
    </contour>
  </outline>
</glyph>
<glyph name="CombTildeBlw" format="1">
  <advance width="0"/>
  <unicode hex="0330"/>
  <outline>
    <contour>
      <point x="-214" y="-272"/>
      <point x="-167" y="-164" type="curve"/>
      <point x="-260" y="-125" type="line"/>
      <point x="-305" y="-203"/>
      <point x="-355" y="-254"/>
      <point x="-396" y="-254" type="curve" smooth="yes"/>
      <point x="-470" y="-254"/>
      <point x="-539" y="-151"/>
      <point x="-650" y="-151" type="curve" smooth="yes"/>
      <point x="-794" y="-151"/>
      <point x="-883" y="-327"/>
      <point x="-930" y="-436" type="curve"/>
      <point x="-837" y="-470" type="line"/>
      <point x="-791" y="-396"/>
      <point x="-746" y="-346"/>
      <point x="-703" y="-346" type="curve" smooth="yes"/>
      <point x="-625" y="-346"/>
      <point x="-549" y="-449"/>
      <point x="-447" y="-449" type="curve" smooth="yes"/>
      <point x="-303" y="-449"/>
    </contour>
    <contour>
      <point x="-548" y="-600" type="move" name="L"/>
    </contour>
    <contour>
      <point x="-548" y="-100" type="move" name="_L"/>
    </contour>
  </outline>
</glyph>
<glyph name="CombMacronBlw" format="1">
  <advance width="0"/>
  <unicode hex="0331"/>
  <outline>
    <contour>
      <point x="-135" y="-268"/>
      <point x="-127" y="-239" type="curve"/>
      <point x="-162" y="-205" type="line"/>
      <point x="-921" y="-205" type="line"/>
      <point x="-933" y="-231"/>
      <point x="-975" y="-316"/>
      <point x="-982" y="-345" type="curve"/>
      <point x="-947" y="-379" type="line"/>
      <point x="-188" y="-379" type="line"/>
      <point x="-178" y="-357"/>
    </contour>
    <contour>
      <point x="-548" y="-600" type="move" name="L"/>
    </contour>
    <contour>
      <point x="-548" y="-100" type="move" name="_L"/>
    </contour>
  </outline>
</glyph>
<glyph name="CombDblLowLine" format="1">
  <advance width="0"/>
  <unicode hex="0333"/>
  <outline>
    <contour>
      <point x="60" y="-222" type="curve"/>
      <point x="25" y="-188" type="line"/>
      <point x="-1086" y="-188" type="line"/>
      <point x="-1098" y="-214"/>
      <point x="-1140" y="-299"/>
      <point x="-1147" y="-328" type="curve"/>
      <point x="-1112" y="-362" type="line"/>
      <point x="-1" y="-362" type="line"/>
      <point x="9" y="-340"/>
      <point x="52" y="-251"/>
    </contour>
    <contour>
      <point x="60" y="-492" type="curve"/>
      <point x="25" y="-458" type="line"/>
      <point x="-1086" y="-458" type="line"/>
      <point x="-1098" y="-484"/>
      <point x="-1140" y="-569"/>
      <point x="-1147" y="-598" type="curve"/>
      <point x="-1112" y="-632" type="line"/>
      <point x="-1" y="-632" type="line"/>
      <point x="9" y="-610"/>
      <point x="52" y="-521"/>
    </contour>
    <contour>
      <point x="-548" y="-600" type="move" name="L"/>
    </contour>
    <contour>
      <point x="-548" y="-100" type="move" name="_L"/>
    </contour>
  </outline>
</glyph>
<glyph name="CombShortStrkOverlay" format="1">
  <advance width="0"/>
  <unicode hex="0335"/>
  <outline>
    <contour>
      <point x="-149" y="513" type="curve"/>
      <point x="-184" y="547" type="line"/>
      <point x="-816" y="547" type="line"/>
      <point x="-829" y="520"/>
      <point x="-870" y="434"/>
      <point x="-877" y="407" type="curve"/>
      <point x="-842" y="373" type="line"/>
      <point x="-210" y="373" type="line"/>
      <point x="-198" y="399"/>
      <point x="-156" y="487"/>
    </contour>
  </outline>
</glyph>
<glyph name="CombXAbv" format="1">
  <advance width="0"/>
  <unicode hex="033D"/>
  <outline>
    <contour>
      <point x="-191" y="1112" type="curve"/>
      <point x="-453" y="1331" type="line"/>
      <point x="-640" y="1331" type="line"/>
      <point x="-894" y="1102" type="line"/>
      <point x="-881" y="1081"/>
      <point x="-851" y="1042"/>
      <point x="-833" y="1027" type="curve"/>
      <point x="-548" y="1165" type="line"/>
      <point x="-254" y="1027" type="line"/>
      <point x="-234" y="1043"/>
      <point x="-202" y="1090"/>
    </contour>
    <contour>
      <point x="-191" y="1424" type="line"/>
      <point x="-202" y="1446"/>
      <point x="-234" y="1493"/>
      <point x="-254" y="1509" type="curve"/>
      <point x="-548" y="1371" type="line"/>
      <point x="-833" y="1509" type="line"/>
      <point x="-851" y="1494"/>
      <point x="-881" y="1455"/>
      <point x="-894" y="1434" type="curve"/>
      <point x="-640" y="1205" type="line"/>
      <point x="-453" y="1205" type="line"/>
    </contour>
    <contour>
      <point x="-549" y="1370" type="move" name="U"/>
    </contour>
    <contour>
      <point x="-549" y="1050" type="move" name="_U"/>
    </contour>
  </outline>
</glyph>
<glyph name="CombDblOverline" format="1">
  <advance width="0"/>
  <unicode hex="033F"/>
  <outline>
    <contour>
      <point x="60" y="1562" type="curve"/>
      <point x="25" y="1596" type="line"/>
      <point x="-1086" y="1596" type="line"/>
      <point x="-1098" y="1570"/>
      <point x="-1140" y="1485"/>
      <point x="-1147" y="1456" type="curve"/>
      <point x="-1112" y="1422" type="line"/>
      <point x="-1" y="1422" type="line"/>
      <point x="9" y="1444"/>
      <point x="52" y="1533"/>
    </contour>
    <contour>
      <point x="60" y="1292" type="curve"/>
      <point x="25" y="1326" type="line"/>
      <point x="-1086" y="1326" type="line"/>
      <point x="-1098" y="1300"/>
      <point x="-1140" y="1215"/>
      <point x="-1147" y="1186" type="curve"/>
      <point x="-1112" y="1152" type="line"/>
      <point x="-1" y="1152" type="line"/>
      <point x="9" y="1174"/>
      <point x="52" y="1263"/>
    </contour>
    <contour>
      <point x="-515" y="1680" type="move" name="U"/>
    </contour>
    <contour>
      <point x="-515" y="1050" type="move" name="_U"/>
    </contour>
  </outline>
</glyph>
<glyph name="CombLftRtArrwBlw" format="1">
  <advance width="0"/>
  <unicode hex="034D"/>
  <outline>
    <contour>
      <point x="-308" y="-267" type="curve"/>
      <point x="-333" y="-240" type="line"/>
      <point x="-759" y="-240" type="line"/>
      <point x="-773" y="-267"/>
      <point x="-780" y="-309"/>
      <point x="-788" y="-336" type="curve"/>
      <point x="-765" y="-360" type="line"/>
      <point x="-335" y="-360" type="line"/>
      <point x="-323" y="-338"/>
      <point x="-315" y="-293"/>
    </contour>
    <contour>
      <point x="-357" y="-300" type="line"/>
      <point x="-455" y="-485" type="line"/>
      <point x="-382" y="-521" type="line"/>
      <point x="-214" y="-300" type="line"/>
      <point x="-382" y="-79" type="line"/>
      <point x="-455" y="-115" type="line"/>
    </contour>
    <contour>
      <point x="-740" y="-300" type="line"/>
      <point x="-642" y="-115" type="line"/>
      <point x="-715" y="-79" type="line"/>
      <point x="-883" y="-300" type="line"/>
      <point x="-715" y="-521" type="line"/>
      <point x="-642" y="-485" type="line"/>
    </contour>
    <contour>
      <point x="-548" y="-600" type="move" name="L"/>
    </contour>
    <contour>
      <point x="-548" y="-100" type="move" name="_L"/>
    </contour>
  </outline>
</glyph>
<glyph name="CombRtArrwhdAbv" format="1">
  <advance width="0"/>
  <unicode hex="0350"/>
  <outline>
    <contour>
      <point x="-214" y="1318" type="curve"/>
      <point x="-253" y="1352" type="line"/>
      <point x="-797" y="1556" type="line"/>
      <point x="-826" y="1540"/>
      <point x="-860" y="1508"/>
      <point x="-884" y="1489" type="curve"/>
      <point x="-861" y="1440" type="line"/>
      <point x="-247" y="1213" type="line"/>
      <point x="-237" y="1234"/>
      <point x="-219" y="1295"/>
    </contour>
    <contour>
      <point x="-214" y="1318" type="curve"/>
      <point x="-253" y="1352" type="line"/>
      <point x="-857" y="1129" type="line"/>
      <point x="-865" y="1110"/>
      <point x="-880" y="1040"/>
      <point x="-887" y="1019" type="curve"/>
      <point x="-854" y="989" type="line"/>
      <point x="-247" y="1213" type="line"/>
      <point x="-237" y="1234"/>
      <point x="-219" y="1295"/>
    </contour>
    <contour>
      <point x="-551" y="1450" type="move" name="U"/>
    </contour>
    <contour>
      <point x="-551" y="1050" type="move" name="_U"/>
    </contour>
  </outline>
</glyph>
<glyph name="CombLftHalfRingAbv" format="1">
  <advance width="0"/>
  <unicode hex="0351"/>
  <outline>
    <contour>
      <point x="-426" y="1171" type="line"/>
      <point x="-532" y="1155"/>
      <point x="-581" y="1202"/>
      <point x="-581" y="1264" type="curve" smooth="yes"/>
      <point x="-581" y="1325"/>
      <point x="-530" y="1374"/>
      <point x="-433" y="1357" type="curve"/>
      <point x="-423" y="1491" type="line"/>
      <point x="-604" y="1502"/>
      <point x="-713" y="1397"/>
      <point x="-713" y="1264" type="curve" smooth="yes"/>
      <point x="-713" y="1132"/>
      <point x="-602" y="1026"/>
      <point x="-430" y="1041" type="curve"/>
    </contour>
    <contour>
      <point x="-548" y="1490" type="move" name="U"/>
    </contour>
    <contour>
      <point x="-548" y="1050" type="move" name="_U"/>
    </contour>
  </outline>
</glyph>
<glyph name="CombXBlw" format="1">
  <advance width="0"/>
  <unicode hex="0353"/>
  <outline>
    <contour>
      <point x="-191" y="-479" type="curve"/>
      <point x="-453" y="-260" type="line"/>
      <point x="-640" y="-260" type="line"/>
      <point x="-894" y="-489" type="line"/>
      <point x="-881" y="-510"/>
      <point x="-851" y="-549"/>
      <point x="-833" y="-564" type="curve"/>
      <point x="-548" y="-426" type="line"/>
      <point x="-254" y="-564" type="line"/>
      <point x="-234" y="-548"/>
      <point x="-202" y="-501"/>
    </contour>
    <contour>
      <point x="-191" y="-167" type="line"/>
      <point x="-202" y="-145"/>
      <point x="-234" y="-98"/>
      <point x="-254" y="-82" type="curve"/>
      <point x="-548" y="-220" type="line"/>
      <point x="-833" y="-82" type="line"/>
      <point x="-851" y="-97"/>
      <point x="-881" y="-136"/>
      <point x="-894" y="-157" type="curve"/>
      <point x="-640" y="-386" type="line"/>
      <point x="-453" y="-386" type="line"/>
    </contour>
    <contour>
      <point x="-548" y="-600" type="move" name="L"/>
    </contour>
    <contour>
      <point x="-548" y="-100" type="move" name="_L"/>
    </contour>
  </outline>
</glyph>
<glyph name="CombLftArrwhdBlw" format="1">
  <advance width="0"/>
  <unicode hex="0354"/>
  <outline>
    <contour>
      <point x="-226" y="-123" type="curve"/>
      <point x="-259" y="-93" type="line"/>
      <point x="-866" y="-317" type="line"/>
      <point x="-875" y="-339"/>
      <point x="-894" y="-400"/>
      <point x="-899" y="-422" type="curve"/>
      <point x="-860" y="-456" type="line"/>
      <point x="-256" y="-233" type="line"/>
      <point x="-250" y="-213"/>
      <point x="-231" y="-146"/>
    </contour>
    <contour>
      <point x="-229" y="-593" type="curve"/>
      <point x="-252" y="-544" type="line"/>
      <point x="-866" y="-317" type="line"/>
      <point x="-875" y="-339"/>
      <point x="-894" y="-400"/>
      <point x="-899" y="-422" type="curve"/>
      <point x="-860" y="-456" type="line"/>
      <point x="-316" y="-660" type="line"/>
      <point x="-283" y="-640"/>
      <point x="-252" y="-615"/>
    </contour>
    <contour>
      <point x="-557" y="-600" type="move" name="L"/>
    </contour>
    <contour>
      <point x="-557" y="-100" type="move" name="_L"/>
    </contour>
  </outline>
</glyph>
<glyph name="CombRtHalfRingAbv" format="1">
  <advance width="0"/>
  <unicode hex="0357"/>
  <outline>
    <contour>
      <point x="-649" y="1361" type="line"/>
      <point x="-543" y="1377"/>
      <point x="-494" y="1330"/>
      <point x="-494" y="1268" type="curve" smooth="yes"/>
      <point x="-494" y="1207"/>
      <point x="-545" y="1158"/>
      <point x="-642" y="1175" type="curve"/>
      <point x="-652" y="1041" type="line"/>
      <point x="-471" y="1030"/>
      <point x="-362" y="1135"/>
      <point x="-362" y="1268" type="curve" smooth="yes"/>
      <point x="-362" y="1400"/>
      <point x="-473" y="1506"/>
      <point x="-645" y="1491" type="curve"/>
    </contour>
    <contour>
      <point x="-515" y="1490" type="move" name="U"/>
    </contour>
    <contour>
      <point x="-515" y="1050" type="move" name="_U"/>
    </contour>
  </outline>
</glyph>
<glyph name="CombDblMacronBlw" format="1">
  <advance width="0"/>
  <unicode hex="035F"/>
  <outline>
    <contour>
      <point x="855" y="-605" type="curve"/>
      <point x="820" y="-571" type="line"/>
      <point x="-784" y="-571" type="line"/>
      <point x="-796" y="-597"/>
      <point x="-838" y="-682"/>
      <point x="-845" y="-711" type="curve"/>
      <point x="-810" y="-745" type="line"/>
      <point x="794" y="-745" type="line"/>
      <point x="804" y="-723"/>
      <point x="847" y="-634"/>
    </contour>
    <contour>
      <point x="0" y="-700" type="move" name="L"/>
    </contour>
  </outline>
</glyph>
<glyph name="CombDblInvBreve" format="1">
  <advance width="0"/>
  <unicode hex="0361"/>
  <outline>
    <contour>
      <point x="-848" y="1580" type="curve"/>
      <point x="-821" y="1556"/>
      <point x="-776" y="1525"/>
      <point x="-737" y="1515" type="curve"/>
      <point x="-607" y="1627"/>
      <point x="-308" y="1711"/>
      <point x="4" y="1708" type="curve" smooth="yes"/>
      <point x="316" y="1705"/>
      <point x="604" y="1627"/>
      <point x="737" y="1515" type="curve"/>
      <point x="775" y="1525"/>
      <point x="821" y="1556"/>
      <point x="848" y="1580" type="curve"/>
      <point x="671" y="1795"/>
      <point x="382" y="1910"/>
      <point x="-3" y="1910" type="curve" smooth="yes"/>
      <point x="-359" y="1910"/>
      <point x="-671" y="1795"/>
    </contour>
    <contour>
      <point x="0" y="1930" type="move" name="U"/>
    </contour>
  </outline>
</glyph>
<glyph name="CombLtnSmX" format="1">
  <advance width="0"/>
  <unicode hex="036F"/>
  <outline>
    <contour>
      <point x="-260" y="1487" type="line"/>
      <point x="-486" y="1487" type="line"/>
      <point x="-486" y="1427" type="line"/>
      <point x="-462" y="1424"/>
      <point x="-442" y="1417"/>
      <point x="-456" y="1399" type="curve" smooth="yes"/>
      <point x="-528" y="1315" type="line"/>
      <point x="-474" y="1249" type="line"/>
      <point x="-354" y="1387" type="line" smooth="yes"/>
      <point x="-336" y="1406"/>
      <point x="-319" y="1422"/>
      <point x="-260" y="1427" type="curve"/>
    </contour>
    <contour>
      <point x="-251" y="1059" type="line"/>
      <point x="-251" y="1119" type="line"/>
      <point x="-295" y="1126"/>
      <point x="-318" y="1146"/>
      <point x="-331" y="1161" type="curve" smooth="yes"/>
      <point x="-548" y="1400" type="line" smooth="yes"/>
      <point x="-562" y="1415"/>
      <point x="-542" y="1425"/>
      <point x="-517" y="1427" type="curve"/>
      <point x="-517" y="1487" type="line"/>
      <point x="-795" y="1487" type="line"/>
      <point x="-795" y="1427" type="line"/>
      <point x="-740" y="1423"/>
      <point x="-731" y="1406"/>
      <point x="-713" y="1387" type="curve" smooth="yes"/>
      <point x="-493" y="1146" type="line" smooth="yes"/>
      <point x="-478" y="1129"/>
      <point x="-509" y="1122"/>
      <point x="-526" y="1119" type="curve"/>
      <point x="-526" y="1059" type="line"/>
    </contour>
    <contour>
      <point x="-514" y="1237" type="line"/>
      <point x="-578" y="1293" type="line"/>
      <point x="-702" y="1161" type="line" smooth="yes"/>
      <point x="-717" y="1145"/>
      <point x="-735" y="1126"/>
      <point x="-791" y="1119" type="curve"/>
      <point x="-791" y="1059" type="line"/>
      <point x="-558" y="1059" type="line"/>
      <point x="-558" y="1119" type="line"/>
      <point x="-575" y="1122"/>
      <point x="-616" y="1130"/>
      <point x="-602" y="1146" type="curve" smooth="yes"/>
    </contour>
    <contour>
      <point x="-528" y="1500" type="move" name="U"/>
    </contour>
    <contour>
      <point x="-528" y="1050" type="move" name="_U"/>
    </contour>
  </outline>
</glyph>
<glyph name="GrCapHeta" format="1">
  <advance width="979"/>
  <unicode hex="0370"/>
  <outline>
    <contour>
      <point x="964" y="702" type="curve"/>
      <point x="910" y="746" type="line"/>
      <point x="286" y="746" type="line"/>
      <point x="258" y="616" type="line"/>
      <point x="635" y="616" type="line" smooth="yes"/>
      <point x="752" y="616"/>
      <point x="799" y="600"/>
      <point x="844" y="555" type="curve"/>
      <point x="872" y="582"/>
      <point x="936" y="665"/>
    </contour>
    <contour>
      <point x="620" y="0" type="line"/>
      <point x="620" y="83" type="line"/>
      <point x="523" y="101"/>
      <point x="455" y="128"/>
      <point x="455" y="144" type="curve" smooth="yes"/>
      <point x="455" y="1115" type="line" smooth="yes"/>
      <point x="455" y="1134"/>
      <point x="530" y="1158"/>
      <point x="620" y="1177" type="curve"/>
      <point x="620" y="1260" type="line"/>
      <point x="40" y="1260" type="line"/>
      <point x="40" y="1177" type="line"/>
      <point x="136" y="1158"/>
      <point x="175" y="1131"/>
      <point x="175" y="1115" type="curve" smooth="yes"/>
      <point x="175" y="144" type="line" smooth="yes"/>
      <point x="175" y="126"/>
      <point x="130" y="101"/>
      <point x="40" y="83" type="curve"/>
      <point x="40" y="0" type="line"/>
    </contour>
    <contour>
      <point x="288" y="-4" type="move" name="H"/>
    </contour>
    <contour>
      <point x="368" y="-100" type="move" name="L"/>
    </contour>
    <contour>
      <point x="396" y="1370" type="move" name="U"/>
    </contour>
  </outline>
</glyph>
<glyph name="GrSmHeta" format="1">
  <advance width="883"/>
  <unicode hex="0371"/>
  <outline>
    <contour>
      <point x="843" y="507" type="curve"/>
      <point x="794" y="555" type="line"/>
      <point x="358" y="555" type="line"/>
      <point x="333" y="431" type="line"/>
      <point x="532" y="431" type="line" smooth="yes"/>
      <point x="643" y="431"/>
      <point x="700" y="415"/>
      <point x="739" y="376" type="curve"/>
      <point x="767" y="397"/>
      <point x="818" y="470"/>
    </contour>
    <contour>
      <point x="451" y="717" type="curve"/>
      <point x="452" y="717"/>
      <point x="437" y="915"/>
      <point x="437" y="915" type="curve"/>
      <point x="437" y="915"/>
      <point x="382" y="960"/>
      <point x="382" y="960" type="curve"/>
      <point x="294" y="921"/>
      <point x="140" y="894"/>
      <point x="45" y="880" type="curve"/>
      <point x="45" y="800" type="line"/>
      <point x="178" y="786"/>
      <point x="182" y="771"/>
      <point x="182" y="641" type="curve" smooth="yes"/>
      <point x="182" y="638"/>
      <point x="182" y="224"/>
      <point x="182" y="220" type="curve" smooth="yes"/>
      <point x="182" y="160"/>
      <point x="176" y="63"/>
      <point x="171" y="10" type="curve"/>
      <point x="220" y="-30" type="line"/>
      <point x="268" y="-9"/>
      <point x="426" y="15"/>
      <point x="471" y="32" type="curve"/>
      <point x="460" y="100"/>
      <point x="451" y="144"/>
      <point x="452" y="236" type="curve"/>
      <point x="452" y="237"/>
      <point x="451" y="718"/>
    </contour>
    <contour>
      <point x="475" y="-84" type="move" name="L"/>
    </contour>
    <contour>
      <point x="475" y="1050" type="move" name="U"/>
    </contour>
  </outline>
</glyph>
<glyph name="GrCapUpsilon" format="1">
  <advance width="1252"/>
  <unicode hex="03A5"/>
  <outline>
    <contour>
      <point x="1138" y="1076" type="curve"/>
      <point x="1227" y="1239" type="line"/>
      <point x="1195" y="1284" type="line"/>
      <point x="1038" y="1311"/>
      <point x="915" y="1256"/>
      <point x="826" y="1104" type="curve" smooth="yes"/>
      <point x="758" y="988"/>
      <point x="716" y="869"/>
      <point x="657" y="701" type="curve"/>
      <point x="624" y="832"/>
      <point x="542" y="1056"/>
      <point x="432" y="1196" type="curve" smooth="yes"/>
      <point x="398" y="1240"/>
      <point x="361" y="1290"/>
      <point x="299" y="1290" type="curve" smooth="yes"/>
      <point x="244" y="1290"/>
      <point x="18" y="1280"/>
      <point x="-60" y="1270" type="curve"/>
      <point x="-51" y="1187" type="line"/>
      <point x="60" y="1187"/>
      <point x="147" y="1126"/>
      <point x="200" y="1042" type="curve"/>
      <point x="300" y="889"/>
      <point x="444" y="598"/>
      <point x="444" y="291" type="curve" smooth="yes"/>
      <point x="444" y="155" type="line" smooth="yes"/>
      <point x="444" y="136"/>
      <point x="401" y="108"/>
      <point x="280" y="83" type="curve"/>
      <point x="280" y="0" type="line"/>
      <point x="890" y="0" type="line"/>
      <point x="890" y="83" type="line"/>
      <point x="765" y="108"/>
      <point x="724" y="138"/>
      <point x="724" y="155" type="curve" smooth="yes"/>
      <point x="724" y="291" type="line" smooth="yes"/>
      <point x="724" y="563"/>
      <point x="835" y="818"/>
      <point x="899" y="936" type="curve" smooth="yes"/>
      <point x="982" y="1089"/>
      <point x="1064" y="1090"/>
    </contour>
    <contour>
      <point x="604" y="1370" type="move" name="U"/>
    </contour>
  </outline>
</glyph>
<glyph name="GrCapPsi" format="1">
  <advance width="1478"/>
  <unicode hex="03A8"/>
  <outline>
    <contour>
      <point x="1481" y="1187" type="line"/>
      <point x="1485" y="1270" type="line"/>
      <point x="1416" y="1278"/>
      <point x="1225" y="1290"/>
      <point x="1189" y="1290" type="curve" smooth="yes"/>
      <point x="1096" y="1290"/>
      <point x="1077" y="1208"/>
      <point x="1059" y="930" type="curve" smooth="yes"/>
      <point x="1046" y="723"/>
      <point x="957" y="594"/>
      <point x="738" y="594" type="curve" smooth="yes"/>
      <point x="575" y="594"/>
      <point x="426" y="659"/>
      <point x="420" y="930" type="curve" smooth="yes"/>
      <point x="414" y="1223"/>
      <point x="373" y="1290"/>
      <point x="284" y="1290" type="curve" smooth="yes"/>
      <point x="243" y="1290"/>
      <point x="66" y="1279"/>
      <point x="-9" y="1270" type="curve"/>
      <point x="-5" y="1187" type="line"/>
      <point x="77" y="1179" type="line" smooth="yes"/>
      <point x="119" y="1175"/>
      <point x="149" y="1113"/>
      <point x="160" y="860" type="curve" smooth="yes"/>
      <point x="172" y="586"/>
      <point x="384" y="455"/>
      <point x="738" y="455" type="curve" smooth="yes"/>
      <point x="1074" y="455"/>
      <point x="1303" y="650"/>
      <point x="1316" y="877" type="curve" smooth="yes"/>
      <point x="1330" y="1129"/>
      <point x="1362" y="1175"/>
      <point x="1390" y="1178" type="curve" smooth="yes"/>
    </contour>
    <contour>
      <point x="1024" y="0" type="line"/>
      <point x="1024" y="83" type="line"/>
      <point x="927" y="101"/>
      <point x="878" y="128"/>
      <point x="878" y="144" type="curve" smooth="yes"/>
      <point x="878" y="1115" type="line" smooth="yes"/>
      <point x="878" y="1134"/>
      <point x="913" y="1158"/>
      <point x="1004" y="1177" type="curve"/>
      <point x="1004" y="1260" type="line"/>
      <point x="473" y="1260" type="line"/>
      <point x="473" y="1177" type="line"/>
      <point x="569" y="1158"/>
      <point x="598" y="1131"/>
      <point x="598" y="1115" type="curve" smooth="yes"/>
      <point x="598" y="144" type="line" smooth="yes"/>
      <point x="598" y="126"/>
      <point x="543" y="101"/>
      <point x="453" y="83" type="curve"/>
      <point x="453" y="0" type="line"/>
    </contour>
  </outline>
</glyph>
<glyph name="GrSmTheta" format="1">
  <advance width="1126"/>
  <unicode hex="03B8"/>
  <outline>
    <contour>
      <point x="1054" y="711" type="curve" smooth="yes"/>
      <point x="1051" y="1121"/>
      <point x="896" y="1450"/>
      <point x="573" y="1450" type="curve" smooth="yes"/>
      <point x="287" y="1450"/>
      <point x="70" y="1099"/>
      <point x="72" y="690" type="curve"/>
      <point x="72" y="280"/>
      <point x="231" y="-30"/>
      <point x="543" y="-30" type="curve" smooth="yes"/>
      <point x="855" y="-30"/>
      <point x="1056" y="301"/>
    </contour>
    <contour>
      <point x="578" y="110" type="curve" smooth="yes"/>
      <point x="438" y="110"/>
      <point x="358" y="353"/>
      <point x="344" y="650" type="curve"/>
      <point x="498" y="663"/>
      <point x="611" y="663"/>
      <point x="784" y="652" type="curve"/>
      <point x="793" y="283"/>
      <point x="721" y="110"/>
    </contour>
    <contour>
      <point x="552" y="1310" type="curve" smooth="yes"/>
      <point x="678" y="1310"/>
      <point x="755" y="1094"/>
      <point x="778" y="799" type="curve"/>
      <point x="617" y="789"/>
      <point x="527" y="784"/>
      <point x="342" y="800" type="curve"/>
      <point x="344" y="1154"/>
      <point x="411" y="1310"/>
    </contour>
    <contour>
      <point x="556" y="-100" type="move" name="L"/>
    </contour>
    <contour>
      <point x="556" y="1620" type="move" name="U"/>
    </contour>
  </outline>
</glyph>
<glyph name="GrSmKappa" format="1">
  <advance width="1150"/>
  <unicode hex="03BA"/>
  <outline>
    <contour>
      <point x="1030" y="960" type="curve"/>
      <point x="925" y="960"/>
      <point x="814" y="958"/>
      <point x="452" y="476" type="curve"/>
      <point x="452" y="549"/>
      <point x="452" y="916"/>
      <point x="452" y="916" type="curve"/>
      <point x="452" y="916"/>
      <point x="414" y="960"/>
      <point x="414" y="960" type="curve"/>
      <point x="348" y="933"/>
      <point x="144" y="895"/>
      <point x="45" y="880" type="curve"/>
      <point x="45" y="800" type="line"/>
      <point x="182" y="786"/>
      <point x="182" y="779"/>
      <point x="182" y="633" type="curve" smooth="yes"/>
      <point x="182" y="517"/>
      <point x="182" y="385"/>
      <point x="182" y="252" type="curve" smooth="yes"/>
      <point x="182" y="145"/>
      <point x="178" y="53"/>
      <point x="169" y="10" type="curve"/>
      <point x="217" y="-31" type="line"/>
      <point x="256" y="-14"/>
      <point x="434" y="21"/>
      <point x="468" y="35" type="curve"/>
      <point x="460" y="88"/>
      <point x="452" y="234"/>
      <point x="452" y="311" type="curve"/>
      <point x="747" y="661"/>
      <point x="820" y="662"/>
      <point x="960" y="680" type="curve"/>
      <point x="990" y="712"/>
      <point x="1043" y="845"/>
      <point x="1070" y="911" type="curve"/>
      <point x="1072" y="908"/>
      <point x="1030" y="960"/>
    </contour>
    <contour>
      <point x="1150" y="95" type="curve"/>
      <point x="1147" y="108"/>
      <point x="1135" y="159"/>
      <point x="1132" y="174" type="curve"/>
      <point x="1074" y="154"/>
      <point x="1045" y="146"/>
      <point x="1009" y="146" type="curve" smooth="yes"/>
      <point x="895" y="146"/>
      <point x="830" y="542"/>
      <point x="693" y="542" type="curve" smooth="yes"/>
      <point x="657" y="542"/>
      <point x="431" y="524"/>
      <point x="313" y="237" type="curve"/>
      <point x="330" y="213"/>
      <point x="390" y="211"/>
      <point x="390" y="211" type="curve"/>
      <point x="411" y="264"/>
      <point x="484" y="386"/>
      <point x="564" y="386" type="curve" smooth="yes"/>
      <point x="628" y="386"/>
      <point x="699" y="-31"/>
      <point x="828" y="-31" type="curve" smooth="yes"/>
      <point x="923" y="-31"/>
      <point x="1042" y="27"/>
    </contour>
  </outline>
</glyph>
<glyph name="GrSmNu" format="1">
  <advance width="1145"/>
  <unicode hex="03BD"/>
  <outline>
    <contour>
      <point x="1070" y="919" type="curve"/>
      <point x="1063" y="926"/>
      <point x="1028" y="953"/>
      <point x="1018" y="960" type="curve"/>
      <point x="965" y="947"/>
      <point x="836" y="912"/>
      <point x="775" y="893" type="curve"/>
      <point x="829" y="684"/>
      <point x="801" y="452"/>
      <point x="666" y="212" type="curve"/>
      <point x="599" y="502"/>
      <point x="502" y="728"/>
      <point x="458" y="831" type="curve" smooth="yes"/>
      <point x="416" y="927"/>
      <point x="374" y="960"/>
      <point x="343" y="960" type="curve"/>
      <point x="277" y="931"/>
      <point x="124" y="891"/>
      <point x="40" y="877" type="curve"/>
      <point x="40" y="799" type="line"/>
      <point x="40" y="799"/>
      <point x="117" y="802"/>
      <point x="147" y="788" type="curve" smooth="yes"/>
      <point x="171" y="777"/>
      <point x="191" y="749"/>
      <point x="211" y="703" type="curve" smooth="yes"/>
      <point x="264" y="579"/>
      <point x="363" y="332"/>
      <point x="443" y="0" type="curve"/>
      <point x="483" y="-31" type="line"/>
      <point x="512" y="-24"/>
      <point x="664" y="0"/>
      <point x="685" y="12" type="curve"/>
      <point x="936" y="433"/>
      <point x="1023" y="647"/>
    </contour>
  </outline>
</glyph>
<glyph name="GrSmPi" format="1">
  <advance width="1118"/>
  <unicode hex="03C0"/>
  <outline>
    <contour>
      <point x="1128" y="901" type="curve"/>
      <point x="1080" y="960" type="line"/>
      <point x="1039" y="931"/>
      <point x="991" y="930"/>
      <point x="935" y="930" type="curve" smooth="yes"/>
      <point x="755" y="930"/>
      <point x="576" y="930"/>
      <point x="272" y="930" type="curve" smooth="yes"/>
      <point x="173" y="930"/>
      <point x="72" y="819"/>
      <point x="-15" y="696" type="curve"/>
      <point x="33" y="630" type="line"/>
      <point x="108" y="683"/>
      <point x="153" y="693"/>
      <point x="237" y="693" type="curve" smooth="yes"/>
      <point x="500" y="693"/>
      <point x="640" y="682"/>
      <point x="873" y="682" type="curve" smooth="yes"/>
      <point x="956" y="682"/>
      <point x="1049" y="786"/>
    </contour>
    <contour>
      <point x="1096" y="110" type="curve"/>
      <point x="1064" y="184" type="line"/>
      <point x="994" y="159"/>
      <point x="952" y="153"/>
      <point x="912" y="153" type="curve" smooth="yes"/>
      <point x="850" y="153"/>
      <point x="814" y="243"/>
      <point x="814" y="457" type="curve" smooth="yes"/>
      <point x="814" y="514"/>
      <point x="819" y="633"/>
      <point x="838" y="761" type="curve"/>
      <point x="692" y="750" type="line"/>
      <point x="656" y="535"/>
      <point x="632" y="340"/>
      <point x="632" y="247" type="curve" smooth="yes"/>
      <point x="632" y="64"/>
      <point x="682" y="-31"/>
      <point x="791" y="-31" type="curve" smooth="yes"/>
      <point x="850" y="-31"/>
      <point x="949" y="6"/>
    </contour>
    <contour>
      <point x="447" y="809" type="curve"/>
      <point x="447" y="809"/>
      <point x="315" y="797"/>
      <point x="285" y="785" type="curve"/>
      <point x="235" y="251"/>
      <point x="194" y="175"/>
      <point x="80" y="14" type="curve"/>
      <point x="80" y="14"/>
      <point x="112" y="-23"/>
      <point x="119" y="-32" type="curve"/>
      <point x="179" y="-15"/>
      <point x="396" y="66"/>
      <point x="432" y="90" type="curve"/>
      <point x="418" y="163"/>
      <point x="417" y="225"/>
      <point x="417" y="320" type="curve" smooth="yes"/>
      <point x="417" y="436"/>
      <point x="428" y="635"/>
    </contour>
    <contour>
      <point x="577" y="-100" type="move" name="L"/>
    </contour>
    <contour>
      <point x="577" y="1050" type="move" name="U"/>
    </contour>
  </outline>
</glyph>
<glyph name="GrSmSigma" format="1">
  <advance width="1157"/>
  <unicode hex="03C3"/>
  <outline>
    <contour>
      <point x="1157" y="903" type="curve"/>
      <point x="1105" y="960" type="line"/>
      <point x="1064" y="930"/>
      <point x="1058" y="930"/>
      <point x="978" y="930" type="curve" smooth="yes"/>
      <point x="867" y="930"/>
      <point x="745" y="930"/>
      <point x="632" y="930" type="curve" smooth="yes"/>
      <point x="500" y="930"/>
      <point x="90" y="763"/>
      <point x="90" y="419" type="curve" smooth="yes"/>
      <point x="90" y="177"/>
      <point x="273" y="-30"/>
      <point x="520" y="-30" type="curve" smooth="yes"/>
      <point x="809" y="-30"/>
      <point x="1003" y="245"/>
      <point x="1003" y="424" type="curve" smooth="yes"/>
      <point x="1003" y="571"/>
      <point x="892" y="662"/>
      <point x="774" y="729" type="curve"/>
      <point x="748" y="744"/>
      <point x="619" y="736"/>
      <point x="616" y="736" type="curve"/>
      <point x="617" y="736" type="line"/>
      <point x="669" y="680"/>
      <point x="735" y="531"/>
      <point x="735" y="380" type="curve" smooth="yes"/>
      <point x="735" y="244"/>
      <point x="695" y="115"/>
      <point x="565" y="115" type="curve" smooth="yes"/>
      <point x="447" y="115"/>
      <point x="350" y="296"/>
      <point x="350" y="542" type="curve" smooth="yes"/>
      <point x="350" y="688"/>
      <point x="400" y="725"/>
      <point x="512" y="725" type="curve" smooth="yes"/>
      <point x="570" y="725"/>
      <point x="869" y="709"/>
      <point x="966" y="709" type="curve" smooth="yes"/>
      <point x="1035" y="709"/>
      <point x="1046" y="735"/>
    </contour>
    <contour>
      <point x="550" y="-100" type="move" name="L"/>
    </contour>
    <contour>
      <point x="550" y="1050" type="move" name="U"/>
    </contour>
  </outline>
</glyph>
<glyph name="GrSmTau" format="1">
  <advance width="970"/>
  <unicode hex="03C4"/>
  <outline>
    <contour>
      <point x="962" y="910" type="curve"/>
      <point x="909" y="960" type="line"/>
      <point x="879" y="935"/>
      <point x="829" y="930"/>
      <point x="763" y="930" type="curve" smooth="yes"/>
      <point x="653" y="930"/>
      <point x="422" y="930"/>
      <point x="255" y="930" type="curve" smooth="yes"/>
      <point x="180" y="930"/>
      <point x="79" y="849"/>
      <point x="15" y="772" type="curve"/>
      <point x="58" y="697" type="line"/>
      <point x="125" y="739"/>
      <point x="163" y="745"/>
      <point x="198" y="745" type="curve" smooth="yes"/>
      <point x="249" y="745" type="line" smooth="yes"/>
      <point x="355" y="745"/>
      <point x="556" y="725"/>
      <point x="732" y="725" type="curve" smooth="yes"/>
      <point x="832" y="725"/>
      <point x="888" y="824"/>
    </contour>
    <contour>
      <point x="864" y="179" type="curve"/>
      <point x="827" y="250" type="line"/>
      <point x="710" y="201"/>
      <point x="658" y="190"/>
      <point x="618" y="190" type="curve" smooth="yes"/>
      <point x="546" y="190"/>
      <point x="511" y="257"/>
      <point x="511" y="413" type="curve" smooth="yes"/>
      <point x="511" y="524"/>
      <point x="509" y="659"/>
      <point x="521" y="873" type="curve"/>
      <point x="335" y="879" type="line"/>
      <point x="311" y="631"/>
      <point x="275" y="392"/>
      <point x="275" y="248" type="curve" smooth="yes"/>
      <point x="275" y="97"/>
      <point x="316" y="-30"/>
      <point x="447" y="-30" type="curve" smooth="yes"/>
      <point x="572" y="-30"/>
      <point x="723" y="67"/>
    </contour>
  </outline>
</glyph>
<glyph name="GrSmChi" format="1">
  <advance width="1104"/>
  <unicode hex="03C7"/>
  <outline>
    <contour>
      <point x="918" y="703"/>
      <point x="1065" y="917" type="curve"/>
      <point x="1019" y="960" type="line"/>
      <point x="950" y="936"/>
      <point x="828" y="915"/>
      <point x="777" y="909" type="curve"/>
      <point x="722" y="734"/>
      <point x="664" y="576"/>
      <point x="568" y="385" type="curve"/>
      <point x="624" y="214" type="line"/>
      <point x="740" y="450"/>
    </contour>
    <contour>
      <point x="1010" y="-286"/>
      <point x="1114" y="-188" type="curve"/>
      <point x="1096" y="-103" type="line"/>
      <point x="1020" y="-145"/>
      <point x="980" y="-159"/>
      <point x="939" y="-159" type="curve" smooth="yes"/>
      <point x="864" y="-159"/>
      <point x="812" y="-71"/>
      <point x="659" y="353" type="curve" smooth="yes"/>
      <point x="471" y="875"/>
      <point x="446" y="918"/>
      <point x="377" y="960" type="curve"/>
      <point x="280" y="922"/>
      <point x="124" y="899"/>
      <point x="28" y="879" type="curve"/>
      <point x="28" y="799" type="line"/>
      <point x="28" y="799"/>
      <point x="103" y="799"/>
      <point x="133" y="791" type="curve" smooth="yes"/>
      <point x="234" y="764"/>
      <point x="294" y="662"/>
      <point x="451" y="232" type="curve"/>
      <point x="622" y="-282"/>
      <point x="684" y="-380"/>
      <point x="799" y="-380" type="curve" smooth="yes"/>
      <point x="877" y="-380"/>
    </contour>
    <contour>
      <point x="483" y="9"/>
      <point x="543" y="132" type="curve"/>
      <point x="465" y="262" type="line"/>
      <point x="340" y="35"/>
      <point x="219" y="-124"/>
      <point x="44" y="-337" type="curve"/>
      <point x="91" y="-380" type="line"/>
      <point x="140" y="-365"/>
      <point x="279" y="-336"/>
      <point x="333" y="-327" type="curve"/>
      <point x="411" y="-149"/>
    </contour>
    <contour>
      <point x="562" y="-600" type="move" name="L"/>
    </contour>
    <contour>
      <point x="582" y="1050" type="move" name="U"/>
    </contour>
  </outline>
</glyph>
<glyph name="GrSmOmega" format="1">
  <advance width="1504"/>
  <unicode hex="03C9"/>
  <outline>
    <contour>
      <point x="1444" y="469" type="curve" smooth="yes"/>
      <point x="1444" y="674"/>
      <point x="1299" y="874"/>
      <point x="1112" y="966" type="curve"/>
      <point x="1099" y="961"/>
      <point x="1021" y="922"/>
      <point x="1009" y="913" type="curve"/>
      <point x="1131" y="759"/>
      <point x="1171" y="633"/>
      <point x="1171" y="442" type="curve" smooth="yes"/>
      <point x="1171" y="261"/>
      <point x="1089" y="120"/>
      <point x="990" y="120" type="curve" smooth="yes"/>
      <point x="880" y="120"/>
      <point x="837" y="250"/>
      <point x="834" y="383" type="curve" smooth="yes"/>
      <point x="831" y="498"/>
      <point x="871" y="615"/>
      <point x="871" y="615" type="curve"/>
      <point x="871" y="615"/>
      <point x="834" y="653"/>
      <point x="823" y="666" type="curve"/>
      <point x="781" y="649"/>
      <point x="673" y="610"/>
      <point x="616" y="589" type="curve"/>
      <point x="635" y="544"/>
      <point x="652" y="475"/>
      <point x="651" y="377" type="curve" smooth="yes"/>
      <point x="649" y="236"/>
      <point x="613" y="120"/>
      <point x="509" y="120" type="curve" smooth="yes"/>
      <point x="412" y="120"/>
      <point x="340" y="238"/>
      <point x="340" y="428" type="curve" smooth="yes"/>
      <point x="340" y="569"/>
      <point x="357" y="772"/>
      <point x="486" y="922" type="curve"/>
      <point x="476" y="931"/>
      <point x="393" y="960"/>
      <point x="383" y="966" type="curve"/>
      <point x="171" y="841"/>
      <point x="60" y="609"/>
      <point x="60" y="393" type="curve" smooth="yes"/>
      <point x="60" y="86"/>
      <point x="268" y="-31"/>
      <point x="441" y="-31" type="curve" smooth="yes"/>
      <point x="597" y="-31"/>
      <point x="696" y="74"/>
      <point x="739" y="166" type="curve"/>
      <point x="779" y="64"/>
      <point x="859" y="-31"/>
      <point x="989" y="-31" type="curve" smooth="yes"/>
      <point x="1208" y="-31"/>
      <point x="1444" y="159"/>
    </contour>
    <contour>
      <point x="738" y="-100" type="move" name="L"/>
    </contour>
    <contour>
      <point x="768" y="1050" type="move" name="U"/>
    </contour>
  </outline>
</glyph>
<glyph name="GrSmSampi" format="1">
  <advance width="1347"/>
  <unicode hex="03E1"/>
  <outline>
    <contour>
      <point x="1072" y="-499" type="curve"/>
      <point x="1445" y="459"/>
      <point x="1222" y="1421"/>
      <point x="-203" y="1530" type="curve"/>
      <point x="-209" y="1519"/>
      <point x="-209" y="1465"/>
      <point x="-210" y="1448" type="curve"/>
      <point x="783" y="1280"/>
      <point x="1138" y="507"/>
      <point x="989" y="-476" type="curve"/>
      <point x="1006" y="-482"/>
      <point x="1052" y="-495"/>
    </contour>
    <contour>
      <point x="820" y="916" type="curve"/>
      <point x="741" y="1096" type="line"/>
      <point x="635" y="972"/>
      <point x="348" y="798"/>
      <point x="130" y="689" type="curve"/>
      <point x="131" y="641"/>
      <point x="143" y="477"/>
      <point x="131" y="428" type="curve"/>
      <point x="187" y="407" type="line"/>
      <point x="311" y="554"/>
      <point x="547" y="774"/>
    </contour>
    <contour>
      <point x="1025" y="415" type="curve"/>
      <point x="951" y="601" type="line"/>
      <point x="855" y="477"/>
      <point x="561" y="303"/>
      <point x="364" y="194" type="curve"/>
      <point x="363" y="146"/>
      <point x="376" y="-18"/>
      <point x="365" y="-66" type="curve"/>
      <point x="422" y="-89" type="line"/>
      <point x="546" y="58"/>
      <point x="731" y="263"/>
    </contour>
  </outline>
</glyph>
<glyph name="CyCapDje" format="1">
  <advance width="1360"/>
  <unicode hex="0402"/>
  <outline>
    <contour>
      <point x="1093" y="1235" type="curve"/>
      <point x="1063" y="1260" type="line"/>
      <point x="567" y="1260" type="line"/>
      <point x="538" y="1170" type="line"/>
      <point x="915" y="1170" type="line" smooth="yes"/>
      <point x="975" y="1170"/>
      <point x="998" y="1064"/>
      <point x="1008" y="950" type="curve"/>
      <point x="1053" y="950" type="line"/>
      <point x="1069" y="1034"/>
      <point x="1091" y="1167"/>
    </contour>
    <contour>
      <point x="698" y="1170" type="line"/>
      <point x="670" y="1260" type="line"/>
      <point x="43" y="1260" type="line"/>
      <point x="29" y="1190"/>
      <point x="11" y="1042"/>
      <point x="5" y="964" type="curve"/>
      <point x="48" y="945" type="line"/>
      <point x="108" y="1101"/>
      <point x="141" y="1170"/>
      <point x="182" y="1170" type="curve" smooth="yes"/>
    </contour>
    <contour>
      <point x="591" y="0" type="line"/>
      <point x="591" y="1177" type="line"/>
      <point x="591" y="1177"/>
      <point x="644" y="1198"/>
      <point x="734" y="1217" type="curve"/>
      <point x="734" y="1260" type="line"/>
      <point x="286" y="1260" type="line"/>
      <point x="286" y="1217" type="line"/>
      <point x="382" y="1198"/>
      <point x="431" y="1193"/>
      <point x="431" y="1177" type="curve" smooth="yes"/>
      <point x="431" y="104" type="line" smooth="yes"/>
      <point x="431" y="85"/>
      <point x="389" y="68"/>
      <point x="266" y="43" type="curve"/>
      <point x="266" y="0" type="line"/>
    </contour>
    <contour>
      <point x="1250" y="382" type="curve" smooth="yes"/>
      <point x="1250" y="630"/>
      <point x="1008" y="740"/>
      <point x="804" y="740" type="curve" smooth="yes"/>
      <point x="688" y="740"/>
      <point x="578" y="725"/>
      <point x="514" y="694" type="curve"/>
      <point x="514" y="614" type="line"/>
      <point x="580" y="640"/>
      <point x="660" y="649"/>
      <point x="758" y="649" type="curve" smooth="yes"/>
      <point x="938" y="649"/>
      <point x="1090" y="529"/>
      <point x="1090" y="309" type="curve" smooth="yes"/>
      <point x="1090" y="165"/>
      <point x="1055" y="73"/>
      <point x="974" y="73" type="curve" smooth="yes"/>
      <point x="919" y="73"/>
      <point x="884" y="128"/>
      <point x="836" y="190" type="curve"/>
      <point x="799" y="176"/>
      <point x="736" y="107"/>
      <point x="736" y="85" type="curve" smooth="yes"/>
      <point x="736" y="62"/>
      <point x="788" y="-30"/>
      <point x="905" y="-30" type="curve" smooth="yes"/>
      <point x="978" y="-30"/>
      <point x="1051" y="-9"/>
      <point x="1110" y="45" type="curve" smooth="yes"/>
      <point x="1198" y="125"/>
      <point x="1250" y="214"/>
    </contour>
    <contour>
      <point x="752" y="-100" type="move" name="L"/>
    </contour>
    <contour>
      <point x="520" y="1370" type="move" name="U"/>
    </contour>
  </outline>
</glyph>
<glyph name="CyCapJe" format="1">
  <advance width="625"/>
  <unicode hex="0408"/>
  <outline>
    <contour>
      <point x="555" y="1217" type="curve"/>
      <point x="555" y="1260" type="line"/>
      <point x="55" y="1260" type="line"/>
      <point x="55" y="1217" type="line"/>
      <point x="215" y="1194"/>
      <point x="250" y="1171"/>
      <point x="250" y="1155" type="curve" smooth="yes"/>
      <point x="250" y="133" type="line" smooth="yes"/>
      <point x="250" y="-180"/>
      <point x="154" y="-257"/>
      <point x="84" y="-257" type="curve" smooth="yes"/>
      <point x="33" y="-257"/>
      <point x="0" y="-249"/>
      <point x="-74" y="-200" type="curve"/>
      <point x="-111" y="-214"/>
      <point x="-190" y="-278"/>
      <point x="-190" y="-300" type="curve" smooth="yes"/>
      <point x="-190" y="-323"/>
      <point x="-106" y="-380"/>
      <point x="-25" y="-380" type="curve" smooth="yes"/>
      <point x="27" y="-380"/>
      <point x="139" y="-345"/>
      <point x="211" y="-288" type="curve" smooth="yes"/>
      <point x="315" y="-202"/>
      <point x="410" y="-111"/>
      <point x="410" y="205" type="curve" smooth="yes"/>
      <point x="410" y="1155" type="line" smooth="yes"/>
      <point x="410" y="1174"/>
      <point x="465" y="1198"/>
    </contour>
    <contour>
      <point x="330" y="-500" type="move" name="L"/>
    </contour>
    <contour>
      <point x="330" y="1370" type="move" name="U"/>
    </contour>
  </outline>
</glyph>
<glyph name="CyCapA" format="1">
  <advance width="1309"/>
  <unicode hex="0410"/>
  <outline>
    <contour>
      <point x="789" y="425" type="line"/>
      <point x="887" y="151" type="line" smooth="yes"/>
      <point x="902" y="107"/>
      <point x="869" y="89"/>
      <point x="766" y="83" type="curve"/>
      <point x="766" y="0" type="line"/>
      <point x="1288" y="0" type="line"/>
      <point x="1288" y="83" type="line"/>
      <point x="1202" y="93"/>
      <point x="1180" y="114"/>
      <point x="1167" y="151" type="curve" smooth="yes"/>
      <point x="747" y="1317" type="line"/>
      <point x="667" y="1296"/>
      <point x="563" y="1258"/>
      <point x="490" y="1197" type="curve"/>
      <point x="148" y="151" type="line" smooth="yes"/>
      <point x="135" y="111"/>
      <point x="90" y="99"/>
      <point x="0" y="83" type="curve"/>
      <point x="0" y="0" type="line"/>
      <point x="444" y="0" type="line"/>
      <point x="444" y="83" type="line"/>
      <point x="335" y="95"/>
      <point x="292" y="110"/>
      <point x="305" y="151" type="curve" smooth="yes"/>
      <point x="396" y="425" type="line"/>
    </contour>
    <contour>
      <point x="439" y="555" type="line"/>
      <point x="582" y="1003" type="line"/>
      <point x="743" y="555" type="line"/>
    </contour>
    <contour>
      <point x="644" y="-100" type="move" name="L"/>
    </contour>
    <contour>
      <point x="644" y="1370" type="move" name="U"/>
    </contour>
  </outline>
</glyph>
<glyph name="CyCapBe" format="1">
  <advance width="1266"/>
  <unicode hex="0411"/>
  <outline>
    <contour>
      <point x="959" y="-14"/>
      <point x="1166" y="129"/>
      <point x="1166" y="356" type="curve"/>
      <point x="1166" y="551"/>
      <point x="1031" y="740"/>
      <point x="609" y="740" type="curve" smooth="yes"/>
      <point x="508" y="740"/>
      <point x="367" y="732"/>
      <point x="291" y="705" type="curve"/>
      <point x="371" y="611" type="line"/>
      <point x="435" y="621"/>
      <point x="502" y="634"/>
      <point x="590" y="634" type="curve" smooth="yes"/>
      <point x="814" y="634"/>
      <point x="872" y="489"/>
      <point x="872" y="342" type="curve" smooth="yes"/>
      <point x="872" y="162"/>
      <point x="739" y="100"/>
      <point x="597" y="100" type="curve" smooth="yes"/>
      <point x="537" y="100"/>
      <point x="486" y="116"/>
      <point x="445" y="138" type="curve"/>
      <point x="123" y="0" type="line"/>
      <point x="123" y="0"/>
      <point x="542" y="-14"/>
      <point x="659" y="-14" type="curve" smooth="yes"/>
    </contour>
    <contour>
      <point x="651" y="0" type="line"/>
      <point x="651" y="83" type="line"/>
      <point x="491" y="110"/>
      <point x="455" y="126"/>
      <point x="455" y="144" type="curve" smooth="yes"/>
      <point x="455" y="1137" type="line" smooth="yes"/>
      <point x="455" y="1155"/>
      <point x="510" y="1158"/>
      <point x="600" y="1177" type="curve"/>
      <point x="600" y="1260" type="line"/>
      <point x="432" y="1260" type="line"/>
      <point x="29" y="1260" type="line"/>
      <point x="29" y="1177" type="line"/>
      <point x="125" y="1158"/>
      <point x="175" y="1131"/>
      <point x="175" y="1115" type="curve" smooth="yes"/>
      <point x="175" y="144" type="line" smooth="yes"/>
      <point x="175" y="126"/>
      <point x="119" y="101"/>
      <point x="29" y="83" type="curve"/>
      <point x="29" y="0" type="line"/>
    </contour>
    <contour>
      <point x="1024" y="941"/>
      <point x="1045" y="1157"/>
      <point x="1047" y="1225" type="curve"/>
      <point x="1006" y="1260" type="line"/>
      <point x="432" y="1260" type="line"/>
      <point x="403" y="1130" type="line"/>
      <point x="829" y="1130" type="line" smooth="yes"/>
      <point x="880" y="1130"/>
      <point x="911" y="1023"/>
      <point x="911" y="890" type="curve"/>
      <point x="1008" y="890" type="line"/>
    </contour>
    <contour>
      <point x="600" y="-100" type="move" name="L"/>
    </contour>
    <contour>
      <point x="600" y="1370" type="move" name="U"/>
    </contour>
  </outline>
</glyph>
<glyph name="CyCapVe" format="1">
  <advance width="1266"/>
  <unicode hex="0412"/>
  <outline>
    <contour>
      <point x="1166" y="356" type="curve" smooth="yes"/>
      <point x="1166" y="541"/>
      <point x="1025" y="690"/>
      <point x="815" y="723" type="curve"/>
      <point x="975" y="770"/>
      <point x="1055" y="877"/>
      <point x="1055" y="1020" type="curve" smooth="yes"/>
      <point x="1055" y="1188"/>
      <point x="867" y="1290"/>
      <point x="549" y="1290" type="curve" smooth="yes"/>
      <point x="384" y="1290"/>
      <point x="150" y="1259"/>
      <point x="26" y="1230" type="curve"/>
      <point x="40" y="1138" type="line"/>
      <point x="153" y="1159"/>
      <point x="378" y="1176"/>
      <point x="483" y="1176" type="curve" smooth="yes"/>
      <point x="701" y="1176"/>
      <point x="770" y="1104"/>
      <point x="770" y="971" type="curve" smooth="yes"/>
      <point x="770" y="856"/>
      <point x="722" y="745"/>
      <point x="469" y="745" type="curve" smooth="yes"/>
      <point x="391" y="745" type="line"/>
      <point x="401" y="612" type="line"/>
      <point x="465" y="622"/>
      <point x="492" y="635"/>
      <point x="580" y="635" type="curve" smooth="yes"/>
      <point x="812" y="635"/>
      <point x="872" y="489"/>
      <point x="872" y="342" type="curve" smooth="yes"/>
      <point x="872" y="192"/>
      <point x="779" y="100"/>
      <point x="587" y="100" type="curve" smooth="yes"/>
      <point x="527" y="100"/>
      <point x="486" y="106"/>
      <point x="445" y="128" type="curve"/>
      <point x="123" y="0" type="line"/>
      <point x="123" y="0"/>
      <point x="512" y="-14"/>
      <point x="629" y="-14" type="curve" smooth="yes"/>
      <point x="969" y="-14"/>
      <point x="1166" y="129"/>
    </contour>
    <contour>
      <point x="570" y="0" type="line"/>
      <point x="570" y="73" type="line"/>
      <point x="473" y="91"/>
      <point x="455" y="118"/>
      <point x="455" y="134" type="curve" smooth="yes"/>
      <point x="455" y="1231" type="line"/>
      <point x="175" y="1210" type="line"/>
      <point x="175" y="144" type="line" smooth="yes"/>
      <point x="175" y="126"/>
      <point x="130" y="101"/>
      <point x="40" y="83" type="curve"/>
      <point x="40" y="0" type="line"/>
    </contour>
    <contour>
      <point x="596" y="-100" type="move" name="L"/>
    </contour>
    <contour>
      <point x="596" y="1370" type="move" name="U"/>
    </contour>
  </outline>
</glyph>
<glyph name="CyCapDe" format="1">
  <advance width="1269"/>
  <unicode hex="0414"/>
  <outline>
    <contour>
      <point x="585" y="1170" type="curve"/>
      <point x="872" y="1170"/>
      <point x="875" y="1170"/>
      <point x="875" y="1170" type="curve"/>
      <point x="875" y="90" type="line"/>
      <point x="335" y="90" type="line"/>
      <point x="469" y="439"/>
      <point x="537" y="752"/>
    </contour>
    <contour>
      <point x="991" y="0" type="line"/>
      <point x="1042" y="0"/>
      <point x="1066" y="-175"/>
      <point x="1063" y="-380" type="curve"/>
      <point x="1113" y="-380" type="line"/>
      <point x="1148" y="-261"/>
      <point x="1191" y="-62"/>
      <point x="1199" y="65" type="curve"/>
      <point x="1168" y="90" type="line"/>
      <point x="1035" y="90" type="line"/>
      <point x="1035" y="1155" type="line" smooth="yes"/>
      <point x="1035" y="1174"/>
      <point x="1089" y="1198"/>
      <point x="1180" y="1217" type="curve"/>
      <point x="1180" y="1260" type="line"/>
      <point x="280" y="1260" type="line"/>
      <point x="280" y="1217" type="line"/>
      <point x="375" y="1198"/>
      <point x="452" y="1174"/>
      <point x="465" y="1155" type="curve"/>
      <point x="420" y="765"/>
      <point x="350" y="451"/>
      <point x="182" y="90" type="curve"/>
      <point x="168" y="90"/>
      <point x="66" y="90"/>
      <point x="50" y="90" type="curve"/>
      <point x="13" y="-50"/>
      <point x="0" y="-267"/>
      <point x="0" y="-380" type="curve"/>
      <point x="50" y="-380" type="line"/>
      <point x="120" y="-82"/>
      <point x="193" y="-9"/>
      <point x="233" y="0" type="curve"/>
    </contour>
    <contour>
      <point x="609" y="-100" type="move" name="L"/>
    </contour>
    <contour>
      <point x="724" y="1370" type="move" name="U"/>
    </contour>
  </outline>
</glyph>
<glyph name="CyCapEl" format="1">
  <advance width="1278"/>
  <unicode hex="041B"/>
  <outline>
    <contour>
      <point x="572" y="1170" type="curve"/>
      <point x="758" y="1170"/>
      <point x="903" y="1170"/>
      <point x="903" y="1170" type="curve"/>
      <point x="903" y="104" type="line" smooth="yes"/>
      <point x="903" y="86"/>
      <point x="858" y="61"/>
      <point x="768" y="43" type="curve"/>
      <point x="768" y="0" type="line"/>
      <point x="1208" y="0" type="line"/>
      <point x="1208" y="43" type="line"/>
      <point x="1111" y="61"/>
      <point x="1063" y="88"/>
      <point x="1063" y="104" type="curve" smooth="yes"/>
      <point x="1063" y="1155" type="line" smooth="yes"/>
      <point x="1063" y="1174"/>
      <point x="1117" y="1198"/>
      <point x="1208" y="1217" type="curve"/>
      <point x="1208" y="1260" type="line"/>
      <point x="288" y="1260" type="line"/>
      <point x="288" y="1217" type="line"/>
      <point x="384" y="1198"/>
      <point x="462" y="1177"/>
      <point x="473" y="1155" type="curve"/>
      <point x="530" y="1129" type="line"/>
      <point x="533" y="1158"/>
      <point x="572" y="1170"/>
    </contour>
    <contour>
      <point x="585" y="1199" type="curve"/>
      <point x="573" y="1198"/>
      <point x="486" y="1211"/>
      <point x="474" y="1209" type="curve"/>
      <point x="441" y="593"/>
      <point x="328" y="172"/>
      <point x="202" y="172" type="curve" smooth="yes"/>
      <point x="162" y="172"/>
      <point x="127" y="214"/>
      <point x="114" y="309" type="curve"/>
      <point x="71" y="320" type="line"/>
      <point x="52" y="243"/>
      <point x="34" y="32"/>
      <point x="54" y="20" type="curve" smooth="yes"/>
      <point x="81" y="4"/>
      <point x="125" y="-20"/>
      <point x="178" y="-20" type="curve" smooth="yes"/>
      <point x="436" y="-20"/>
      <point x="546" y="489"/>
    </contour>
    <contour>
      <point x="632" y="-100" type="move" name="L"/>
    </contour>
    <contour>
      <point x="700" y="1370" type="move" name="U"/>
    </contour>
  </outline>
</glyph>
<glyph name="CyCapEn" format="1">
  <advance width="1419"/>
  <unicode hex="041D"/>
  <outline>
    <contour>
      <point x="1360" y="0" type="line"/>
      <point x="1360" y="83" type="line"/>
      <point x="1264" y="101"/>
      <point x="1225" y="128"/>
      <point x="1225" y="144" type="curve" smooth="yes"/>
      <point x="1225" y="1115" type="line" smooth="yes"/>
      <point x="1225" y="1134"/>
      <point x="1270" y="1158"/>
      <point x="1360" y="1177" type="curve"/>
      <point x="1360" y="1260" type="line"/>
      <point x="810" y="1260" type="line"/>
      <point x="810" y="1177" type="line"/>
      <point x="906" y="1158"/>
      <point x="945" y="1131"/>
      <point x="945" y="1115" type="curve" smooth="yes"/>
      <point x="945" y="144" type="line" smooth="yes"/>
      <point x="945" y="126"/>
      <point x="900" y="101"/>
      <point x="810" y="83" type="curve"/>
      <point x="810" y="0" type="line"/>
    </contour>
    <contour>
      <point x="965" y="595" type="line"/>
      <point x="965" y="725" type="line"/>
      <point x="427" y="725" type="line"/>
      <point x="427" y="595" type="line"/>
    </contour>
    <contour>
      <point x="590" y="0" type="line"/>
      <point x="590" y="83" type="line"/>
      <point x="493" y="101"/>
      <point x="455" y="128"/>
      <point x="455" y="144" type="curve" smooth="yes"/>
      <point x="455" y="1115" type="line" smooth="yes"/>
      <point x="455" y="1134"/>
      <point x="500" y="1158"/>
      <point x="590" y="1177" type="curve"/>
      <point x="590" y="1260" type="line"/>
      <point x="40" y="1260" type="line"/>
      <point x="40" y="1177" type="line"/>
      <point x="136" y="1158"/>
      <point x="175" y="1131"/>
      <point x="175" y="1115" type="curve" smooth="yes"/>
      <point x="175" y="144" type="line" smooth="yes"/>
      <point x="175" y="126"/>
      <point x="130" y="101"/>
      <point x="40" y="83" type="curve"/>
      <point x="40" y="0" type="line"/>
    </contour>
    <contour>
      <point x="700" y="-100" type="move" name="L"/>
    </contour>
    <contour>
      <point x="700" y="1370" type="move" name="U"/>
    </contour>
  </outline>
</glyph>
<glyph name="CyCapO" format="1">
  <advance width="1228"/>
  <unicode hex="041E"/>
  <outline>
    <contour>
      <point x="1138" y="647" type="curve"/>
      <point x="1138" y="973"/>
      <point x="963" y="1290"/>
      <point x="633" y="1290" type="curve" smooth="yes"/>
      <point x="319" y="1290"/>
      <point x="70" y="975"/>
      <point x="70" y="612" type="curve" smooth="yes"/>
      <point x="70" y="276"/>
      <point x="254" y="-30"/>
      <point x="575" y="-30" type="curve" smooth="yes"/>
      <point x="879" y="-30"/>
      <point x="1138" y="285"/>
    </contour>
    <contour>
      <point x="983" y="629" type="curve"/>
      <point x="983" y="276"/>
      <point x="825" y="90"/>
      <point x="604" y="90" type="curve" smooth="yes"/>
      <point x="399" y="90"/>
      <point x="225" y="342"/>
      <point x="225" y="641" type="curve" smooth="yes"/>
      <point x="225" y="967"/>
      <point x="367" y="1175"/>
      <point x="604" y="1175" type="curve" smooth="yes"/>
      <point x="831" y="1175"/>
      <point x="983" y="905"/>
    </contour>
    <contour>
      <point x="604" y="-100" type="move" name="L"/>
    </contour>
    <contour>
      <point x="604" y="1370" type="move" name="U"/>
    </contour>
  </outline>
</glyph>
<glyph name="CyCapEr" format="1">
  <advance width="1071"/>
  <unicode hex="0420"/>
  <outline>
    <contour>
      <point x="982" y="936" type="curve"/>
      <point x="982" y="1165"/>
      <point x="797" y="1290"/>
      <point x="510" y="1290" type="curve" smooth="yes"/>
      <point x="348" y="1290"/>
      <point x="170" y="1265"/>
      <point x="41" y="1230" type="curve"/>
      <point x="50" y="1168" type="line"/>
      <point x="179" y="1191"/>
      <point x="313" y="1206"/>
      <point x="453" y="1206" type="curve" smooth="yes"/>
      <point x="659" y="1206"/>
      <point x="827" y="1114"/>
      <point x="827" y="895" type="curve" smooth="yes"/>
      <point x="827" y="707"/>
      <point x="666" y="611"/>
      <point x="543" y="611" type="curve" smooth="yes"/>
      <point x="496" y="611"/>
      <point x="444" y="616"/>
      <point x="389" y="641" type="curve"/>
      <point x="412" y="565" type="line"/>
      <point x="457" y="545"/>
      <point x="512" y="535"/>
      <point x="573" y="535" type="curve" smooth="yes"/>
      <point x="729" y="535"/>
      <point x="982" y="659"/>
    </contour>
    <contour>
      <point x="530" y="0" type="line"/>
      <point x="530" y="43" type="line"/>
      <point x="391" y="66"/>
      <point x="355" y="88"/>
      <point x="355" y="104" type="curve" smooth="yes"/>
      <point x="355" y="1210" type="line"/>
      <point x="195" y="1210" type="line"/>
      <point x="195" y="104" type="line" smooth="yes"/>
      <point x="195" y="86"/>
      <point x="140" y="61"/>
      <point x="50" y="43" type="curve"/>
      <point x="50" y="0" type="line"/>
    </contour>
    <contour>
      <point x="511" y="1370" type="move" name="U"/>
    </contour>
    <contour>
      <point x="511" y="-100" type="move" name="L"/>
    </contour>
  </outline>
</glyph>
<glyph name="CyCapEs" format="1">
  <advance width="1158"/>
  <unicode hex="0421"/>
  <outline>
    <contour>
      <point x="749" y="-30"/>
      <point x="918" y="39"/>
      <point x="1088" y="211" type="curve"/>
      <point x="1080" y="219"/>
      <point x="1045" y="275"/>
      <point x="1031" y="286" type="curve"/>
      <point x="894" y="173"/>
      <point x="765" y="150"/>
      <point x="693" y="150" type="curve" smooth="yes"/>
      <point x="523" y="150"/>
      <point x="335" y="288"/>
      <point x="335" y="623" type="curve" smooth="yes"/>
      <point x="335" y="1038"/>
      <point x="495" y="1149"/>
      <point x="632" y="1150" type="curve" smooth="yes"/>
      <point x="729" y="1151"/>
      <point x="818" y="1098"/>
      <point x="884" y="963" type="curve"/>
      <point x="959" y="947" type="line"/>
      <point x="990" y="978"/>
      <point x="1084" y="1178"/>
      <point x="1069" y="1190" type="curve" smooth="yes"/>
      <point x="1000" y="1245"/>
      <point x="839" y="1289"/>
      <point x="696" y="1290" type="curve" smooth="yes"/>
      <point x="329" y="1292"/>
      <point x="50" y="1012"/>
      <point x="50" y="586" type="curve" smooth="yes"/>
      <point x="50" y="199"/>
      <point x="314" y="-30"/>
      <point x="591" y="-30" type="curve" smooth="yes"/>
    </contour>
    <contour>
      <point x="645" y="-100" type="move" name="L"/>
    </contour>
    <contour>
      <point x="679" y="0" type="move" name="O"/>
    </contour>
    <contour>
      <point x="645" y="1370" type="move" name="U"/>
    </contour>
  </outline>
</glyph>
<glyph name="CyCapTse" format="1">
  <advance width="1290"/>
  <unicode hex="0426"/>
  <outline>
    <contour>
      <point x="1022" y="0" type="line"/>
      <point x="1073" y="0"/>
      <point x="1099" y="-175"/>
      <point x="1096" y="-380" type="curve"/>
      <point x="1144" y="-380" type="line"/>
      <point x="1179" y="-261"/>
      <point x="1222" y="-62"/>
      <point x="1230" y="65" type="curve"/>
      <point x="1199" y="90" type="line"/>
      <point x="1055" y="90" type="line"/>
      <point x="1055" y="1156" type="line" smooth="yes"/>
      <point x="1055" y="1174"/>
      <point x="1110" y="1199"/>
      <point x="1200" y="1217" type="curve"/>
      <point x="1200" y="1260" type="line"/>
      <point x="750" y="1260" type="line"/>
      <point x="750" y="1217" type="line"/>
      <point x="847" y="1199"/>
      <point x="895" y="1172"/>
      <point x="895" y="1156" type="curve" smooth="yes"/>
      <point x="895" y="90" type="line"/>
      <point x="355" y="90" type="line"/>
      <point x="355" y="1156" type="line" smooth="yes"/>
      <point x="355" y="1174"/>
      <point x="410" y="1199"/>
      <point x="500" y="1217" type="curve"/>
      <point x="500" y="1260" type="line"/>
      <point x="50" y="1260" type="line"/>
      <point x="50" y="1217" type="line"/>
      <point x="147" y="1199"/>
      <point x="195" y="1172"/>
      <point x="195" y="1156" type="curve" smooth="yes"/>
      <point x="195" y="105" type="line" smooth="yes"/>
      <point x="195" y="86"/>
      <point x="141" y="62"/>
      <point x="50" y="43" type="curve"/>
      <point x="50" y="0" type="line"/>
    </contour>
    <contour>
      <point x="635" y="-100" type="move" name="L"/>
    </contour>
    <contour>
      <point x="635" y="1370" type="move" name="U"/>
    </contour>
  </outline>
</glyph>
<glyph name="CyCapSha" format="1">
  <advance width="1690"/>
  <unicode hex="0428"/>
  <outline>
    <contour>
      <point x="1180" y="1260" type="line"/>
      <point x="1180" y="1217" type="line"/>
      <point x="1277" y="1199"/>
      <point x="1315" y="1172"/>
      <point x="1315" y="1156" type="curve" smooth="yes"/>
      <point x="1315" y="90" type="line"/>
      <point x="915" y="90" type="line"/>
      <point x="915" y="1156" type="line" smooth="yes"/>
      <point x="915" y="1174"/>
      <point x="960" y="1199"/>
      <point x="1050" y="1217" type="curve"/>
      <point x="1050" y="1260" type="line"/>
      <point x="620" y="1260" type="line"/>
      <point x="620" y="1217" type="line"/>
      <point x="717" y="1199"/>
      <point x="755" y="1172"/>
      <point x="755" y="1156" type="curve" smooth="yes"/>
      <point x="755" y="90" type="line"/>
      <point x="355" y="90" type="line"/>
      <point x="355" y="1156" type="line" smooth="yes"/>
      <point x="355" y="1174"/>
      <point x="400" y="1199"/>
      <point x="490" y="1217" type="curve"/>
      <point x="490" y="1260" type="line"/>
      <point x="50" y="1260" type="line"/>
      <point x="50" y="1217" type="line"/>
      <point x="147" y="1199"/>
      <point x="195" y="1172"/>
      <point x="195" y="1156" type="curve" smooth="yes"/>
      <point x="195" y="105" type="line" smooth="yes"/>
      <point x="195" y="86"/>
      <point x="141" y="62"/>
      <point x="50" y="43" type="curve"/>
      <point x="50" y="0" type="line"/>
      <point x="1620" y="0" type="line"/>
      <point x="1620" y="43" type="line"/>
      <point x="1524" y="62"/>
      <point x="1475" y="89"/>
      <point x="1475" y="105" type="curve" smooth="yes"/>
      <point x="1475" y="1156" type="line" smooth="yes"/>
      <point x="1475" y="1174"/>
      <point x="1530" y="1199"/>
      <point x="1620" y="1217" type="curve"/>
      <point x="1620" y="1260" type="line"/>
    </contour>
    <contour>
      <point x="835" y="-100" type="move" name="L"/>
    </contour>
    <contour>
      <point x="835" y="1370" type="move" name="U"/>
    </contour>
  </outline>
</glyph>
<glyph name="CyCapHardSgn" format="1">
  <advance width="1523"/>
  <unicode hex="042A"/>
  <outline>
    <contour>
      <point x="585" y="1130" type="line"/>
      <point x="677" y="1260" type="line"/>
      <point x="40" y="1260" type="line"/>
      <point x="23" y="1190"/>
      <point x="4" y="980"/>
      <point x="4" y="872" type="curve"/>
      <point x="83" y="833" type="line"/>
      <point x="139" y="1050"/>
      <point x="188" y="1130"/>
      <point x="239" y="1130" type="curve" smooth="yes"/>
    </contour>
    <contour>
      <point x="1236" y="-14"/>
      <point x="1443" y="129"/>
      <point x="1443" y="356" type="curve"/>
      <point x="1443" y="551"/>
      <point x="1308" y="740"/>
      <point x="886" y="740" type="curve" smooth="yes"/>
      <point x="805" y="740"/>
      <point x="664" y="732"/>
      <point x="588" y="705" type="curve"/>
      <point x="668" y="611" type="line"/>
      <point x="732" y="621"/>
      <point x="799" y="634"/>
      <point x="867" y="634" type="curve" smooth="yes"/>
      <point x="1091" y="634"/>
      <point x="1149" y="489"/>
      <point x="1149" y="342" type="curve" smooth="yes"/>
      <point x="1149" y="162"/>
      <point x="1016" y="100"/>
      <point x="874" y="100" type="curve" smooth="yes"/>
      <point x="834" y="100"/>
      <point x="783" y="116"/>
      <point x="742" y="138" type="curve"/>
      <point x="420" y="0" type="line"/>
      <point x="420" y="0"/>
      <point x="819" y="-14"/>
      <point x="936" y="-14" type="curve" smooth="yes"/>
    </contour>
    <contour>
      <point x="928" y="0" type="line"/>
      <point x="928" y="83" type="line"/>
      <point x="768" y="110"/>
      <point x="752" y="126"/>
      <point x="752" y="144" type="curve" smooth="yes"/>
      <point x="752" y="1115" type="line" smooth="yes"/>
      <point x="752" y="1131"/>
      <point x="800" y="1154"/>
      <point x="927" y="1177" type="curve"/>
      <point x="927" y="1260" type="line"/>
      <point x="326" y="1260" type="line"/>
      <point x="326" y="1177" type="line"/>
      <point x="422" y="1158"/>
      <point x="472" y="1151"/>
      <point x="472" y="1135" type="curve" smooth="yes"/>
      <point x="472" y="144" type="line" smooth="yes"/>
      <point x="472" y="126"/>
      <point x="416" y="101"/>
      <point x="326" y="83" type="curve"/>
      <point x="326" y="0" type="line"/>
    </contour>
    <contour>
      <point x="661" y="-100" type="move" name="L"/>
    </contour>
    <contour>
      <point x="661" y="1370" type="move" name="U"/>
    </contour>
  </outline>
</glyph>
<glyph name="CyCapYeru" format="1">
  <advance width="1740"/>
  <unicode hex="042B"/>
  <outline>
    <contour>
      <point x="919" y="-14"/>
      <point x="1116" y="129"/>
      <point x="1116" y="356" type="curve"/>
      <point x="1116" y="551"/>
      <point x="981" y="740"/>
      <point x="559" y="740" type="curve" smooth="yes"/>
      <point x="458" y="740"/>
      <point x="367" y="732"/>
      <point x="291" y="705" type="curve"/>
      <point x="371" y="611" type="line"/>
      <point x="435" y="621"/>
      <point x="452" y="634"/>
      <point x="540" y="634" type="curve" smooth="yes"/>
      <point x="764" y="634"/>
      <point x="822" y="499"/>
      <point x="822" y="352" type="curve" smooth="yes"/>
      <point x="822" y="172"/>
      <point x="729" y="100"/>
      <point x="587" y="100" type="curve" smooth="yes"/>
      <point x="547" y="100"/>
      <point x="486" y="116"/>
      <point x="445" y="138" type="curve"/>
      <point x="123" y="0" type="line"/>
      <point x="123" y="0"/>
      <point x="502" y="-14"/>
      <point x="619" y="-14" type="curve" smooth="yes"/>
    </contour>
    <contour>
      <point x="651" y="0" type="line"/>
      <point x="651" y="83" type="line"/>
      <point x="491" y="110"/>
      <point x="455" y="126"/>
      <point x="455" y="144" type="curve" smooth="yes"/>
      <point x="455" y="1115" type="line" smooth="yes"/>
      <point x="455" y="1131"/>
      <point x="503" y="1154"/>
      <point x="630" y="1177" type="curve"/>
      <point x="630" y="1260" type="line"/>
      <point x="29" y="1260" type="line"/>
      <point x="29" y="1177" type="line"/>
      <point x="125" y="1158"/>
      <point x="175" y="1131"/>
      <point x="175" y="1115" type="curve" smooth="yes"/>
      <point x="175" y="144" type="line" smooth="yes"/>
      <point x="175" y="126"/>
      <point x="119" y="101"/>
      <point x="29" y="83" type="curve"/>
      <point x="29" y="0" type="line"/>
    </contour>
    <contour>
      <point x="1680" y="0" type="line"/>
      <point x="1680" y="83" type="line"/>
      <point x="1584" y="101"/>
      <point x="1545" y="128"/>
      <point x="1545" y="144" type="curve" smooth="yes"/>
      <point x="1545" y="1115" type="line" smooth="yes"/>
      <point x="1545" y="1134"/>
      <point x="1590" y="1158"/>
      <point x="1680" y="1177" type="curve"/>
      <point x="1680" y="1260" type="line"/>
      <point x="1130" y="1260" type="line"/>
      <point x="1130" y="1177" type="line"/>
      <point x="1226" y="1158"/>
      <point x="1265" y="1131"/>
      <point x="1265" y="1115" type="curve" smooth="yes"/>
      <point x="1265" y="144" type="line" smooth="yes"/>
      <point x="1265" y="126"/>
      <point x="1220" y="101"/>
      <point x="1130" y="83" type="curve"/>
      <point x="1130" y="0" type="line"/>
    </contour>
    <contour>
      <point x="870" y="-100" type="move" name="L"/>
    </contour>
    <contour>
      <point x="870" y="1370" type="move" name="U"/>
    </contour>
  </outline>
</glyph>
<glyph name="CyCapSoftSgn" format="1">
  <advance width="1246"/>
  <unicode hex="042C"/>
  <outline>
    <contour>
      <point x="959" y="-14"/>
      <point x="1166" y="129"/>
      <point x="1166" y="356" type="curve"/>
      <point x="1166" y="551"/>
      <point x="1031" y="740"/>
      <point x="609" y="740" type="curve" smooth="yes"/>
      <point x="508" y="740"/>
      <point x="367" y="732"/>
      <point x="291" y="705" type="curve"/>
      <point x="371" y="611" type="line"/>
      <point x="435" y="621"/>
      <point x="502" y="634"/>
      <point x="590" y="634" type="curve" smooth="yes"/>
      <point x="814" y="634"/>
      <point x="872" y="489"/>
      <point x="872" y="342" type="curve" smooth="yes"/>
      <point x="872" y="162"/>
      <point x="739" y="100"/>
      <point x="597" y="100" type="curve" smooth="yes"/>
      <point x="537" y="100"/>
      <point x="486" y="116"/>
      <point x="445" y="138" type="curve"/>
      <point x="123" y="0" type="line"/>
      <point x="123" y="0"/>
      <point x="542" y="-14"/>
      <point x="659" y="-14" type="curve" smooth="yes"/>
    </contour>
    <contour>
      <point x="651" y="0" type="line"/>
      <point x="651" y="83" type="line"/>
      <point x="491" y="110"/>
      <point x="455" y="126"/>
      <point x="455" y="144" type="curve" smooth="yes"/>
      <point x="455" y="1115" type="line" smooth="yes"/>
      <point x="455" y="1131"/>
      <point x="503" y="1154"/>
      <point x="630" y="1177" type="curve"/>
      <point x="630" y="1260" type="line"/>
      <point x="29" y="1260" type="line"/>
      <point x="29" y="1177" type="line"/>
      <point x="125" y="1158"/>
      <point x="175" y="1131"/>
      <point x="175" y="1115" type="curve" smooth="yes"/>
      <point x="175" y="144" type="line" smooth="yes"/>
      <point x="175" y="126"/>
      <point x="119" y="101"/>
      <point x="29" y="83" type="curve"/>
      <point x="29" y="0" type="line"/>
    </contour>
    <contour>
      <point x="533" y="-100" type="move" name="L"/>
    </contour>
    <contour>
      <point x="533" y="1370" type="move" name="U"/>
    </contour>
  </outline>
</glyph>
<glyph name="CyCapYa" format="1">
  <advance width="1179"/>
  <unicode hex="042F"/>
  <outline>
    <contour>
      <point x="213" y="947" type="curve"/>
      <point x="213" y="691"/>
      <point x="430" y="615"/>
      <point x="698" y="615" type="curve" smooth="yes"/>
      <point x="735" y="615"/>
      <point x="836" y="615"/>
      <point x="836" y="615" type="curve"/>
      <point x="842" y="705" type="line"/>
      <point x="842" y="705"/>
      <point x="749" y="705"/>
      <point x="715" y="705" type="curve" smooth="yes"/>
      <point x="495" y="705"/>
      <point x="368" y="790"/>
      <point x="368" y="966" type="curve" smooth="yes"/>
      <point x="368" y="1112"/>
      <point x="479" y="1206"/>
      <point x="727" y="1206" type="curve" smooth="yes"/>
      <point x="844" y="1206"/>
      <point x="992" y="1189"/>
      <point x="1129" y="1168" type="curve"/>
      <point x="1138" y="1230" type="line"/>
      <point x="1013" y="1261"/>
      <point x="866" y="1290"/>
      <point x="720" y="1290" type="curve" smooth="yes"/>
      <point x="371" y="1290"/>
      <point x="213" y="1119"/>
    </contour>
    <contour>
      <point x="1129" y="0" type="line"/>
      <point x="1129" y="43" type="line"/>
      <point x="1039" y="61"/>
      <point x="984" y="86"/>
      <point x="984" y="104" type="curve" smooth="yes"/>
      <point x="984" y="1221" type="line"/>
      <point x="824" y="1221" type="line"/>
      <point x="824" y="104" type="line" smooth="yes"/>
      <point x="824" y="88"/>
      <point x="776" y="61"/>
      <point x="679" y="43" type="curve"/>
      <point x="679" y="0" type="line"/>
    </contour>
    <contour>
      <point x="0" y="37" type="line"/>
      <point x="88" y="8"/>
      <point x="172" y="-14"/>
      <point x="224" y="-14" type="curve" smooth="yes"/>
      <point x="262" y="-14"/>
      <point x="304" y="11"/>
      <point x="322" y="41" type="curve"/>
      <point x="621" y="632" type="line"/>
      <point x="518" y="705" type="line"/>
      <point x="181" y="139" type="line"/>
      <point x="141" y="81"/>
      <point x="101" y="72"/>
      <point x="11" y="80" type="curve"/>
    </contour>
    <contour>
      <point x="589" y="-100" type="move" name="L"/>
    </contour>
    <contour>
      <point x="640" y="1370" type="move" name="U"/>
    </contour>
  </outline>
</glyph>
<glyph name="CySmA" format="1">
  <advance width="1050"/>
  <unicode hex="0430"/>
  <outline>
    <contour>
      <point x="775" y="-30"/>
      <point x="933" y="44"/>
      <point x="1046" y="122" type="curve"/>
      <point x="1021" y="207" type="line"/>
      <point x="968" y="185"/>
      <point x="952" y="180"/>
      <point x="933" y="180" type="curve" smooth="yes"/>
      <point x="909" y="180"/>
      <point x="893" y="202"/>
      <point x="893" y="258" type="curve" smooth="yes"/>
      <point x="893" y="712" type="line" smooth="yes"/>
      <point x="893" y="849"/>
      <point x="810" y="960"/>
      <point x="614" y="960" type="curve" smooth="yes"/>
      <point x="375" y="960"/>
      <point x="144" y="833"/>
      <point x="78" y="666" type="curve"/>
      <point x="102" y="607" type="line"/>
      <point x="135" y="599"/>
      <point x="395" y="669"/>
      <point x="392" y="694" type="curve" smooth="yes"/>
      <point x="384" y="774"/>
      <point x="449" y="820"/>
      <point x="505" y="820" type="curve" smooth="yes"/>
      <point x="596" y="820"/>
      <point x="623" y="762"/>
      <point x="623" y="682" type="curve" smooth="yes"/>
      <point x="623" y="164" type="line" smooth="yes"/>
      <point x="623" y="45"/>
      <point x="665" y="-30"/>
      <point x="722" y="-30" type="curve" smooth="yes"/>
    </contour>
    <contour>
      <point x="633" y="573" type="line"/>
      <point x="298" y="522"/>
      <point x="210" y="466"/>
      <point x="145" y="401" type="curve" smooth="yes"/>
      <point x="96" y="352"/>
      <point x="60" y="292"/>
      <point x="60" y="206" type="curve" smooth="yes"/>
      <point x="60" y="51"/>
      <point x="177" y="-30"/>
      <point x="293" y="-30" type="curve" smooth="yes"/>
      <point x="383" y="-30"/>
      <point x="516" y="7"/>
      <point x="641" y="142" type="curve"/>
      <point x="633" y="266" type="line"/>
      <point x="528" y="173"/>
      <point x="474" y="160"/>
      <point x="432" y="160" type="curve" smooth="yes"/>
      <point x="397" y="160"/>
      <point x="344" y="183"/>
      <point x="344" y="269" type="curve" smooth="yes"/>
      <point x="344" y="323"/>
      <point x="367" y="357"/>
      <point x="402" y="392" type="curve" smooth="yes"/>
      <point x="435" y="425"/>
      <point x="486" y="444"/>
      <point x="633" y="468" type="curve"/>
    </contour>
    <contour>
      <point x="502" y="-100" type="move" name="L"/>
    </contour>
    <contour>
      <point x="526" y="1050" type="move" name="U"/>
    </contour>
  </outline>
</glyph>
<glyph name="CySmIe" format="1">
  <advance width="946"/>
  <unicode hex="0435"/>
  <outline>
    <contour>
      <point x="866" y="557" type="curve"/>
      <point x="866" y="727"/>
      <point x="786" y="960"/>
      <point x="524" y="960" type="curve" smooth="yes"/>
      <point x="453" y="960"/>
      <point x="360" y="922"/>
      <point x="301" y="881" type="curve" smooth="yes"/>
      <point x="162" y="786"/>
      <point x="80" y="614"/>
      <point x="80" y="434" type="curve" smooth="yes"/>
      <point x="80" y="152"/>
      <point x="260" y="-30"/>
      <point x="465" y="-30" type="curve" smooth="yes"/>
      <point x="602" y="-30"/>
      <point x="682" y="0"/>
      <point x="860" y="195" type="curve"/>
      <point x="854" y="205"/>
      <point x="840" y="227"/>
      <point x="823" y="236" type="curve"/>
      <point x="674" y="113"/>
      <point x="610" y="100"/>
      <point x="526" y="100" type="curve" smooth="yes"/>
      <point x="342" y="100"/>
      <point x="230" y="287"/>
      <point x="230" y="497" type="curve" smooth="yes"/>
      <point x="230" y="702"/>
      <point x="336" y="855"/>
      <point x="496" y="855" type="curve" smooth="yes"/>
      <point x="670" y="855"/>
      <point x="702" y="688"/>
      <point x="702" y="616" type="curve" smooth="yes"/>
      <point x="702" y="588"/>
      <point x="694" y="580"/>
      <point x="664" y="580" type="curve" smooth="yes"/>
      <point x="184" y="580" type="line"/>
      <point x="182" y="490" type="line"/>
      <point x="756" y="490" type="line"/>
      <point x="799" y="507"/>
      <point x="842" y="530"/>
    </contour>
    <contour>
      <point x="473" y="1050" type="move" name="U"/>
    </contour>
    <contour>
      <point x="473" y="-100" type="move" name="L"/>
    </contour>
  </outline>
</glyph>
<glyph name="CySmI" format="1">
  <advance width="1195"/>
  <unicode hex="0438"/>
  <outline>
    <contour>
      <point x="886" y="727" type="line"/>
      <point x="886" y="851" type="line"/>
      <point x="292" y="186" type="line"/>
      <point x="292" y="63" type="line"/>
    </contour>
    <contour>
      <point x="485" y="0" type="line"/>
      <point x="485" y="43" type="line"/>
      <point x="388" y="61"/>
      <point x="345" y="88"/>
      <point x="345" y="104" type="curve" smooth="yes"/>
      <point x="345" y="826" type="line" smooth="yes"/>
      <point x="345" y="844"/>
      <point x="395" y="869"/>
      <point x="485" y="887" type="curve"/>
      <point x="485" y="930" type="line"/>
      <point x="55" y="930" type="line"/>
      <point x="55" y="887" type="line"/>
      <point x="152" y="869"/>
      <point x="195" y="842"/>
      <point x="195" y="826" type="curve" smooth="yes"/>
      <point x="195" y="104" type="line" smooth="yes"/>
      <point x="195" y="86"/>
      <point x="145" y="61"/>
      <point x="55" y="43" type="curve"/>
      <point x="55" y="0" type="line"/>
    </contour>
    <contour>
      <point x="1140" y="0" type="line"/>
      <point x="1140" y="43" type="line"/>
      <point x="1043" y="61"/>
      <point x="1000" y="88"/>
      <point x="1000" y="104" type="curve" smooth="yes"/>
      <point x="1000" y="826" type="line" smooth="yes"/>
      <point x="1000" y="844"/>
      <point x="1050" y="869"/>
      <point x="1140" y="887" type="curve"/>
      <point x="1140" y="930" type="line"/>
      <point x="710" y="930" type="line"/>
      <point x="710" y="887" type="line"/>
      <point x="807" y="869"/>
      <point x="850" y="842"/>
      <point x="850" y="826" type="curve" smooth="yes"/>
      <point x="850" y="104" type="line" smooth="yes"/>
      <point x="850" y="86"/>
      <point x="800" y="61"/>
      <point x="710" y="43" type="curve"/>
      <point x="710" y="0" type="line"/>
    </contour>
    <contour>
      <point x="597" y="-100" type="move" name="L"/>
    </contour>
    <contour>
      <point x="597" y="1050" type="move" name="U"/>
    </contour>
  </outline>
</glyph>
<glyph name="CySmShortI" format="1">
  <advance width="1195"/>
  <unicode hex="0439"/>
  <outline>
    <component base="CySmI"/>
    <component base="CombBreve.CyShortMrkAlt" xOffset="1227"/>
    <contour>
      <point x="597" y="1370" type="move" name="U"/>
    </contour>
    <contour>
      <point x="597" y="-100" type="move" name="L"/>
    </contour>
  </outline>
</glyph>
<glyph name="CySmEn" format="1">
  <advance width="1165"/>
  <unicode hex="043D"/>
  <outline>
    <contour>
      <point x="872" y="430" type="line"/>
      <point x="872" y="520" type="line"/>
      <point x="269" y="520" type="line"/>
      <point x="269" y="430" type="line"/>
    </contour>
    <contour>
      <point x="485" y="0" type="line"/>
      <point x="485" y="43" type="line"/>
      <point x="388" y="61"/>
      <point x="345" y="88"/>
      <point x="345" y="104" type="curve" smooth="yes"/>
      <point x="345" y="826" type="line" smooth="yes"/>
      <point x="345" y="844"/>
      <point x="395" y="869"/>
      <point x="485" y="887" type="curve"/>
      <point x="485" y="930" type="line"/>
      <point x="55" y="930" type="line"/>
      <point x="55" y="887" type="line"/>
      <point x="152" y="869"/>
      <point x="195" y="842"/>
      <point x="195" y="826" type="curve" smooth="yes"/>
      <point x="195" y="104" type="line" smooth="yes"/>
      <point x="195" y="86"/>
      <point x="145" y="61"/>
      <point x="55" y="43" type="curve"/>
      <point x="55" y="0" type="line"/>
    </contour>
    <contour>
      <point x="1110" y="0" type="line"/>
      <point x="1110" y="43" type="line"/>
      <point x="1013" y="61"/>
      <point x="970" y="88"/>
      <point x="970" y="104" type="curve" smooth="yes"/>
      <point x="970" y="826" type="line" smooth="yes"/>
      <point x="970" y="844"/>
      <point x="1020" y="869"/>
      <point x="1110" y="887" type="curve"/>
      <point x="1110" y="930" type="line"/>
      <point x="680" y="930" type="line"/>
      <point x="680" y="887" type="line"/>
      <point x="777" y="869"/>
      <point x="820" y="842"/>
      <point x="820" y="826" type="curve" smooth="yes"/>
      <point x="820" y="104" type="line" smooth="yes"/>
      <point x="820" y="86"/>
      <point x="770" y="61"/>
      <point x="680" y="43" type="curve"/>
      <point x="680" y="0" type="line"/>
    </contour>
    <contour>
      <point x="582" y="-100" type="move" name="L"/>
    </contour>
    <contour>
      <point x="582" y="1050" type="move" name="U"/>
    </contour>
  </outline>
</glyph>
<glyph name="CySmEs" format="1">
  <advance width="945"/>
  <unicode hex="0441"/>
  <outline>
    <contour>
      <point x="610" y="-30"/>
      <point x="736" y="-4"/>
      <point x="910" y="190" type="curve"/>
      <point x="851" y="261" type="line"/>
      <point x="713" y="164"/>
      <point x="652" y="150"/>
      <point x="577" y="150" type="curve" smooth="yes"/>
      <point x="437" y="150"/>
      <point x="329" y="268"/>
      <point x="330" y="475" type="curve" smooth="yes"/>
      <point x="331" y="736"/>
      <point x="430" y="830"/>
      <point x="540" y="830" type="curve" smooth="yes"/>
      <point x="637" y="830"/>
      <point x="690" y="756"/>
      <point x="741" y="597" type="curve"/>
      <point x="818" y="587" type="line"/>
      <point x="843" y="624"/>
      <point x="911" y="848"/>
      <point x="905" y="881" type="curve"/>
      <point x="860" y="928"/>
      <point x="698" y="960"/>
      <point x="610" y="960" type="curve" smooth="yes"/>
      <point x="283" y="960"/>
      <point x="60" y="731"/>
      <point x="60" y="444" type="curve" smooth="yes"/>
      <point x="60" y="147"/>
      <point x="260" y="-30"/>
      <point x="485" y="-30" type="curve" smooth="yes"/>
    </contour>
    <contour>
      <point x="518" y="-100" type="move" name="L"/>
    </contour>
    <contour>
      <point x="564" y="0" type="move" name="O"/>
    </contour>
    <contour>
      <point x="518" y="1050" type="move" name="U"/>
    </contour>
  </outline>
</glyph>
